SplineFontDB: 3.0
FontName: AlphanumericQRspace
FullName: AlphanumericQR Space
FamilyName: AlphanumericQR Space
Weight: Regular
Copyright: Copyright (c) 2016, Aydi Rainkarnichi (https://github.com/rainkarnichi), with Reserved Font Name AlphanumericQR v2.0.
Version: 2.0
ItalicAngle: 0
UnderlinePosition: 0
UnderlineWidth: 0
Ascent: 806
Descent: 202
InvalidEm: 0
LayerCount: 2
Layer: 0 0 "Back" 1
Layer: 1 0 "Fore" 0
XUID: [1021 878 1981670163 17373]
OS2Version: 0
OS2_WeightWidthSlopeOnly: 0
OS2_UseTypoMetrics: 0
CreationTime: 1456642384
ModificationTime: 1457266600
PfmFamily: 17
TTFWeight: 400
TTFWidth: 5
LineGap: 91
VLineGap: 91
OS2TypoAscent: 0
OS2TypoAOffset: 1
OS2TypoDescent: 0
OS2TypoDOffset: 1
OS2TypoLinegap: 91
OS2WinAscent: 0
OS2WinAOffset: 1
OS2WinDescent: 0
OS2WinDOffset: 1
HheadAscent: 0
HheadAOffset: 1
HheadDescent: 0
HheadDOffset: 1
OS2Vendor: 'PfEd'
MarkAttachClasses: 1
DEI: 91125

StartChar: a
Encoding: 97 97 0
Width: 1092
VWidth: 1056
Flags: HW
LayerCount: 2
Fore
SplineSet
0 806 m 1
 48 806 l 1
 96 806 l 1
 144 806 l 1
 192 806 l 1
 240 806 l 1
 288 806 l 1
 336 806 l 1
 336 758 l 1
 336 710 l 1
 336 662 l 1
 336 614 l 1
 336 566 l 1
 336 518 l 1
 336 470 l 1
 288 470 l 1
 240 470 l 1
 192 470 l 1
 144 470 l 1
 96 470 l 1
 48 470 l 1
 0 470 l 1
 0 518 l 1
 0 566 l 1
 0 614 l 1
 0 662 l 1
 0 710 l 1
 0 758 l 1
 0 806 l 1
384 806 m 1
 432 806 l 1
 480 806 l 1
 528 806 l 1
 528 758 l 1
 528 710 l 1
 576 710 l 1
 576 758 l 1
 576 806 l 1
 624 806 l 1
 624 758 l 1
 624 710 l 1
 624 662 l 1
 576 662 l 1
 576 614 l 1
 576 566 l 1
 624 566 l 1
 624 518 l 1
 624 470 l 1
 624 422 l 1
 624 374 l 1
 672 374 l 1
 672 422 l 1
 720 422 l 1
 720 374 l 1
 720 326 l 1
 672 326 l 1
 624 326 l 1
 576 326 l 1
 576 278 l 1
 576 230 l 1
 528 230 l 1
 528 182 l 1
 480 182 l 1
 480 134 l 1
 432 134 l 1
 432 86 l 1
 480 86 l 1
 480 38 l 1
 432 38 l 1
 384 38 l 1
 384 86 l 1
 384 134 l 1
 384 182 l 1
 432 182 l 1
 432 230 l 1
 480 230 l 1
 480 278 l 1
 480 326 l 1
 432 326 l 1
 432 278 l 1
 432 230 l 1
 384 230 l 1
 384 278 l 1
 384 326 l 1
 384 374 l 1
 432 374 l 1
 432 422 l 1
 384 422 l 1
 384 470 l 1
 384 518 l 1
 432 518 l 1
 432 470 l 1
 480 470 l 1
 480 422 l 1
 480 374 l 1
 528 374 l 1
 528 422 l 1
 528 470 l 1
 576 470 l 1
 576 518 l 1
 528 518 l 1
 528 566 l 1
 528 614 l 1
 528 662 l 1
 480 662 l 1
 480 710 l 1
 480 758 l 1
 432 758 l 1
 432 710 l 1
 384 710 l 1
 384 758 l 1
 384 806 l 1
576 230 m 1
 624 230 l 1
 624 182 l 1
 576 182 l 1
 576 230 l 1
576 182 m 1
 576 134 l 1
 624 134 l 1
 624 86 l 1
 576 86 l 1
 528 86 l 1
 528 134 l 1
 528 182 l 1
 576 182 l 1
480 38 m 1
 528 38 l 1
 528 -10 l 1
 576 -10 l 1
 576 -58 l 1
 528 -58 l 1
 528 -106 l 1
 528 -154 l 1
 480 -154 l 1
 480 -106 l 1
 432 -106 l 1
 384 -106 l 1
 384 -58 l 1
 384 -10 l 1
 432 -10 l 1
 480 -10 l 1
 480 38 l 1
576 -10 m 1
 576 38 l 1
 624 38 l 1
 672 38 l 1
 720 38 l 1
 720 86 l 1
 720 134 l 1
 768 134 l 1
 768 86 l 1
 816 86 l 1
 816 38 l 1
 816 -10 l 1
 864 -10 l 1
 912 -10 l 1
 960 -10 l 1
 960 -58 l 1
 912 -58 l 1
 864 -58 l 1
 816 -58 l 1
 768 -58 l 1
 768 -106 l 1
 768 -154 l 1
 720 -154 l 1
 720 -106 l 1
 672 -106 l 1
 672 -58 l 1
 672 -10 l 1
 624 -10 l 1
 576 -10 l 1
720 134 m 1
 672 134 l 1
 672 182 l 1
 720 182 l 1
 720 134 l 1
720 182 m 1
 720 230 l 1
 672 230 l 1
 672 278 l 1
 720 278 l 1
 768 278 l 1
 816 278 l 1
 816 326 l 1
 816 374 l 1
 816 422 l 1
 864 422 l 1
 864 374 l 1
 864 326 l 1
 912 326 l 1
 912 278 l 1
 912 230 l 1
 912 182 l 1
 864 182 l 1
 864 230 l 1
 816 230 l 1
 768 230 l 1
 768 182 l 1
 720 182 l 1
864 182 m 1
 864 134 l 1
 864 86 l 1
 816 86 l 1
 816 134 l 1
 816 182 l 1
 864 182 l 1
864 86 m 1
 912 86 l 1
 960 86 l 1
 960 38 l 1
 912 38 l 1
 864 38 l 1
 864 86 l 1
960 38 m 1
 1008 38 l 1
 1008 -10 l 1
 960 -10 l 1
 960 38 l 1
768 -154 m 1
 816 -154 l 1
 816 -202 l 1
 768 -202 l 1
 768 -154 l 1
672 -106 m 1
 672 -154 l 1
 672 -202 l 1
 624 -202 l 1
 624 -154 l 1
 624 -106 l 1
 672 -106 l 1
624 -106 m 1
 576 -106 l 1
 576 -58 l 1
 624 -58 l 1
 624 -106 l 1
480 -154 m 1
 480 -202 l 1
 432 -202 l 1
 384 -202 l 1
 384 -154 l 1
 432 -154 l 1
 480 -154 l 1
384 374 m 1
 336 374 l 1
 288 374 l 1
 240 374 l 1
 240 422 l 1
 288 422 l 1
 336 422 l 1
 384 422 l 1
 384 374 l 1
480 470 m 1
 480 518 l 1
 528 518 l 1
 528 470 l 1
 480 470 l 1
480 662 m 1
 480 614 l 1
 432 614 l 1
 384 614 l 1
 384 662 l 1
 432 662 l 1
 480 662 l 1
672 806 m 1
 720 806 l 1
 768 806 l 1
 816 806 l 1
 864 806 l 1
 912 806 l 1
 960 806 l 1
 1008 806 l 1
 1008 758 l 1
 1008 710 l 1
 1008 662 l 1
 1008 614 l 1
 1008 566 l 1
 1008 518 l 1
 1008 470 l 1
 960 470 l 1
 912 470 l 1
 864 470 l 1
 816 470 l 1
 768 470 l 1
 720 470 l 1
 672 470 l 1
 672 518 l 1
 672 566 l 1
 672 614 l 1
 672 662 l 1
 672 710 l 1
 672 758 l 1
 672 806 l 1
48 758 m 1
 48 710 l 1
 48 662 l 1
 48 614 l 1
 48 566 l 1
 48 518 l 1
 96 518 l 1
 144 518 l 1
 192 518 l 1
 240 518 l 1
 288 518 l 1
 288 566 l 1
 288 614 l 1
 288 662 l 1
 288 710 l 1
 288 758 l 1
 240 758 l 1
 192 758 l 1
 144 758 l 1
 96 758 l 1
 48 758 l 1
720 758 m 1
 720 710 l 1
 720 662 l 1
 720 614 l 1
 720 566 l 1
 720 518 l 1
 768 518 l 1
 816 518 l 1
 864 518 l 1
 912 518 l 1
 960 518 l 1
 960 566 l 1
 960 614 l 1
 960 662 l 1
 960 710 l 1
 960 758 l 1
 912 758 l 1
 864 758 l 1
 816 758 l 1
 768 758 l 1
 720 758 l 1
96 710 m 1
 144 710 l 1
 192 710 l 1
 240 710 l 1
 240 662 l 1
 240 614 l 1
 240 566 l 1
 192 566 l 1
 144 566 l 1
 96 566 l 1
 96 614 l 1
 96 662 l 1
 96 710 l 1
768 710 m 1
 816 710 l 1
 864 710 l 1
 912 710 l 1
 912 662 l 1
 912 614 l 1
 912 566 l 1
 864 566 l 1
 816 566 l 1
 768 566 l 1
 768 614 l 1
 768 662 l 1
 768 710 l 1
0 422 m 1
 48 422 l 1
 48 374 l 1
 0 374 l 1
 0 422 l 1
48 374 m 1
 96 374 l 1
 96 422 l 1
 144 422 l 1
 192 422 l 1
 192 374 l 1
 192 326 l 1
 240 326 l 1
 240 278 l 1
 288 278 l 1
 288 230 l 1
 336 230 l 1
 336 182 l 1
 288 182 l 1
 240 182 l 1
 192 182 l 1
 144 182 l 1
 144 230 l 1
 144 278 l 1
 144 326 l 1
 96 326 l 1
 96 278 l 1
 96 230 l 1
 96 182 l 1
 48 182 l 1
 48 230 l 1
 48 278 l 1
 48 326 l 1
 48 374 l 1
288 278 m 1
 288 326 l 1
 336 326 l 1
 336 278 l 1
 288 278 l 1
912 422 m 1
 960 422 l 1
 1008 422 l 1
 1008 374 l 1
 960 374 l 1
 912 374 l 1
 912 422 l 1
960 326 m 1
 1008 326 l 1
 1008 278 l 1
 960 278 l 1
 960 326 l 1
0 134 m 1
 48 134 l 1
 96 134 l 1
 144 134 l 1
 192 134 l 1
 240 134 l 1
 288 134 l 1
 336 134 l 1
 336 86 l 1
 336 38 l 1
 336 -10 l 1
 336 -58 l 1
 336 -106 l 1
 336 -154 l 1
 336 -202 l 1
 288 -202 l 1
 240 -202 l 1
 192 -202 l 1
 144 -202 l 1
 96 -202 l 1
 48 -202 l 1
 0 -202 l 1
 0 -154 l 1
 0 -106 l 1
 0 -58 l 1
 0 -10 l 1
 0 38 l 1
 0 86 l 1
 0 134 l 1
48 86 m 1
 48 38 l 1
 48 -10 l 1
 48 -58 l 1
 48 -106 l 1
 48 -154 l 1
 96 -154 l 1
 144 -154 l 1
 192 -154 l 1
 240 -154 l 1
 288 -154 l 1
 288 -106 l 1
 288 -58 l 1
 288 -10 l 1
 288 38 l 1
 288 86 l 1
 240 86 l 1
 192 86 l 1
 144 86 l 1
 96 86 l 1
 48 86 l 1
96 38 m 1
 144 38 l 1
 192 38 l 1
 240 38 l 1
 240 -10 l 1
 240 -58 l 1
 240 -106 l 1
 192 -106 l 1
 144 -106 l 1
 96 -106 l 1
 96 -58 l 1
 96 -10 l 1
 96 38 l 1
864 -106 m 1
 912 -106 l 1
 912 -154 l 1
 864 -154 l 1
 864 -106 l 1
960 -106 m 1
 1008 -106 l 1
 1008 -154 l 1
 960 -154 l 1
 960 -106 l 1
EndSplineSet
EndChar

StartChar: b
Encoding: 98 98 1
Width: 1092
VWidth: 1056
Flags: HW
LayerCount: 2
Fore
SplineSet
-0 806 m 1
 48 806 l 1
 96 806 l 1
 144 806 l 1
 192 806 l 1
 240 806 l 1
 288 806 l 1
 336 806 l 1
 336 758 l 1
 336 710 l 1
 336 662 l 1
 336 614 l 1
 336 566 l 1
 336 518 l 1
 336 470 l 1
 288 470 l 1
 240 470 l 1
 192 470 l 1
 144 470 l 1
 96 470 l 1
 48 470 l 1
 -0 470 l 1
 -0 518 l 1
 -0 566 l 1
 -0 614 l 1
 -0 662 l 1
 -0 710 l 1
 -0 758 l 1
 -0 806 l 1
384 806 m 1
 432 806 l 1
 432 758 l 1
 384 758 l 1
 384 806 l 1
480 806 m 1
 528 806 l 1
 528 758 l 1
 480 758 l 1
 480 806 l 1
672 806 m 1
 720 806 l 1
 768 806 l 1
 816 806 l 1
 864 806 l 1
 912 806 l 1
 960 806 l 1
 1008 806 l 1
 1008 758 l 1
 1008 710 l 1
 1008 662 l 1
 1008 614 l 1
 1008 566 l 1
 1008 518 l 1
 1008 470 l 1
 960 470 l 1
 912 470 l 1
 864 470 l 1
 816 470 l 1
 768 470 l 1
 720 470 l 1
 672 470 l 1
 672 518 l 1
 672 566 l 1
 672 614 l 1
 672 662 l 1
 672 710 l 1
 672 758 l 1
 672 806 l 1
48 758 m 1
 48 710 l 1
 48 662 l 1
 48 614 l 1
 48 566 l 1
 48 518 l 1
 96 518 l 1
 144 518 l 1
 192 518 l 1
 240 518 l 1
 288 518 l 1
 288 566 l 1
 288 614 l 1
 288 662 l 1
 288 710 l 1
 288 758 l 1
 240 758 l 1
 192 758 l 1
 144 758 l 1
 96 758 l 1
 48 758 l 1
576 758 m 1
 624 758 l 1
 624 710 l 1
 576 710 l 1
 576 758 l 1
720 758 m 1
 720 710 l 1
 720 662 l 1
 720 614 l 1
 720 566 l 1
 720 518 l 1
 768 518 l 1
 816 518 l 1
 864 518 l 1
 912 518 l 1
 960 518 l 1
 960 566 l 1
 960 614 l 1
 960 662 l 1
 960 710 l 1
 960 758 l 1
 912 758 l 1
 864 758 l 1
 816 758 l 1
 768 758 l 1
 720 758 l 1
96 710 m 1
 144 710 l 1
 192 710 l 1
 240 710 l 1
 240 662 l 1
 240 614 l 1
 240 566 l 1
 192 566 l 1
 144 566 l 1
 96 566 l 1
 96 614 l 1
 96 662 l 1
 96 710 l 1
432 710 m 1
 480 710 l 1
 480 662 l 1
 432 662 l 1
 432 710 l 1
432 662 m 1
 432 614 l 1
 432 566 l 1
 432 518 l 1
 432 470 l 1
 432 422 l 1
 480 422 l 1
 528 422 l 1
 528 470 l 1
 576 470 l 1
 576 518 l 1
 624 518 l 1
 624 470 l 1
 624 422 l 1
 576 422 l 1
 576 374 l 1
 624 374 l 1
 624 326 l 1
 576 326 l 1
 576 278 l 1
 528 278 l 1
 528 326 l 1
 528 374 l 1
 480 374 l 1
 432 374 l 1
 432 326 l 1
 384 326 l 1
 384 374 l 1
 336 374 l 1
 288 374 l 1
 288 422 l 1
 336 422 l 1
 384 422 l 1
 384 470 l 1
 384 518 l 1
 384 566 l 1
 384 614 l 1
 384 662 l 1
 432 662 l 1
528 470 m 1
 480 470 l 1
 480 518 l 1
 480 566 l 1
 528 566 l 1
 576 566 l 1
 576 518 l 1
 528 518 l 1
 528 470 l 1
576 566 m 1
 576 614 l 1
 528 614 l 1
 528 662 l 1
 576 662 l 1
 624 662 l 1
 624 614 l 1
 624 566 l 1
 576 566 l 1
624 422 m 1
 672 422 l 1
 720 422 l 1
 768 422 l 1
 816 422 l 1
 864 422 l 1
 864 374 l 1
 864 326 l 1
 912 326 l 1
 912 278 l 1
 912 230 l 1
 960 230 l 1
 960 278 l 1
 1008 278 l 1
 1008 230 l 1
 1008 182 l 1
 960 182 l 1
 960 134 l 1
 960 86 l 1
 960 38 l 1
 1008 38 l 1
 1008 -10 l 1
 1008 -58 l 1
 960 -58 l 1
 912 -58 l 1
 912 -10 l 1
 864 -10 l 1
 864 -58 l 1
 912 -58 l 1
 912 -106 l 1
 912 -154 l 1
 912 -202 l 1
 864 -202 l 1
 864 -154 l 1
 864 -106 l 1
 816 -106 l 1
 816 -154 l 1
 768 -154 l 1
 768 -106 l 1
 720 -106 l 1
 720 -154 l 1
 720 -202 l 1
 672 -202 l 1
 624 -202 l 1
 576 -202 l 1
 576 -154 l 1
 624 -154 l 1
 624 -106 l 1
 672 -106 l 1
 672 -58 l 1
 720 -58 l 1
 720 -10 l 1
 672 -10 l 1
 672 38 l 1
 720 38 l 1
 720 86 l 1
 768 86 l 1
 768 38 l 1
 816 38 l 1
 816 86 l 1
 864 86 l 1
 864 38 l 1
 912 38 l 1
 912 86 l 1
 912 134 l 1
 864 134 l 1
 864 182 l 1
 864 230 l 1
 864 278 l 1
 816 278 l 1
 816 230 l 1
 768 230 l 1
 768 278 l 1
 720 278 l 1
 720 230 l 1
 720 182 l 1
 720 134 l 1
 672 134 l 1
 672 86 l 1
 624 86 l 1
 624 38 l 1
 576 38 l 1
 576 -10 l 1
 624 -10 l 1
 624 -58 l 1
 576 -58 l 1
 576 -106 l 1
 528 -106 l 1
 528 -58 l 1
 528 -10 l 1
 480 -10 l 1
 432 -10 l 1
 384 -10 l 1
 384 38 l 1
 432 38 l 1
 480 38 l 1
 480 86 l 1
 528 86 l 1
 576 86 l 1
 576 134 l 1
 576 182 l 1
 576 230 l 1
 624 230 l 1
 624 278 l 1
 672 278 l 1
 672 326 l 1
 720 326 l 1
 720 374 l 1
 672 374 l 1
 624 374 l 1
 624 422 l 1
912 326 m 1
 912 374 l 1
 960 374 l 1
 960 422 l 1
 1008 422 l 1
 1008 374 l 1
 1008 326 l 1
 960 326 l 1
 912 326 l 1
528 278 m 1
 528 230 l 1
 528 182 l 1
 480 182 l 1
 480 230 l 1
 432 230 l 1
 384 230 l 1
 384 182 l 1
 336 182 l 1
 288 182 l 1
 288 230 l 1
 336 230 l 1
 336 278 l 1
 288 278 l 1
 240 278 l 1
 240 326 l 1
 288 326 l 1
 336 326 l 1
 384 326 l 1
 384 278 l 1
 432 278 l 1
 480 278 l 1
 528 278 l 1
384 182 m 1
 432 182 l 1
 432 134 l 1
 432 86 l 1
 384 86 l 1
 384 134 l 1
 384 182 l 1
240 278 m 1
 240 230 l 1
 192 230 l 1
 192 278 l 1
 240 278 l 1
240 326 m 1
 192 326 l 1
 192 374 l 1
 192 422 l 1
 240 422 l 1
 240 374 l 1
 240 326 l 1
768 710 m 1
 816 710 l 1
 864 710 l 1
 912 710 l 1
 912 662 l 1
 912 614 l 1
 912 566 l 1
 864 566 l 1
 816 566 l 1
 768 566 l 1
 768 614 l 1
 768 662 l 1
 768 710 l 1
-0 422 m 1
 48 422 l 1
 48 374 l 1
 -0 374 l 1
 -0 422 l 1
96 374 m 1
 144 374 l 1
 144 326 l 1
 96 326 l 1
 96 374 l 1
96 326 m 1
 96 278 l 1
 48 278 l 1
 48 326 l 1
 96 326 l 1
768 374 m 1
 768 326 l 1
 816 326 l 1
 816 374 l 1
 768 374 l 1
48 230 m 1
 96 230 l 1
 144 230 l 1
 144 182 l 1
 96 182 l 1
 48 182 l 1
 48 230 l 1
-0 134 m 1
 48 134 l 1
 96 134 l 1
 144 134 l 1
 192 134 l 1
 240 134 l 1
 288 134 l 1
 336 134 l 1
 336 86 l 1
 336 38 l 1
 336 -10 l 1
 336 -58 l 1
 336 -106 l 1
 336 -154 l 1
 336 -202 l 1
 288 -202 l 1
 240 -202 l 1
 192 -202 l 1
 144 -202 l 1
 96 -202 l 1
 48 -202 l 1
 -0 -202 l 1
 -0 -154 l 1
 -0 -106 l 1
 -0 -58 l 1
 -0 -10 l 1
 -0 38 l 1
 -0 86 l 1
 -0 134 l 1
48 86 m 1
 48 38 l 1
 48 -10 l 1
 48 -58 l 1
 48 -106 l 1
 48 -154 l 1
 96 -154 l 1
 144 -154 l 1
 192 -154 l 1
 240 -154 l 1
 288 -154 l 1
 288 -106 l 1
 288 -58 l 1
 288 -10 l 1
 288 38 l 1
 288 86 l 1
 240 86 l 1
 192 86 l 1
 144 86 l 1
 96 86 l 1
 48 86 l 1
96 38 m 1
 144 38 l 1
 192 38 l 1
 240 38 l 1
 240 -10 l 1
 240 -58 l 1
 240 -106 l 1
 192 -106 l 1
 144 -106 l 1
 96 -106 l 1
 96 -58 l 1
 96 -10 l 1
 96 38 l 1
768 -10 m 1
 768 -58 l 1
 816 -58 l 1
 816 -10 l 1
 768 -10 l 1
432 -58 m 1
 480 -58 l 1
 480 -106 l 1
 432 -106 l 1
 432 -58 l 1
384 -154 m 1
 432 -154 l 1
 480 -154 l 1
 480 -202 l 1
 432 -202 l 1
 384 -202 l 1
 384 -154 l 1
960 -154 m 1
 1008 -154 l 1
 1008 -202 l 1
 960 -202 l 1
 960 -154 l 1
EndSplineSet
EndChar

StartChar: c
Encoding: 99 99 2
Width: 1092
VWidth: 1056
Flags: HW
LayerCount: 2
Fore
SplineSet
-0 806 m 1
 48 806 l 1
 96 806 l 1
 144 806 l 1
 192 806 l 1
 240 806 l 1
 288 806 l 1
 336 806 l 1
 336 758 l 1
 336 710 l 1
 336 662 l 1
 336 614 l 1
 336 566 l 1
 336 518 l 1
 336 470 l 1
 288 470 l 1
 240 470 l 1
 192 470 l 1
 144 470 l 1
 96 470 l 1
 48 470 l 1
 -0 470 l 1
 -0 518 l 1
 -0 566 l 1
 -0 614 l 1
 -0 662 l 1
 -0 710 l 1
 -0 758 l 1
 -0 806 l 1
384 806 m 1
 432 806 l 1
 432 758 l 1
 384 758 l 1
 384 806 l 1
432 758 m 1
 480 758 l 1
 480 710 l 1
 528 710 l 1
 576 710 l 1
 576 662 l 1
 528 662 l 1
 480 662 l 1
 480 614 l 1
 528 614 l 1
 528 566 l 1
 480 566 l 1
 480 518 l 1
 432 518 l 1
 432 470 l 1
 432 422 l 1
 432 374 l 1
 480 374 l 1
 480 326 l 1
 528 326 l 1
 528 374 l 1
 528 422 l 1
 528 470 l 1
 576 470 l 1
 576 518 l 1
 624 518 l 1
 624 470 l 1
 624 422 l 1
 576 422 l 1
 576 374 l 1
 624 374 l 1
 624 326 l 1
 576 326 l 1
 576 278 l 1
 528 278 l 1
 528 230 l 1
 528 182 l 1
 480 182 l 1
 480 230 l 1
 432 230 l 1
 432 278 l 1
 384 278 l 1
 384 326 l 1
 336 326 l 1
 336 374 l 1
 288 374 l 1
 288 422 l 1
 336 422 l 1
 384 422 l 1
 384 470 l 1
 384 518 l 1
 384 566 l 1
 384 614 l 1
 384 662 l 1
 432 662 l 1
 432 710 l 1
 432 758 l 1
480 758 m 1
 480 806 l 1
 528 806 l 1
 576 806 l 1
 576 758 l 1
 528 758 l 1
 480 758 l 1
576 758 m 1
 624 758 l 1
 624 710 l 1
 576 710 l 1
 576 758 l 1
528 566 m 1
 576 566 l 1
 576 518 l 1
 528 518 l 1
 528 566 l 1
576 566 m 1
 576 614 l 1
 624 614 l 1
 624 566 l 1
 576 566 l 1
528 518 m 1
 528 470 l 1
 480 470 l 1
 480 518 l 1
 528 518 l 1
624 422 m 1
 672 422 l 1
 720 422 l 1
 768 422 l 1
 816 422 l 1
 864 422 l 1
 864 374 l 1
 864 326 l 1
 912 326 l 1
 912 278 l 1
 960 278 l 1
 1008 278 l 1
 1008 230 l 1
 1008 182 l 1
 960 182 l 1
 960 134 l 1
 960 86 l 1
 960 38 l 1
 1008 38 l 1
 1008 -10 l 1
 1008 -58 l 1
 960 -58 l 1
 912 -58 l 1
 912 -10 l 1
 864 -10 l 1
 864 -58 l 1
 912 -58 l 1
 912 -106 l 1
 912 -154 l 1
 912 -202 l 1
 864 -202 l 1
 864 -154 l 1
 864 -106 l 1
 816 -106 l 1
 816 -154 l 1
 768 -154 l 1
 768 -106 l 1
 720 -106 l 1
 720 -154 l 1
 720 -202 l 1
 672 -202 l 1
 624 -202 l 1
 576 -202 l 1
 576 -154 l 1
 624 -154 l 1
 624 -106 l 1
 672 -106 l 1
 672 -58 l 1
 720 -58 l 1
 720 -10 l 1
 672 -10 l 1
 672 38 l 1
 720 38 l 1
 720 86 l 1
 768 86 l 1
 768 38 l 1
 816 38 l 1
 816 86 l 1
 864 86 l 1
 864 38 l 1
 912 38 l 1
 912 86 l 1
 912 134 l 1
 864 134 l 1
 864 182 l 1
 864 230 l 1
 864 278 l 1
 816 278 l 1
 816 230 l 1
 768 230 l 1
 768 278 l 1
 720 278 l 1
 720 230 l 1
 720 182 l 1
 720 134 l 1
 672 134 l 1
 672 86 l 1
 624 86 l 1
 624 38 l 1
 576 38 l 1
 576 -10 l 1
 624 -10 l 1
 624 -58 l 1
 576 -58 l 1
 576 -106 l 1
 528 -106 l 1
 528 -58 l 1
 480 -58 l 1
 480 -106 l 1
 432 -106 l 1
 432 -58 l 1
 432 -10 l 1
 480 -10 l 1
 528 -10 l 1
 528 38 l 1
 480 38 l 1
 480 86 l 1
 432 86 l 1
 384 86 l 1
 384 134 l 1
 384 182 l 1
 432 182 l 1
 432 134 l 1
 480 134 l 1
 528 134 l 1
 528 86 l 1
 576 86 l 1
 576 134 l 1
 576 182 l 1
 576 230 l 1
 624 230 l 1
 624 278 l 1
 672 278 l 1
 672 326 l 1
 720 326 l 1
 720 374 l 1
 672 374 l 1
 624 374 l 1
 624 422 l 1
912 326 m 1
 912 374 l 1
 960 374 l 1
 960 422 l 1
 1008 422 l 1
 1008 374 l 1
 1008 326 l 1
 960 326 l 1
 912 326 l 1
528 -106 m 1
 528 -154 l 1
 480 -154 l 1
 480 -106 l 1
 528 -106 l 1
432 -10 m 1
 384 -10 l 1
 384 38 l 1
 432 38 l 1
 432 -10 l 1
336 326 m 1
 336 278 l 1
 288 278 l 1
 288 326 l 1
 336 326 l 1
672 806 m 1
 720 806 l 1
 768 806 l 1
 816 806 l 1
 864 806 l 1
 912 806 l 1
 960 806 l 1
 1008 806 l 1
 1008 758 l 1
 1008 710 l 1
 1008 662 l 1
 1008 614 l 1
 1008 566 l 1
 1008 518 l 1
 1008 470 l 1
 960 470 l 1
 912 470 l 1
 864 470 l 1
 816 470 l 1
 768 470 l 1
 720 470 l 1
 672 470 l 1
 672 518 l 1
 672 566 l 1
 672 614 l 1
 672 662 l 1
 672 710 l 1
 672 758 l 1
 672 806 l 1
48 758 m 1
 48 710 l 1
 48 662 l 1
 48 614 l 1
 48 566 l 1
 48 518 l 1
 96 518 l 1
 144 518 l 1
 192 518 l 1
 240 518 l 1
 288 518 l 1
 288 566 l 1
 288 614 l 1
 288 662 l 1
 288 710 l 1
 288 758 l 1
 240 758 l 1
 192 758 l 1
 144 758 l 1
 96 758 l 1
 48 758 l 1
720 758 m 1
 720 710 l 1
 720 662 l 1
 720 614 l 1
 720 566 l 1
 720 518 l 1
 768 518 l 1
 816 518 l 1
 864 518 l 1
 912 518 l 1
 960 518 l 1
 960 566 l 1
 960 614 l 1
 960 662 l 1
 960 710 l 1
 960 758 l 1
 912 758 l 1
 864 758 l 1
 816 758 l 1
 768 758 l 1
 720 758 l 1
96 710 m 1
 144 710 l 1
 192 710 l 1
 240 710 l 1
 240 662 l 1
 240 614 l 1
 240 566 l 1
 192 566 l 1
 144 566 l 1
 96 566 l 1
 96 614 l 1
 96 662 l 1
 96 710 l 1
768 710 m 1
 816 710 l 1
 864 710 l 1
 912 710 l 1
 912 662 l 1
 912 614 l 1
 912 566 l 1
 864 566 l 1
 816 566 l 1
 768 566 l 1
 768 614 l 1
 768 662 l 1
 768 710 l 1
-0 422 m 1
 48 422 l 1
 48 374 l 1
 -0 374 l 1
 -0 422 l 1
48 374 m 1
 96 374 l 1
 144 374 l 1
 144 326 l 1
 144 278 l 1
 144 230 l 1
 96 230 l 1
 48 230 l 1
 48 278 l 1
 48 326 l 1
 48 374 l 1
192 422 m 1
 240 422 l 1
 240 374 l 1
 240 326 l 1
 192 326 l 1
 192 374 l 1
 192 422 l 1
768 374 m 1
 768 326 l 1
 816 326 l 1
 816 374 l 1
 768 374 l 1
192 278 m 1
 240 278 l 1
 240 230 l 1
 240 182 l 1
 192 182 l 1
 192 230 l 1
 192 278 l 1
288 230 m 1
 336 230 l 1
 336 182 l 1
 288 182 l 1
 288 230 l 1
-0 134 m 1
 48 134 l 1
 96 134 l 1
 144 134 l 1
 192 134 l 1
 240 134 l 1
 288 134 l 1
 336 134 l 1
 336 86 l 1
 336 38 l 1
 336 -10 l 1
 336 -58 l 1
 336 -106 l 1
 336 -154 l 1
 336 -202 l 1
 288 -202 l 1
 240 -202 l 1
 192 -202 l 1
 144 -202 l 1
 96 -202 l 1
 48 -202 l 1
 -0 -202 l 1
 -0 -154 l 1
 -0 -106 l 1
 -0 -58 l 1
 -0 -10 l 1
 -0 38 l 1
 -0 86 l 1
 -0 134 l 1
48 86 m 1
 48 38 l 1
 48 -10 l 1
 48 -58 l 1
 48 -106 l 1
 48 -154 l 1
 96 -154 l 1
 144 -154 l 1
 192 -154 l 1
 240 -154 l 1
 288 -154 l 1
 288 -106 l 1
 288 -58 l 1
 288 -10 l 1
 288 38 l 1
 288 86 l 1
 240 86 l 1
 192 86 l 1
 144 86 l 1
 96 86 l 1
 48 86 l 1
96 38 m 1
 144 38 l 1
 192 38 l 1
 240 38 l 1
 240 -10 l 1
 240 -58 l 1
 240 -106 l 1
 192 -106 l 1
 144 -106 l 1
 96 -106 l 1
 96 -58 l 1
 96 -10 l 1
 96 38 l 1
768 -10 m 1
 768 -58 l 1
 816 -58 l 1
 816 -10 l 1
 768 -10 l 1
384 -154 m 1
 432 -154 l 1
 432 -202 l 1
 384 -202 l 1
 384 -154 l 1
960 -154 m 1
 1008 -154 l 1
 1008 -202 l 1
 960 -202 l 1
 960 -154 l 1
EndSplineSet
EndChar

StartChar: d
Encoding: 100 100 3
Width: 1092
VWidth: 1056
Flags: HW
LayerCount: 2
Fore
SplineSet
0 806 m 1
 48 806 l 1
 96 806 l 1
 144 806 l 1
 192 806 l 1
 240 806 l 1
 288 806 l 1
 336 806 l 1
 336 758 l 1
 336 710 l 1
 336 662 l 1
 336 614 l 1
 336 566 l 1
 336 518 l 1
 336 470 l 1
 288 470 l 1
 240 470 l 1
 192 470 l 1
 144 470 l 1
 96 470 l 1
 48 470 l 1
 0 470 l 1
 0 518 l 1
 0 566 l 1
 0 614 l 1
 0 662 l 1
 0 710 l 1
 0 758 l 1
 0 806 l 1
384 806 m 1
 432 806 l 1
 480 806 l 1
 528 806 l 1
 528 758 l 1
 480 758 l 1
 480 710 l 1
 432 710 l 1
 432 758 l 1
 384 758 l 1
 384 806 l 1
528 758 m 1
 576 758 l 1
 576 710 l 1
 576 662 l 1
 528 662 l 1
 528 710 l 1
 528 758 l 1
528 662 m 1
 528 614 l 1
 480 614 l 1
 480 662 l 1
 528 662 l 1
672 806 m 1
 720 806 l 1
 768 806 l 1
 816 806 l 1
 864 806 l 1
 912 806 l 1
 960 806 l 1
 1008 806 l 1
 1008 758 l 1
 1008 710 l 1
 1008 662 l 1
 1008 614 l 1
 1008 566 l 1
 1008 518 l 1
 1008 470 l 1
 960 470 l 1
 912 470 l 1
 864 470 l 1
 816 470 l 1
 768 470 l 1
 720 470 l 1
 672 470 l 1
 672 518 l 1
 672 566 l 1
 672 614 l 1
 672 662 l 1
 672 710 l 1
 672 758 l 1
 672 806 l 1
48 758 m 1
 48 710 l 1
 48 662 l 1
 48 614 l 1
 48 566 l 1
 48 518 l 1
 96 518 l 1
 144 518 l 1
 192 518 l 1
 240 518 l 1
 288 518 l 1
 288 566 l 1
 288 614 l 1
 288 662 l 1
 288 710 l 1
 288 758 l 1
 240 758 l 1
 192 758 l 1
 144 758 l 1
 96 758 l 1
 48 758 l 1
720 758 m 1
 720 710 l 1
 720 662 l 1
 720 614 l 1
 720 566 l 1
 720 518 l 1
 768 518 l 1
 816 518 l 1
 864 518 l 1
 912 518 l 1
 960 518 l 1
 960 566 l 1
 960 614 l 1
 960 662 l 1
 960 710 l 1
 960 758 l 1
 912 758 l 1
 864 758 l 1
 816 758 l 1
 768 758 l 1
 720 758 l 1
96 710 m 1
 144 710 l 1
 192 710 l 1
 240 710 l 1
 240 662 l 1
 240 614 l 1
 240 566 l 1
 192 566 l 1
 144 566 l 1
 96 566 l 1
 96 614 l 1
 96 662 l 1
 96 710 l 1
768 710 m 1
 816 710 l 1
 864 710 l 1
 912 710 l 1
 912 662 l 1
 912 614 l 1
 912 566 l 1
 864 566 l 1
 816 566 l 1
 768 566 l 1
 768 614 l 1
 768 662 l 1
 768 710 l 1
384 662 m 1
 432 662 l 1
 432 614 l 1
 432 566 l 1
 480 566 l 1
 528 566 l 1
 576 566 l 1
 576 518 l 1
 528 518 l 1
 528 470 l 1
 480 470 l 1
 480 518 l 1
 432 518 l 1
 432 470 l 1
 432 422 l 1
 480 422 l 1
 528 422 l 1
 528 470 l 1
 576 470 l 1
 576 518 l 1
 624 518 l 1
 624 470 l 1
 624 422 l 1
 576 422 l 1
 576 374 l 1
 624 374 l 1
 624 326 l 1
 576 326 l 1
 576 278 l 1
 528 278 l 1
 480 278 l 1
 432 278 l 1
 432 326 l 1
 480 326 l 1
 528 326 l 1
 528 374 l 1
 480 374 l 1
 432 374 l 1
 384 374 l 1
 384 326 l 1
 384 278 l 1
 336 278 l 1
 288 278 l 1
 240 278 l 1
 240 326 l 1
 240 374 l 1
 288 374 l 1
 288 326 l 1
 336 326 l 1
 336 374 l 1
 288 374 l 1
 288 422 l 1
 336 422 l 1
 384 422 l 1
 384 470 l 1
 384 518 l 1
 384 566 l 1
 384 614 l 1
 384 662 l 1
576 566 m 1
 576 614 l 1
 624 614 l 1
 624 566 l 1
 576 566 l 1
624 422 m 1
 672 422 l 1
 720 422 l 1
 768 422 l 1
 816 422 l 1
 864 422 l 1
 864 374 l 1
 864 326 l 1
 912 326 l 1
 912 278 l 1
 912 230 l 1
 912 182 l 1
 960 182 l 1
 960 134 l 1
 960 86 l 1
 960 38 l 1
 1008 38 l 1
 1008 -10 l 1
 1008 -58 l 1
 960 -58 l 1
 912 -58 l 1
 912 -10 l 1
 864 -10 l 1
 864 -58 l 1
 912 -58 l 1
 912 -106 l 1
 912 -154 l 1
 912 -202 l 1
 864 -202 l 1
 864 -154 l 1
 864 -106 l 1
 816 -106 l 1
 816 -154 l 1
 768 -154 l 1
 768 -106 l 1
 720 -106 l 1
 720 -154 l 1
 720 -202 l 1
 672 -202 l 1
 624 -202 l 1
 576 -202 l 1
 576 -154 l 1
 624 -154 l 1
 624 -106 l 1
 672 -106 l 1
 672 -58 l 1
 720 -58 l 1
 720 -10 l 1
 672 -10 l 1
 672 38 l 1
 720 38 l 1
 720 86 l 1
 768 86 l 1
 768 38 l 1
 816 38 l 1
 816 86 l 1
 864 86 l 1
 864 38 l 1
 912 38 l 1
 912 86 l 1
 912 134 l 1
 864 134 l 1
 864 182 l 1
 864 230 l 1
 864 278 l 1
 816 278 l 1
 816 230 l 1
 768 230 l 1
 768 278 l 1
 720 278 l 1
 720 230 l 1
 720 182 l 1
 720 134 l 1
 672 134 l 1
 672 86 l 1
 624 86 l 1
 624 38 l 1
 576 38 l 1
 576 -10 l 1
 624 -10 l 1
 624 -58 l 1
 576 -58 l 1
 576 -106 l 1
 528 -106 l 1
 528 -58 l 1
 480 -58 l 1
 480 -10 l 1
 528 -10 l 1
 528 38 l 1
 528 86 l 1
 576 86 l 1
 576 134 l 1
 576 182 l 1
 576 230 l 1
 624 230 l 1
 624 278 l 1
 672 278 l 1
 672 326 l 1
 720 326 l 1
 720 374 l 1
 672 374 l 1
 624 374 l 1
 624 422 l 1
912 326 m 1
 912 374 l 1
 960 374 l 1
 960 422 l 1
 1008 422 l 1
 1008 374 l 1
 1008 326 l 1
 960 326 l 1
 912 326 l 1
960 182 m 1
 960 230 l 1
 1008 230 l 1
 1008 182 l 1
 960 182 l 1
528 -106 m 1
 528 -154 l 1
 480 -154 l 1
 480 -202 l 1
 432 -202 l 1
 384 -202 l 1
 384 -154 l 1
 432 -154 l 1
 432 -106 l 1
 432 -58 l 1
 480 -58 l 1
 480 -106 l 1
 528 -106 l 1
480 -10 m 1
 432 -10 l 1
 384 -10 l 1
 384 38 l 1
 432 38 l 1
 480 38 l 1
 480 -10 l 1
528 86 m 1
 480 86 l 1
 480 134 l 1
 480 182 l 1
 432 182 l 1
 432 230 l 1
 480 230 l 1
 528 230 l 1
 528 182 l 1
 528 134 l 1
 528 86 l 1
432 182 m 1
 432 134 l 1
 432 86 l 1
 384 86 l 1
 384 134 l 1
 384 182 l 1
 432 182 l 1
384 182 m 1
 336 182 l 1
 288 182 l 1
 240 182 l 1
 240 230 l 1
 288 230 l 1
 336 230 l 1
 384 230 l 1
 384 182 l 1
384 230 m 1
 384 278 l 1
 432 278 l 1
 432 230 l 1
 384 230 l 1
240 374 m 1
 192 374 l 1
 192 422 l 1
 240 422 l 1
 240 374 l 1
192 374 m 1
 192 326 l 1
 144 326 l 1
 96 326 l 1
 96 278 l 1
 48 278 l 1
 48 326 l 1
 48 374 l 1
 96 374 l 1
 144 374 l 1
 192 374 l 1
48 374 m 1
 0 374 l 1
 0 422 l 1
 48 422 l 1
 48 374 l 1
768 374 m 1
 768 326 l 1
 816 326 l 1
 816 374 l 1
 768 374 l 1
48 230 m 1
 96 230 l 1
 96 182 l 1
 48 182 l 1
 48 230 l 1
0 134 m 1
 48 134 l 1
 96 134 l 1
 144 134 l 1
 192 134 l 1
 240 134 l 1
 288 134 l 1
 336 134 l 1
 336 86 l 1
 336 38 l 1
 336 -10 l 1
 336 -58 l 1
 336 -106 l 1
 336 -154 l 1
 336 -202 l 1
 288 -202 l 1
 240 -202 l 1
 192 -202 l 1
 144 -202 l 1
 96 -202 l 1
 48 -202 l 1
 0 -202 l 1
 0 -154 l 1
 0 -106 l 1
 0 -58 l 1
 0 -10 l 1
 0 38 l 1
 0 86 l 1
 0 134 l 1
48 86 m 1
 48 38 l 1
 48 -10 l 1
 48 -58 l 1
 48 -106 l 1
 48 -154 l 1
 96 -154 l 1
 144 -154 l 1
 192 -154 l 1
 240 -154 l 1
 288 -154 l 1
 288 -106 l 1
 288 -58 l 1
 288 -10 l 1
 288 38 l 1
 288 86 l 1
 240 86 l 1
 192 86 l 1
 144 86 l 1
 96 86 l 1
 48 86 l 1
96 38 m 1
 144 38 l 1
 192 38 l 1
 240 38 l 1
 240 -10 l 1
 240 -58 l 1
 240 -106 l 1
 192 -106 l 1
 144 -106 l 1
 96 -106 l 1
 96 -58 l 1
 96 -10 l 1
 96 38 l 1
768 -10 m 1
 768 -58 l 1
 816 -58 l 1
 816 -10 l 1
 768 -10 l 1
960 -154 m 1
 1008 -154 l 1
 1008 -202 l 1
 960 -202 l 1
 960 -154 l 1
EndSplineSet
EndChar

StartChar: e
Encoding: 101 101 4
Width: 1092
VWidth: 1056
Flags: HW
LayerCount: 2
Fore
SplineSet
0 806 m 1
 48 806 l 1
 96 806 l 1
 144 806 l 1
 192 806 l 1
 240 806 l 1
 288 806 l 1
 336 806 l 1
 336 758 l 1
 336 710 l 1
 336 662 l 1
 336 614 l 1
 336 566 l 1
 336 518 l 1
 336 470 l 1
 288 470 l 1
 240 470 l 1
 192 470 l 1
 144 470 l 1
 96 470 l 1
 48 470 l 1
 0 470 l 1
 0 518 l 1
 0 566 l 1
 0 614 l 1
 0 662 l 1
 0 710 l 1
 0 758 l 1
 0 806 l 1
384 806 m 1
 432 806 l 1
 432 758 l 1
 432 710 l 1
 384 710 l 1
 384 758 l 1
 384 806 l 1
432 710 m 1
 480 710 l 1
 528 710 l 1
 576 710 l 1
 576 662 l 1
 528 662 l 1
 480 662 l 1
 480 614 l 1
 528 614 l 1
 576 614 l 1
 576 566 l 1
 624 566 l 1
 624 518 l 1
 624 470 l 1
 624 422 l 1
 624 374 l 1
 672 374 l 1
 672 422 l 1
 720 422 l 1
 720 374 l 1
 720 326 l 1
 672 326 l 1
 624 326 l 1
 576 326 l 1
 576 278 l 1
 576 230 l 1
 528 230 l 1
 528 278 l 1
 480 278 l 1
 480 230 l 1
 432 230 l 1
 432 278 l 1
 432 326 l 1
 480 326 l 1
 528 326 l 1
 528 374 l 1
 480 374 l 1
 480 422 l 1
 432 422 l 1
 384 422 l 1
 384 470 l 1
 384 518 l 1
 432 518 l 1
 432 470 l 1
 480 470 l 1
 480 518 l 1
 480 566 l 1
 432 566 l 1
 432 614 l 1
 384 614 l 1
 384 662 l 1
 432 662 l 1
 432 710 l 1
576 710 m 1
 576 758 l 1
 624 758 l 1
 624 710 l 1
 576 710 l 1
576 758 m 1
 528 758 l 1
 480 758 l 1
 480 806 l 1
 528 806 l 1
 576 806 l 1
 576 758 l 1
576 230 m 1
 624 230 l 1
 624 182 l 1
 576 182 l 1
 576 230 l 1
576 182 m 1
 576 134 l 1
 624 134 l 1
 624 86 l 1
 576 86 l 1
 528 86 l 1
 528 134 l 1
 480 134 l 1
 480 182 l 1
 480 230 l 1
 528 230 l 1
 528 182 l 1
 576 182 l 1
528 86 m 1
 528 38 l 1
 528 -10 l 1
 576 -10 l 1
 576 -58 l 1
 528 -58 l 1
 528 -106 l 1
 528 -154 l 1
 528 -202 l 1
 480 -202 l 1
 480 -154 l 1
 480 -106 l 1
 432 -106 l 1
 384 -106 l 1
 384 -58 l 1
 384 -10 l 1
 432 -10 l 1
 480 -10 l 1
 480 38 l 1
 480 86 l 1
 528 86 l 1
576 -10 m 1
 576 38 l 1
 624 38 l 1
 672 38 l 1
 720 38 l 1
 720 86 l 1
 720 134 l 1
 768 134 l 1
 768 86 l 1
 816 86 l 1
 816 38 l 1
 816 -10 l 1
 864 -10 l 1
 912 -10 l 1
 960 -10 l 1
 960 -58 l 1
 912 -58 l 1
 864 -58 l 1
 816 -58 l 1
 768 -58 l 1
 768 -106 l 1
 768 -154 l 1
 720 -154 l 1
 720 -106 l 1
 672 -106 l 1
 672 -58 l 1
 672 -10 l 1
 624 -10 l 1
 576 -10 l 1
720 134 m 1
 672 134 l 1
 672 182 l 1
 720 182 l 1
 720 134 l 1
720 182 m 1
 720 230 l 1
 672 230 l 1
 672 278 l 1
 720 278 l 1
 768 278 l 1
 816 278 l 1
 816 326 l 1
 816 374 l 1
 816 422 l 1
 864 422 l 1
 864 374 l 1
 864 326 l 1
 912 326 l 1
 912 278 l 1
 912 230 l 1
 960 230 l 1
 960 182 l 1
 912 182 l 1
 864 182 l 1
 864 230 l 1
 816 230 l 1
 768 230 l 1
 768 182 l 1
 720 182 l 1
864 182 m 1
 864 134 l 1
 864 86 l 1
 816 86 l 1
 816 134 l 1
 816 182 l 1
 864 182 l 1
864 86 m 1
 912 86 l 1
 960 86 l 1
 960 38 l 1
 912 38 l 1
 864 38 l 1
 864 86 l 1
960 38 m 1
 1008 38 l 1
 1008 -10 l 1
 960 -10 l 1
 960 38 l 1
768 -154 m 1
 816 -154 l 1
 816 -202 l 1
 768 -202 l 1
 768 -154 l 1
672 -106 m 1
 672 -154 l 1
 672 -202 l 1
 624 -202 l 1
 624 -154 l 1
 624 -106 l 1
 672 -106 l 1
624 -106 m 1
 576 -106 l 1
 576 -58 l 1
 624 -58 l 1
 624 -106 l 1
432 230 m 1
 432 182 l 1
 432 134 l 1
 432 86 l 1
 432 38 l 1
 384 38 l 1
 384 86 l 1
 384 134 l 1
 384 182 l 1
 336 182 l 1
 288 182 l 1
 240 182 l 1
 192 182 l 1
 144 182 l 1
 144 230 l 1
 96 230 l 1
 96 278 l 1
 144 278 l 1
 144 326 l 1
 192 326 l 1
 240 326 l 1
 240 278 l 1
 192 278 l 1
 192 230 l 1
 240 230 l 1
 240 278 l 1
 288 278 l 1
 288 230 l 1
 336 230 l 1
 384 230 l 1
 432 230 l 1
96 230 m 1
 96 182 l 1
 48 182 l 1
 48 230 l 1
 96 230 l 1
96 278 m 1
 48 278 l 1
 48 326 l 1
 48 374 l 1
 96 374 l 1
 96 326 l 1
 96 278 l 1
48 374 m 1
 0 374 l 1
 0 422 l 1
 48 422 l 1
 48 374 l 1
96 374 m 1
 96 422 l 1
 144 422 l 1
 192 422 l 1
 192 374 l 1
 144 374 l 1
 96 374 l 1
240 326 m 1
 240 374 l 1
 240 422 l 1
 288 422 l 1
 336 422 l 1
 384 422 l 1
 384 374 l 1
 432 374 l 1
 432 326 l 1
 384 326 l 1
 336 326 l 1
 336 374 l 1
 288 374 l 1
 288 326 l 1
 240 326 l 1
336 326 m 1
 336 278 l 1
 288 278 l 1
 288 326 l 1
 336 326 l 1
672 806 m 1
 720 806 l 1
 768 806 l 1
 816 806 l 1
 864 806 l 1
 912 806 l 1
 960 806 l 1
 1008 806 l 1
 1008 758 l 1
 1008 710 l 1
 1008 662 l 1
 1008 614 l 1
 1008 566 l 1
 1008 518 l 1
 1008 470 l 1
 960 470 l 1
 912 470 l 1
 864 470 l 1
 816 470 l 1
 768 470 l 1
 720 470 l 1
 672 470 l 1
 672 518 l 1
 672 566 l 1
 672 614 l 1
 672 662 l 1
 672 710 l 1
 672 758 l 1
 672 806 l 1
48 758 m 1
 48 710 l 1
 48 662 l 1
 48 614 l 1
 48 566 l 1
 48 518 l 1
 96 518 l 1
 144 518 l 1
 192 518 l 1
 240 518 l 1
 288 518 l 1
 288 566 l 1
 288 614 l 1
 288 662 l 1
 288 710 l 1
 288 758 l 1
 240 758 l 1
 192 758 l 1
 144 758 l 1
 96 758 l 1
 48 758 l 1
720 758 m 1
 720 710 l 1
 720 662 l 1
 720 614 l 1
 720 566 l 1
 720 518 l 1
 768 518 l 1
 816 518 l 1
 864 518 l 1
 912 518 l 1
 960 518 l 1
 960 566 l 1
 960 614 l 1
 960 662 l 1
 960 710 l 1
 960 758 l 1
 912 758 l 1
 864 758 l 1
 816 758 l 1
 768 758 l 1
 720 758 l 1
96 710 m 1
 144 710 l 1
 192 710 l 1
 240 710 l 1
 240 662 l 1
 240 614 l 1
 240 566 l 1
 192 566 l 1
 144 566 l 1
 96 566 l 1
 96 614 l 1
 96 662 l 1
 96 710 l 1
768 710 m 1
 816 710 l 1
 864 710 l 1
 912 710 l 1
 912 662 l 1
 912 614 l 1
 912 566 l 1
 864 566 l 1
 816 566 l 1
 768 566 l 1
 768 614 l 1
 768 662 l 1
 768 710 l 1
528 518 m 1
 528 470 l 1
 576 470 l 1
 576 518 l 1
 528 518 l 1
912 422 m 1
 960 422 l 1
 1008 422 l 1
 1008 374 l 1
 960 374 l 1
 912 374 l 1
 912 422 l 1
960 326 m 1
 1008 326 l 1
 1008 278 l 1
 960 278 l 1
 960 326 l 1
0 134 m 1
 48 134 l 1
 96 134 l 1
 144 134 l 1
 192 134 l 1
 240 134 l 1
 288 134 l 1
 336 134 l 1
 336 86 l 1
 336 38 l 1
 336 -10 l 1
 336 -58 l 1
 336 -106 l 1
 336 -154 l 1
 336 -202 l 1
 288 -202 l 1
 240 -202 l 1
 192 -202 l 1
 144 -202 l 1
 96 -202 l 1
 48 -202 l 1
 0 -202 l 1
 0 -154 l 1
 0 -106 l 1
 0 -58 l 1
 0 -10 l 1
 0 38 l 1
 0 86 l 1
 0 134 l 1
48 86 m 1
 48 38 l 1
 48 -10 l 1
 48 -58 l 1
 48 -106 l 1
 48 -154 l 1
 96 -154 l 1
 144 -154 l 1
 192 -154 l 1
 240 -154 l 1
 288 -154 l 1
 288 -106 l 1
 288 -58 l 1
 288 -10 l 1
 288 38 l 1
 288 86 l 1
 240 86 l 1
 192 86 l 1
 144 86 l 1
 96 86 l 1
 48 86 l 1
96 38 m 1
 144 38 l 1
 192 38 l 1
 240 38 l 1
 240 -10 l 1
 240 -58 l 1
 240 -106 l 1
 192 -106 l 1
 144 -106 l 1
 96 -106 l 1
 96 -58 l 1
 96 -10 l 1
 96 38 l 1
864 -106 m 1
 912 -106 l 1
 912 -154 l 1
 864 -154 l 1
 864 -106 l 1
960 -106 m 1
 1008 -106 l 1
 1008 -154 l 1
 960 -154 l 1
 960 -106 l 1
384 -154 m 1
 432 -154 l 1
 432 -202 l 1
 384 -202 l 1
 384 -154 l 1
EndSplineSet
EndChar

StartChar: f
Encoding: 102 102 5
Width: 1092
VWidth: 1056
Flags: HW
LayerCount: 2
Fore
SplineSet
0 806 m 1
 48 806 l 1
 96 806 l 1
 144 806 l 1
 192 806 l 1
 240 806 l 1
 288 806 l 1
 336 806 l 1
 336 758 l 1
 336 710 l 1
 336 662 l 1
 336 614 l 1
 336 566 l 1
 336 518 l 1
 336 470 l 1
 288 470 l 1
 240 470 l 1
 192 470 l 1
 144 470 l 1
 96 470 l 1
 48 470 l 1
 0 470 l 1
 0 518 l 1
 0 566 l 1
 0 614 l 1
 0 662 l 1
 0 710 l 1
 0 758 l 1
 0 806 l 1
480 806 m 1
 528 806 l 1
 576 806 l 1
 624 806 l 1
 624 758 l 1
 624 710 l 1
 576 710 l 1
 576 758 l 1
 528 758 l 1
 528 710 l 1
 576 710 l 1
 576 662 l 1
 576 614 l 1
 528 614 l 1
 528 566 l 1
 480 566 l 1
 480 614 l 1
 480 662 l 1
 480 710 l 1
 432 710 l 1
 432 758 l 1
 480 758 l 1
 480 806 l 1
576 614 m 1
 624 614 l 1
 624 566 l 1
 576 566 l 1
 576 614 l 1
576 566 m 1
 576 518 l 1
 528 518 l 1
 528 566 l 1
 576 566 l 1
576 518 m 1
 624 518 l 1
 624 470 l 1
 576 470 l 1
 576 518 l 1
528 518 m 1
 528 470 l 1
 480 470 l 1
 480 518 l 1
 528 518 l 1
480 518 m 1
 432 518 l 1
 432 470 l 1
 432 422 l 1
 384 422 l 1
 384 470 l 1
 384 518 l 1
 384 566 l 1
 384 614 l 1
 384 662 l 1
 384 710 l 1
 432 710 l 1
 432 662 l 1
 432 614 l 1
 432 566 l 1
 480 566 l 1
 480 518 l 1
432 422 m 1
 480 422 l 1
 480 374 l 1
 432 374 l 1
 432 422 l 1
480 374 m 1
 528 374 l 1
 528 422 l 1
 576 422 l 1
 576 374 l 1
 624 374 l 1
 672 374 l 1
 672 422 l 1
 720 422 l 1
 768 422 l 1
 816 422 l 1
 864 422 l 1
 912 422 l 1
 912 374 l 1
 864 374 l 1
 864 326 l 1
 816 326 l 1
 816 374 l 1
 768 374 l 1
 720 374 l 1
 720 326 l 1
 768 326 l 1
 768 278 l 1
 720 278 l 1
 720 230 l 1
 672 230 l 1
 624 230 l 1
 624 182 l 1
 624 134 l 1
 576 134 l 1
 576 182 l 1
 576 230 l 1
 528 230 l 1
 528 182 l 1
 528 134 l 1
 576 134 l 1
 576 86 l 1
 528 86 l 1
 528 38 l 1
 576 38 l 1
 576 -10 l 1
 624 -10 l 1
 624 38 l 1
 672 38 l 1
 672 -10 l 1
 720 -10 l 1
 720 -58 l 1
 768 -58 l 1
 768 -106 l 1
 720 -106 l 1
 720 -154 l 1
 672 -154 l 1
 624 -154 l 1
 624 -202 l 1
 576 -202 l 1
 576 -154 l 1
 528 -154 l 1
 528 -202 l 1
 480 -202 l 1
 432 -202 l 1
 384 -202 l 1
 384 -154 l 1
 432 -154 l 1
 480 -154 l 1
 480 -106 l 1
 432 -106 l 1
 384 -106 l 1
 384 -58 l 1
 384 -10 l 1
 384 38 l 1
 384 86 l 1
 432 86 l 1
 480 86 l 1
 480 134 l 1
 480 182 l 1
 480 230 l 1
 480 278 l 1
 432 278 l 1
 384 278 l 1
 384 230 l 1
 384 182 l 1
 336 182 l 1
 288 182 l 1
 288 230 l 1
 336 230 l 1
 336 278 l 1
 288 278 l 1
 288 326 l 1
 336 326 l 1
 384 326 l 1
 432 326 l 1
 480 326 l 1
 480 374 l 1
720 230 m 1
 768 230 l 1
 768 182 l 1
 768 134 l 1
 720 134 l 1
 720 182 l 1
 720 230 l 1
768 134 m 1
 816 134 l 1
 864 134 l 1
 864 182 l 1
 864 230 l 1
 912 230 l 1
 960 230 l 1
 960 182 l 1
 912 182 l 1
 912 134 l 1
 960 134 l 1
 960 86 l 1
 960 38 l 1
 912 38 l 1
 912 -10 l 1
 864 -10 l 1
 864 -58 l 1
 816 -58 l 1
 816 -10 l 1
 768 -10 l 1
 768 38 l 1
 720 38 l 1
 720 86 l 1
 768 86 l 1
 768 134 l 1
864 230 m 1
 816 230 l 1
 816 278 l 1
 864 278 l 1
 864 230 l 1
960 230 m 1
 960 278 l 1
 1008 278 l 1
 1008 230 l 1
 960 230 l 1
960 182 m 1
 1008 182 l 1
 1008 134 l 1
 960 134 l 1
 960 182 l 1
624 134 m 1
 672 134 l 1
 672 86 l 1
 624 86 l 1
 624 134 l 1
720 -154 m 1
 768 -154 l 1
 768 -202 l 1
 720 -202 l 1
 720 -154 l 1
384 182 m 1
 432 182 l 1
 432 134 l 1
 384 134 l 1
 384 182 l 1
288 230 m 1
 240 230 l 1
 192 230 l 1
 192 278 l 1
 192 326 l 1
 192 374 l 1
 144 374 l 1
 144 326 l 1
 96 326 l 1
 96 278 l 1
 144 278 l 1
 144 230 l 1
 96 230 l 1
 48 230 l 1
 48 278 l 1
 48 326 l 1
 48 374 l 1
 96 374 l 1
 96 422 l 1
 144 422 l 1
 192 422 l 1
 240 422 l 1
 288 422 l 1
 336 422 l 1
 336 374 l 1
 288 374 l 1
 288 326 l 1
 240 326 l 1
 240 278 l 1
 288 278 l 1
 288 230 l 1
192 230 m 1
 192 182 l 1
 144 182 l 1
 144 230 l 1
 192 230 l 1
48 374 m 1
 0 374 l 1
 0 422 l 1
 48 422 l 1
 48 374 l 1
672 806 m 1
 720 806 l 1
 768 806 l 1
 816 806 l 1
 864 806 l 1
 912 806 l 1
 960 806 l 1
 1008 806 l 1
 1008 758 l 1
 1008 710 l 1
 1008 662 l 1
 1008 614 l 1
 1008 566 l 1
 1008 518 l 1
 1008 470 l 1
 960 470 l 1
 912 470 l 1
 864 470 l 1
 816 470 l 1
 768 470 l 1
 720 470 l 1
 672 470 l 1
 672 518 l 1
 672 566 l 1
 672 614 l 1
 672 662 l 1
 672 710 l 1
 672 758 l 1
 672 806 l 1
48 758 m 1
 48 710 l 1
 48 662 l 1
 48 614 l 1
 48 566 l 1
 48 518 l 1
 96 518 l 1
 144 518 l 1
 192 518 l 1
 240 518 l 1
 288 518 l 1
 288 566 l 1
 288 614 l 1
 288 662 l 1
 288 710 l 1
 288 758 l 1
 240 758 l 1
 192 758 l 1
 144 758 l 1
 96 758 l 1
 48 758 l 1
720 758 m 1
 720 710 l 1
 720 662 l 1
 720 614 l 1
 720 566 l 1
 720 518 l 1
 768 518 l 1
 816 518 l 1
 864 518 l 1
 912 518 l 1
 960 518 l 1
 960 566 l 1
 960 614 l 1
 960 662 l 1
 960 710 l 1
 960 758 l 1
 912 758 l 1
 864 758 l 1
 816 758 l 1
 768 758 l 1
 720 758 l 1
96 710 m 1
 144 710 l 1
 192 710 l 1
 240 710 l 1
 240 662 l 1
 240 614 l 1
 240 566 l 1
 192 566 l 1
 144 566 l 1
 96 566 l 1
 96 614 l 1
 96 662 l 1
 96 710 l 1
768 710 m 1
 816 710 l 1
 864 710 l 1
 912 710 l 1
 912 662 l 1
 912 614 l 1
 912 566 l 1
 864 566 l 1
 816 566 l 1
 768 566 l 1
 768 614 l 1
 768 662 l 1
 768 710 l 1
528 326 m 1
 528 278 l 1
 576 278 l 1
 576 326 l 1
 528 326 l 1
624 326 m 1
 624 278 l 1
 672 278 l 1
 672 326 l 1
 624 326 l 1
0 134 m 1
 48 134 l 1
 96 134 l 1
 144 134 l 1
 192 134 l 1
 240 134 l 1
 288 134 l 1
 336 134 l 1
 336 86 l 1
 336 38 l 1
 336 -10 l 1
 336 -58 l 1
 336 -106 l 1
 336 -154 l 1
 336 -202 l 1
 288 -202 l 1
 240 -202 l 1
 192 -202 l 1
 144 -202 l 1
 96 -202 l 1
 48 -202 l 1
 0 -202 l 1
 0 -154 l 1
 0 -106 l 1
 0 -58 l 1
 0 -10 l 1
 0 38 l 1
 0 86 l 1
 0 134 l 1
48 86 m 1
 48 38 l 1
 48 -10 l 1
 48 -58 l 1
 48 -106 l 1
 48 -154 l 1
 96 -154 l 1
 144 -154 l 1
 192 -154 l 1
 240 -154 l 1
 288 -154 l 1
 288 -106 l 1
 288 -58 l 1
 288 -10 l 1
 288 38 l 1
 288 86 l 1
 240 86 l 1
 192 86 l 1
 144 86 l 1
 96 86 l 1
 48 86 l 1
816 86 m 1
 816 38 l 1
 864 38 l 1
 864 86 l 1
 816 86 l 1
96 38 m 1
 144 38 l 1
 192 38 l 1
 240 38 l 1
 240 -10 l 1
 240 -58 l 1
 240 -106 l 1
 192 -106 l 1
 144 -106 l 1
 96 -106 l 1
 96 -58 l 1
 96 -10 l 1
 96 38 l 1
432 38 m 1
 432 -10 l 1
 480 -10 l 1
 480 -58 l 1
 528 -58 l 1
 528 -106 l 1
 576 -106 l 1
 576 -58 l 1
 528 -58 l 1
 528 -10 l 1
 480 -10 l 1
 480 38 l 1
 432 38 l 1
624 -58 m 1
 624 -106 l 1
 672 -106 l 1
 672 -58 l 1
 624 -58 l 1
816 -106 m 1
 864 -106 l 1
 864 -154 l 1
 816 -154 l 1
 816 -106 l 1
864 -154 m 1
 912 -154 l 1
 960 -154 l 1
 960 -202 l 1
 912 -202 l 1
 864 -202 l 1
 864 -154 l 1
EndSplineSet
EndChar

StartChar: g
Encoding: 103 103 6
Width: 1092
VWidth: 1056
Flags: HW
LayerCount: 2
Fore
SplineSet
0 806 m 1
 48 806 l 1
 96 806 l 1
 144 806 l 1
 192 806 l 1
 240 806 l 1
 288 806 l 1
 336 806 l 1
 336 758 l 1
 336 710 l 1
 336 662 l 1
 336 614 l 1
 336 566 l 1
 336 518 l 1
 336 470 l 1
 288 470 l 1
 240 470 l 1
 192 470 l 1
 144 470 l 1
 96 470 l 1
 48 470 l 1
 0 470 l 1
 0 518 l 1
 0 566 l 1
 0 614 l 1
 0 662 l 1
 0 710 l 1
 0 758 l 1
 0 806 l 1
384 806 m 1
 432 806 l 1
 432 758 l 1
 480 758 l 1
 480 806 l 1
 528 806 l 1
 528 758 l 1
 576 758 l 1
 576 710 l 1
 528 710 l 1
 528 662 l 1
 528 614 l 1
 480 614 l 1
 432 614 l 1
 384 614 l 1
 384 662 l 1
 432 662 l 1
 432 710 l 1
 384 710 l 1
 384 758 l 1
 384 806 l 1
576 758 m 1
 576 806 l 1
 624 806 l 1
 624 758 l 1
 576 758 l 1
576 710 m 1
 624 710 l 1
 624 662 l 1
 624 614 l 1
 576 614 l 1
 576 662 l 1
 576 710 l 1
576 614 m 1
 576 566 l 1
 624 566 l 1
 624 518 l 1
 624 470 l 1
 624 422 l 1
 624 374 l 1
 672 374 l 1
 672 422 l 1
 720 422 l 1
 720 374 l 1
 720 326 l 1
 672 326 l 1
 624 326 l 1
 576 326 l 1
 576 278 l 1
 576 230 l 1
 528 230 l 1
 528 278 l 1
 528 326 l 1
 480 326 l 1
 480 278 l 1
 480 230 l 1
 432 230 l 1
 384 230 l 1
 336 230 l 1
 336 278 l 1
 384 278 l 1
 384 326 l 1
 432 326 l 1
 432 374 l 1
 432 422 l 1
 384 422 l 1
 384 470 l 1
 384 518 l 1
 432 518 l 1
 432 470 l 1
 480 470 l 1
 480 422 l 1
 480 374 l 1
 528 374 l 1
 528 422 l 1
 528 470 l 1
 576 470 l 1
 576 518 l 1
 528 518 l 1
 528 566 l 1
 528 614 l 1
 576 614 l 1
576 230 m 1
 624 230 l 1
 624 182 l 1
 576 182 l 1
 576 230 l 1
576 182 m 1
 576 134 l 1
 624 134 l 1
 624 86 l 1
 576 86 l 1
 528 86 l 1
 528 38 l 1
 480 38 l 1
 432 38 l 1
 384 38 l 1
 384 86 l 1
 384 134 l 1
 384 182 l 1
 432 182 l 1
 480 182 l 1
 480 230 l 1
 528 230 l 1
 528 182 l 1
 576 182 l 1
336 230 m 1
 336 182 l 1
 288 182 l 1
 288 230 l 1
 336 230 l 1
288 230 m 1
 240 230 l 1
 240 278 l 1
 288 278 l 1
 288 230 l 1
240 230 m 1
 240 182 l 1
 192 182 l 1
 144 182 l 1
 96 182 l 1
 48 182 l 1
 48 230 l 1
 48 278 l 1
 48 326 l 1
 96 326 l 1
 96 278 l 1
 96 230 l 1
 144 230 l 1
 144 278 l 1
 144 326 l 1
 192 326 l 1
 192 374 l 1
 240 374 l 1
 240 422 l 1
 288 422 l 1
 336 422 l 1
 384 422 l 1
 384 374 l 1
 384 326 l 1
 336 326 l 1
 336 374 l 1
 288 374 l 1
 288 326 l 1
 240 326 l 1
 240 278 l 1
 192 278 l 1
 192 230 l 1
 240 230 l 1
96 326 m 1
 96 374 l 1
 96 422 l 1
 144 422 l 1
 192 422 l 1
 192 374 l 1
 144 374 l 1
 144 326 l 1
 96 326 l 1
336 326 m 1
 336 278 l 1
 288 278 l 1
 288 326 l 1
 336 326 l 1
432 518 m 1
 432 566 l 1
 480 566 l 1
 480 518 l 1
 432 518 l 1
480 518 m 1
 528 518 l 1
 528 470 l 1
 480 470 l 1
 480 518 l 1
672 806 m 1
 720 806 l 1
 768 806 l 1
 816 806 l 1
 864 806 l 1
 912 806 l 1
 960 806 l 1
 1008 806 l 1
 1008 758 l 1
 1008 710 l 1
 1008 662 l 1
 1008 614 l 1
 1008 566 l 1
 1008 518 l 1
 1008 470 l 1
 960 470 l 1
 912 470 l 1
 864 470 l 1
 816 470 l 1
 768 470 l 1
 720 470 l 1
 672 470 l 1
 672 518 l 1
 672 566 l 1
 672 614 l 1
 672 662 l 1
 672 710 l 1
 672 758 l 1
 672 806 l 1
48 758 m 1
 48 710 l 1
 48 662 l 1
 48 614 l 1
 48 566 l 1
 48 518 l 1
 96 518 l 1
 144 518 l 1
 192 518 l 1
 240 518 l 1
 288 518 l 1
 288 566 l 1
 288 614 l 1
 288 662 l 1
 288 710 l 1
 288 758 l 1
 240 758 l 1
 192 758 l 1
 144 758 l 1
 96 758 l 1
 48 758 l 1
720 758 m 1
 720 710 l 1
 720 662 l 1
 720 614 l 1
 720 566 l 1
 720 518 l 1
 768 518 l 1
 816 518 l 1
 864 518 l 1
 912 518 l 1
 960 518 l 1
 960 566 l 1
 960 614 l 1
 960 662 l 1
 960 710 l 1
 960 758 l 1
 912 758 l 1
 864 758 l 1
 816 758 l 1
 768 758 l 1
 720 758 l 1
96 710 m 1
 144 710 l 1
 192 710 l 1
 240 710 l 1
 240 662 l 1
 240 614 l 1
 240 566 l 1
 192 566 l 1
 144 566 l 1
 96 566 l 1
 96 614 l 1
 96 662 l 1
 96 710 l 1
768 710 m 1
 816 710 l 1
 864 710 l 1
 912 710 l 1
 912 662 l 1
 912 614 l 1
 912 566 l 1
 864 566 l 1
 816 566 l 1
 768 566 l 1
 768 614 l 1
 768 662 l 1
 768 710 l 1
0 422 m 1
 48 422 l 1
 48 374 l 1
 0 374 l 1
 0 422 l 1
816 422 m 1
 864 422 l 1
 864 374 l 1
 864 326 l 1
 912 326 l 1
 912 278 l 1
 912 230 l 1
 960 230 l 1
 960 182 l 1
 912 182 l 1
 864 182 l 1
 864 230 l 1
 816 230 l 1
 768 230 l 1
 768 182 l 1
 720 182 l 1
 720 230 l 1
 672 230 l 1
 672 278 l 1
 720 278 l 1
 768 278 l 1
 816 278 l 1
 816 326 l 1
 816 374 l 1
 816 422 l 1
960 230 m 1
 960 278 l 1
 960 326 l 1
 1008 326 l 1
 1008 278 l 1
 1008 230 l 1
 960 230 l 1
864 182 m 1
 864 134 l 1
 864 86 l 1
 816 86 l 1
 816 134 l 1
 816 182 l 1
 864 182 l 1
864 86 m 1
 912 86 l 1
 960 86 l 1
 960 38 l 1
 912 38 l 1
 864 38 l 1
 864 86 l 1
960 38 m 1
 1008 38 l 1
 1008 -10 l 1
 960 -10 l 1
 960 38 l 1
960 -10 m 1
 960 -58 l 1
 912 -58 l 1
 864 -58 l 1
 816 -58 l 1
 768 -58 l 1
 768 -106 l 1
 768 -154 l 1
 720 -154 l 1
 720 -106 l 1
 672 -106 l 1
 672 -58 l 1
 672 -10 l 1
 624 -10 l 1
 576 -10 l 1
 576 38 l 1
 624 38 l 1
 672 38 l 1
 720 38 l 1
 720 86 l 1
 720 134 l 1
 768 134 l 1
 768 86 l 1
 816 86 l 1
 816 38 l 1
 816 -10 l 1
 864 -10 l 1
 912 -10 l 1
 960 -10 l 1
768 -154 m 1
 816 -154 l 1
 816 -202 l 1
 768 -202 l 1
 768 -154 l 1
672 -106 m 1
 672 -154 l 1
 672 -202 l 1
 624 -202 l 1
 624 -154 l 1
 624 -106 l 1
 672 -106 l 1
624 -106 m 1
 576 -106 l 1
 576 -58 l 1
 624 -58 l 1
 624 -106 l 1
576 -58 m 1
 528 -58 l 1
 528 -10 l 1
 576 -10 l 1
 576 -58 l 1
528 -58 m 1
 528 -106 l 1
 480 -106 l 1
 480 -154 l 1
 480 -202 l 1
 432 -202 l 1
 384 -202 l 1
 384 -154 l 1
 432 -154 l 1
 432 -106 l 1
 384 -106 l 1
 384 -58 l 1
 384 -10 l 1
 432 -10 l 1
 480 -10 l 1
 480 -58 l 1
 528 -58 l 1
720 134 m 1
 672 134 l 1
 672 182 l 1
 720 182 l 1
 720 134 l 1
912 422 m 1
 960 422 l 1
 1008 422 l 1
 1008 374 l 1
 960 374 l 1
 912 374 l 1
 912 422 l 1
0 134 m 1
 48 134 l 1
 96 134 l 1
 144 134 l 1
 192 134 l 1
 240 134 l 1
 288 134 l 1
 336 134 l 1
 336 86 l 1
 336 38 l 1
 336 -10 l 1
 336 -58 l 1
 336 -106 l 1
 336 -154 l 1
 336 -202 l 1
 288 -202 l 1
 240 -202 l 1
 192 -202 l 1
 144 -202 l 1
 96 -202 l 1
 48 -202 l 1
 0 -202 l 1
 0 -154 l 1
 0 -106 l 1
 0 -58 l 1
 0 -10 l 1
 0 38 l 1
 0 86 l 1
 0 134 l 1
432 134 m 1
 432 86 l 1
 480 86 l 1
 480 134 l 1
 432 134 l 1
48 86 m 1
 48 38 l 1
 48 -10 l 1
 48 -58 l 1
 48 -106 l 1
 48 -154 l 1
 96 -154 l 1
 144 -154 l 1
 192 -154 l 1
 240 -154 l 1
 288 -154 l 1
 288 -106 l 1
 288 -58 l 1
 288 -10 l 1
 288 38 l 1
 288 86 l 1
 240 86 l 1
 192 86 l 1
 144 86 l 1
 96 86 l 1
 48 86 l 1
96 38 m 1
 144 38 l 1
 192 38 l 1
 240 38 l 1
 240 -10 l 1
 240 -58 l 1
 240 -106 l 1
 192 -106 l 1
 144 -106 l 1
 96 -106 l 1
 96 -58 l 1
 96 -10 l 1
 96 38 l 1
864 -106 m 1
 912 -106 l 1
 912 -154 l 1
 864 -154 l 1
 864 -106 l 1
960 -106 m 1
 1008 -106 l 1
 1008 -154 l 1
 960 -154 l 1
 960 -106 l 1
EndSplineSet
EndChar

StartChar: h
Encoding: 104 104 7
Width: 1092
VWidth: 1056
Flags: HW
LayerCount: 2
Fore
SplineSet
0 806 m 1
 48 806 l 1
 96 806 l 1
 144 806 l 1
 192 806 l 1
 240 806 l 1
 288 806 l 1
 336 806 l 1
 336 758 l 1
 336 710 l 1
 336 662 l 1
 336 614 l 1
 336 566 l 1
 336 518 l 1
 336 470 l 1
 288 470 l 1
 240 470 l 1
 192 470 l 1
 144 470 l 1
 96 470 l 1
 48 470 l 1
 0 470 l 1
 0 518 l 1
 0 566 l 1
 0 614 l 1
 0 662 l 1
 0 710 l 1
 0 758 l 1
 0 806 l 1
384 806 m 1
 432 806 l 1
 480 806 l 1
 480 758 l 1
 528 758 l 1
 528 710 l 1
 576 710 l 1
 624 710 l 1
 624 662 l 1
 624 614 l 1
 624 566 l 1
 576 566 l 1
 576 614 l 1
 576 662 l 1
 528 662 l 1
 528 614 l 1
 480 614 l 1
 480 662 l 1
 432 662 l 1
 432 710 l 1
 432 758 l 1
 384 758 l 1
 384 806 l 1
528 758 m 1
 528 806 l 1
 576 806 l 1
 576 758 l 1
 528 758 l 1
576 566 m 1
 576 518 l 1
 528 518 l 1
 528 566 l 1
 576 566 l 1
576 518 m 1
 624 518 l 1
 624 470 l 1
 624 422 l 1
 576 422 l 1
 576 374 l 1
 624 374 l 1
 624 326 l 1
 576 326 l 1
 576 278 l 1
 528 278 l 1
 528 326 l 1
 528 374 l 1
 480 374 l 1
 480 326 l 1
 432 326 l 1
 384 326 l 1
 336 326 l 1
 336 374 l 1
 288 374 l 1
 288 422 l 1
 336 422 l 1
 384 422 l 1
 384 470 l 1
 384 518 l 1
 384 566 l 1
 384 614 l 1
 384 662 l 1
 432 662 l 1
 432 614 l 1
 432 566 l 1
 480 566 l 1
 480 518 l 1
 432 518 l 1
 432 470 l 1
 432 422 l 1
 480 422 l 1
 528 422 l 1
 528 470 l 1
 576 470 l 1
 576 518 l 1
624 422 m 1
 672 422 l 1
 720 422 l 1
 768 422 l 1
 816 422 l 1
 864 422 l 1
 864 374 l 1
 864 326 l 1
 912 326 l 1
 912 278 l 1
 912 230 l 1
 960 230 l 1
 960 182 l 1
 960 134 l 1
 960 86 l 1
 960 38 l 1
 1008 38 l 1
 1008 -10 l 1
 1008 -58 l 1
 960 -58 l 1
 912 -58 l 1
 912 -10 l 1
 864 -10 l 1
 864 -58 l 1
 912 -58 l 1
 912 -106 l 1
 912 -154 l 1
 912 -202 l 1
 864 -202 l 1
 864 -154 l 1
 864 -106 l 1
 816 -106 l 1
 816 -154 l 1
 768 -154 l 1
 768 -106 l 1
 720 -106 l 1
 720 -154 l 1
 720 -202 l 1
 672 -202 l 1
 624 -202 l 1
 576 -202 l 1
 576 -154 l 1
 624 -154 l 1
 624 -106 l 1
 672 -106 l 1
 672 -58 l 1
 720 -58 l 1
 720 -10 l 1
 672 -10 l 1
 672 38 l 1
 720 38 l 1
 720 86 l 1
 768 86 l 1
 768 38 l 1
 816 38 l 1
 816 86 l 1
 864 86 l 1
 864 38 l 1
 912 38 l 1
 912 86 l 1
 912 134 l 1
 864 134 l 1
 864 182 l 1
 864 230 l 1
 864 278 l 1
 816 278 l 1
 816 230 l 1
 768 230 l 1
 768 278 l 1
 720 278 l 1
 720 230 l 1
 720 182 l 1
 720 134 l 1
 672 134 l 1
 672 86 l 1
 624 86 l 1
 624 38 l 1
 576 38 l 1
 576 -10 l 1
 624 -10 l 1
 624 -58 l 1
 576 -58 l 1
 576 -106 l 1
 528 -106 l 1
 528 -58 l 1
 480 -58 l 1
 480 -10 l 1
 528 -10 l 1
 528 38 l 1
 480 38 l 1
 480 86 l 1
 480 134 l 1
 432 134 l 1
 432 86 l 1
 384 86 l 1
 384 134 l 1
 384 182 l 1
 432 182 l 1
 432 230 l 1
 480 230 l 1
 480 182 l 1
 528 182 l 1
 528 134 l 1
 528 86 l 1
 576 86 l 1
 576 134 l 1
 576 182 l 1
 576 230 l 1
 624 230 l 1
 624 278 l 1
 672 278 l 1
 672 326 l 1
 720 326 l 1
 720 374 l 1
 672 374 l 1
 624 374 l 1
 624 422 l 1
912 326 m 1
 912 374 l 1
 960 374 l 1
 960 422 l 1
 1008 422 l 1
 1008 374 l 1
 1008 326 l 1
 960 326 l 1
 912 326 l 1
528 -106 m 1
 528 -154 l 1
 480 -154 l 1
 480 -106 l 1
 528 -106 l 1
480 -106 m 1
 432 -106 l 1
 432 -58 l 1
 480 -58 l 1
 480 -106 l 1
384 182 m 1
 336 182 l 1
 288 182 l 1
 240 182 l 1
 192 182 l 1
 192 230 l 1
 240 230 l 1
 288 230 l 1
 336 230 l 1
 384 230 l 1
 384 182 l 1
480 230 m 1
 480 278 l 1
 528 278 l 1
 528 230 l 1
 480 230 l 1
336 326 m 1
 336 278 l 1
 288 278 l 1
 240 278 l 1
 192 278 l 1
 144 278 l 1
 144 326 l 1
 144 374 l 1
 192 374 l 1
 192 326 l 1
 240 326 l 1
 288 326 l 1
 336 326 l 1
192 374 m 1
 192 422 l 1
 240 422 l 1
 240 374 l 1
 192 374 l 1
480 518 m 1
 528 518 l 1
 528 470 l 1
 480 470 l 1
 480 518 l 1
672 806 m 1
 720 806 l 1
 768 806 l 1
 816 806 l 1
 864 806 l 1
 912 806 l 1
 960 806 l 1
 1008 806 l 1
 1008 758 l 1
 1008 710 l 1
 1008 662 l 1
 1008 614 l 1
 1008 566 l 1
 1008 518 l 1
 1008 470 l 1
 960 470 l 1
 912 470 l 1
 864 470 l 1
 816 470 l 1
 768 470 l 1
 720 470 l 1
 672 470 l 1
 672 518 l 1
 672 566 l 1
 672 614 l 1
 672 662 l 1
 672 710 l 1
 672 758 l 1
 672 806 l 1
48 758 m 1
 48 710 l 1
 48 662 l 1
 48 614 l 1
 48 566 l 1
 48 518 l 1
 96 518 l 1
 144 518 l 1
 192 518 l 1
 240 518 l 1
 288 518 l 1
 288 566 l 1
 288 614 l 1
 288 662 l 1
 288 710 l 1
 288 758 l 1
 240 758 l 1
 192 758 l 1
 144 758 l 1
 96 758 l 1
 48 758 l 1
720 758 m 1
 720 710 l 1
 720 662 l 1
 720 614 l 1
 720 566 l 1
 720 518 l 1
 768 518 l 1
 816 518 l 1
 864 518 l 1
 912 518 l 1
 960 518 l 1
 960 566 l 1
 960 614 l 1
 960 662 l 1
 960 710 l 1
 960 758 l 1
 912 758 l 1
 864 758 l 1
 816 758 l 1
 768 758 l 1
 720 758 l 1
96 710 m 1
 144 710 l 1
 192 710 l 1
 240 710 l 1
 240 662 l 1
 240 614 l 1
 240 566 l 1
 192 566 l 1
 144 566 l 1
 96 566 l 1
 96 614 l 1
 96 662 l 1
 96 710 l 1
768 710 m 1
 816 710 l 1
 864 710 l 1
 912 710 l 1
 912 662 l 1
 912 614 l 1
 912 566 l 1
 864 566 l 1
 816 566 l 1
 768 566 l 1
 768 614 l 1
 768 662 l 1
 768 710 l 1
0 422 m 1
 48 422 l 1
 48 374 l 1
 0 374 l 1
 0 422 l 1
48 374 m 1
 96 374 l 1
 96 326 l 1
 96 278 l 1
 96 230 l 1
 96 182 l 1
 48 182 l 1
 48 230 l 1
 48 278 l 1
 48 326 l 1
 48 374 l 1
768 374 m 1
 768 326 l 1
 816 326 l 1
 816 374 l 1
 768 374 l 1
0 134 m 1
 48 134 l 1
 96 134 l 1
 144 134 l 1
 192 134 l 1
 240 134 l 1
 288 134 l 1
 336 134 l 1
 336 86 l 1
 336 38 l 1
 336 -10 l 1
 336 -58 l 1
 336 -106 l 1
 336 -154 l 1
 336 -202 l 1
 288 -202 l 1
 240 -202 l 1
 192 -202 l 1
 144 -202 l 1
 96 -202 l 1
 48 -202 l 1
 0 -202 l 1
 0 -154 l 1
 0 -106 l 1
 0 -58 l 1
 0 -10 l 1
 0 38 l 1
 0 86 l 1
 0 134 l 1
48 86 m 1
 48 38 l 1
 48 -10 l 1
 48 -58 l 1
 48 -106 l 1
 48 -154 l 1
 96 -154 l 1
 144 -154 l 1
 192 -154 l 1
 240 -154 l 1
 288 -154 l 1
 288 -106 l 1
 288 -58 l 1
 288 -10 l 1
 288 38 l 1
 288 86 l 1
 240 86 l 1
 192 86 l 1
 144 86 l 1
 96 86 l 1
 48 86 l 1
96 38 m 1
 144 38 l 1
 192 38 l 1
 240 38 l 1
 240 -10 l 1
 240 -58 l 1
 240 -106 l 1
 192 -106 l 1
 144 -106 l 1
 96 -106 l 1
 96 -58 l 1
 96 -10 l 1
 96 38 l 1
384 38 m 1
 432 38 l 1
 432 -10 l 1
 384 -10 l 1
 384 38 l 1
768 -10 m 1
 768 -58 l 1
 816 -58 l 1
 816 -10 l 1
 768 -10 l 1
384 -154 m 1
 432 -154 l 1
 432 -202 l 1
 384 -202 l 1
 384 -154 l 1
960 -154 m 1
 1008 -154 l 1
 1008 -202 l 1
 960 -202 l 1
 960 -154 l 1
EndSplineSet
EndChar

StartChar: i
Encoding: 105 105 8
Width: 1092
VWidth: 1056
Flags: HW
LayerCount: 2
Fore
SplineSet
0 806 m 1
 48 806 l 1
 96 806 l 1
 144 806 l 1
 192 806 l 1
 240 806 l 1
 288 806 l 1
 336 806 l 1
 336 758 l 1
 336 710 l 1
 336 662 l 1
 336 614 l 1
 336 566 l 1
 336 518 l 1
 336 470 l 1
 288 470 l 1
 240 470 l 1
 192 470 l 1
 144 470 l 1
 96 470 l 1
 48 470 l 1
 0 470 l 1
 0 518 l 1
 0 566 l 1
 0 614 l 1
 0 662 l 1
 0 710 l 1
 0 758 l 1
 0 806 l 1
672 806 m 1
 720 806 l 1
 768 806 l 1
 816 806 l 1
 864 806 l 1
 912 806 l 1
 960 806 l 1
 1008 806 l 1
 1008 758 l 1
 1008 710 l 1
 1008 662 l 1
 1008 614 l 1
 1008 566 l 1
 1008 518 l 1
 1008 470 l 1
 960 470 l 1
 912 470 l 1
 864 470 l 1
 816 470 l 1
 768 470 l 1
 720 470 l 1
 672 470 l 1
 672 518 l 1
 672 566 l 1
 672 614 l 1
 672 662 l 1
 672 710 l 1
 672 758 l 1
 672 806 l 1
48 758 m 1
 48 710 l 1
 48 662 l 1
 48 614 l 1
 48 566 l 1
 48 518 l 1
 96 518 l 1
 144 518 l 1
 192 518 l 1
 240 518 l 1
 288 518 l 1
 288 566 l 1
 288 614 l 1
 288 662 l 1
 288 710 l 1
 288 758 l 1
 240 758 l 1
 192 758 l 1
 144 758 l 1
 96 758 l 1
 48 758 l 1
432 758 m 1
 480 758 l 1
 528 758 l 1
 528 710 l 1
 576 710 l 1
 576 662 l 1
 528 662 l 1
 480 662 l 1
 480 614 l 1
 432 614 l 1
 432 566 l 1
 480 566 l 1
 480 614 l 1
 528 614 l 1
 528 566 l 1
 576 566 l 1
 576 518 l 1
 528 518 l 1
 528 470 l 1
 528 422 l 1
 480 422 l 1
 480 470 l 1
 480 518 l 1
 432 518 l 1
 432 470 l 1
 432 422 l 1
 384 422 l 1
 384 470 l 1
 384 518 l 1
 384 566 l 1
 384 614 l 1
 384 662 l 1
 384 710 l 1
 432 710 l 1
 432 758 l 1
576 662 m 1
 624 662 l 1
 624 614 l 1
 624 566 l 1
 576 566 l 1
 576 614 l 1
 576 662 l 1
576 518 m 1
 624 518 l 1
 624 470 l 1
 576 470 l 1
 576 518 l 1
528 422 m 1
 576 422 l 1
 576 374 l 1
 624 374 l 1
 672 374 l 1
 672 422 l 1
 720 422 l 1
 768 422 l 1
 816 422 l 1
 864 422 l 1
 912 422 l 1
 912 374 l 1
 864 374 l 1
 864 326 l 1
 816 326 l 1
 816 374 l 1
 768 374 l 1
 720 374 l 1
 720 326 l 1
 768 326 l 1
 768 278 l 1
 720 278 l 1
 720 230 l 1
 672 230 l 1
 624 230 l 1
 624 182 l 1
 624 134 l 1
 576 134 l 1
 576 182 l 1
 576 230 l 1
 528 230 l 1
 528 278 l 1
 576 278 l 1
 576 326 l 1
 528 326 l 1
 528 374 l 1
 528 422 l 1
720 230 m 1
 768 230 l 1
 768 182 l 1
 768 134 l 1
 720 134 l 1
 720 182 l 1
 720 230 l 1
768 134 m 1
 816 134 l 1
 864 134 l 1
 864 182 l 1
 864 230 l 1
 912 230 l 1
 912 182 l 1
 912 134 l 1
 960 134 l 1
 960 86 l 1
 960 38 l 1
 912 38 l 1
 912 -10 l 1
 864 -10 l 1
 864 -58 l 1
 816 -58 l 1
 816 -10 l 1
 768 -10 l 1
 768 38 l 1
 720 38 l 1
 720 86 l 1
 768 86 l 1
 768 134 l 1
864 230 m 1
 816 230 l 1
 816 278 l 1
 864 278 l 1
 864 230 l 1
912 230 m 1
 912 278 l 1
 960 278 l 1
 960 230 l 1
 912 230 l 1
960 230 m 1
 1008 230 l 1
 1008 182 l 1
 1008 134 l 1
 960 134 l 1
 960 182 l 1
 960 230 l 1
624 134 m 1
 672 134 l 1
 672 86 l 1
 624 86 l 1
 624 134 l 1
576 134 m 1
 576 86 l 1
 528 86 l 1
 480 86 l 1
 432 86 l 1
 432 134 l 1
 480 134 l 1
 480 182 l 1
 528 182 l 1
 528 134 l 1
 576 134 l 1
432 86 m 1
 432 38 l 1
 432 -10 l 1
 432 -58 l 1
 480 -58 l 1
 528 -58 l 1
 528 -106 l 1
 576 -106 l 1
 576 -58 l 1
 528 -58 l 1
 528 -10 l 1
 480 -10 l 1
 480 38 l 1
 528 38 l 1
 576 38 l 1
 576 -10 l 1
 624 -10 l 1
 624 38 l 1
 672 38 l 1
 672 -10 l 1
 720 -10 l 1
 720 -58 l 1
 768 -58 l 1
 768 -106 l 1
 720 -106 l 1
 720 -154 l 1
 672 -154 l 1
 624 -154 l 1
 624 -202 l 1
 576 -202 l 1
 576 -154 l 1
 528 -154 l 1
 480 -154 l 1
 480 -106 l 1
 432 -106 l 1
 384 -106 l 1
 384 -58 l 1
 384 -10 l 1
 384 38 l 1
 384 86 l 1
 432 86 l 1
720 -154 m 1
 768 -154 l 1
 768 -202 l 1
 720 -202 l 1
 720 -154 l 1
432 134 m 1
 384 134 l 1
 384 182 l 1
 336 182 l 1
 288 182 l 1
 240 182 l 1
 240 230 l 1
 192 230 l 1
 192 278 l 1
 240 278 l 1
 240 326 l 1
 288 326 l 1
 336 326 l 1
 336 374 l 1
 384 374 l 1
 384 326 l 1
 432 326 l 1
 432 374 l 1
 432 422 l 1
 480 422 l 1
 480 374 l 1
 480 326 l 1
 480 278 l 1
 432 278 l 1
 432 230 l 1
 432 182 l 1
 432 134 l 1
192 230 m 1
 192 182 l 1
 144 182 l 1
 144 230 l 1
 192 230 l 1
144 230 m 1
 96 230 l 1
 96 278 l 1
 48 278 l 1
 48 326 l 1
 48 374 l 1
 96 374 l 1
 96 422 l 1
 144 422 l 1
 192 422 l 1
 240 422 l 1
 288 422 l 1
 336 422 l 1
 336 374 l 1
 288 374 l 1
 240 374 l 1
 192 374 l 1
 144 374 l 1
 144 326 l 1
 192 326 l 1
 192 278 l 1
 144 278 l 1
 144 230 l 1
96 230 m 1
 96 182 l 1
 48 182 l 1
 48 230 l 1
 96 230 l 1
48 374 m 1
 0 374 l 1
 0 422 l 1
 48 422 l 1
 48 374 l 1
720 758 m 1
 720 710 l 1
 720 662 l 1
 720 614 l 1
 720 566 l 1
 720 518 l 1
 768 518 l 1
 816 518 l 1
 864 518 l 1
 912 518 l 1
 960 518 l 1
 960 566 l 1
 960 614 l 1
 960 662 l 1
 960 710 l 1
 960 758 l 1
 912 758 l 1
 864 758 l 1
 816 758 l 1
 768 758 l 1
 720 758 l 1
96 710 m 1
 144 710 l 1
 192 710 l 1
 240 710 l 1
 240 662 l 1
 240 614 l 1
 240 566 l 1
 192 566 l 1
 144 566 l 1
 96 566 l 1
 96 614 l 1
 96 662 l 1
 96 710 l 1
768 710 m 1
 816 710 l 1
 864 710 l 1
 912 710 l 1
 912 662 l 1
 912 614 l 1
 912 566 l 1
 864 566 l 1
 816 566 l 1
 768 566 l 1
 768 614 l 1
 768 662 l 1
 768 710 l 1
624 326 m 1
 624 278 l 1
 672 278 l 1
 672 326 l 1
 624 326 l 1
288 278 m 1
 288 230 l 1
 336 230 l 1
 336 278 l 1
 288 278 l 1
0 134 m 1
 48 134 l 1
 96 134 l 1
 144 134 l 1
 192 134 l 1
 240 134 l 1
 288 134 l 1
 336 134 l 1
 336 86 l 1
 336 38 l 1
 336 -10 l 1
 336 -58 l 1
 336 -106 l 1
 336 -154 l 1
 336 -202 l 1
 288 -202 l 1
 240 -202 l 1
 192 -202 l 1
 144 -202 l 1
 96 -202 l 1
 48 -202 l 1
 0 -202 l 1
 0 -154 l 1
 0 -106 l 1
 0 -58 l 1
 0 -10 l 1
 0 38 l 1
 0 86 l 1
 0 134 l 1
48 86 m 1
 48 38 l 1
 48 -10 l 1
 48 -58 l 1
 48 -106 l 1
 48 -154 l 1
 96 -154 l 1
 144 -154 l 1
 192 -154 l 1
 240 -154 l 1
 288 -154 l 1
 288 -106 l 1
 288 -58 l 1
 288 -10 l 1
 288 38 l 1
 288 86 l 1
 240 86 l 1
 192 86 l 1
 144 86 l 1
 96 86 l 1
 48 86 l 1
816 86 m 1
 816 38 l 1
 864 38 l 1
 864 86 l 1
 816 86 l 1
96 38 m 1
 144 38 l 1
 192 38 l 1
 240 38 l 1
 240 -10 l 1
 240 -58 l 1
 240 -106 l 1
 192 -106 l 1
 144 -106 l 1
 96 -106 l 1
 96 -58 l 1
 96 -10 l 1
 96 38 l 1
624 -58 m 1
 624 -106 l 1
 672 -106 l 1
 672 -58 l 1
 624 -58 l 1
816 -106 m 1
 864 -106 l 1
 864 -154 l 1
 816 -154 l 1
 816 -106 l 1
864 -154 m 1
 912 -154 l 1
 960 -154 l 1
 960 -202 l 1
 912 -202 l 1
 864 -202 l 1
 864 -154 l 1
384 -154 m 1
 432 -154 l 1
 432 -202 l 1
 384 -202 l 1
 384 -154 l 1
EndSplineSet
EndChar

StartChar: j
Encoding: 106 106 9
Width: 1092
VWidth: 1056
Flags: HW
LayerCount: 2
Fore
SplineSet
0 806 m 1
 48 806 l 1
 96 806 l 1
 144 806 l 1
 192 806 l 1
 240 806 l 1
 288 806 l 1
 336 806 l 1
 336 758 l 1
 336 710 l 1
 336 662 l 1
 336 614 l 1
 336 566 l 1
 336 518 l 1
 336 470 l 1
 288 470 l 1
 240 470 l 1
 192 470 l 1
 144 470 l 1
 96 470 l 1
 48 470 l 1
 0 470 l 1
 0 518 l 1
 0 566 l 1
 0 614 l 1
 0 662 l 1
 0 710 l 1
 0 758 l 1
 0 806 l 1
576 806 m 1
 624 806 l 1
 624 758 l 1
 624 710 l 1
 624 662 l 1
 624 614 l 1
 624 566 l 1
 576 566 l 1
 576 614 l 1
 528 614 l 1
 528 566 l 1
 576 566 l 1
 576 518 l 1
 528 518 l 1
 528 470 l 1
 480 470 l 1
 480 518 l 1
 432 518 l 1
 432 470 l 1
 432 422 l 1
 384 422 l 1
 384 470 l 1
 384 518 l 1
 384 566 l 1
 384 614 l 1
 384 662 l 1
 384 710 l 1
 432 710 l 1
 432 758 l 1
 480 758 l 1
 480 710 l 1
 480 662 l 1
 432 662 l 1
 432 614 l 1
 432 566 l 1
 480 566 l 1
 480 614 l 1
 480 662 l 1
 528 662 l 1
 528 710 l 1
 528 758 l 1
 576 758 l 1
 576 806 l 1
576 518 m 1
 624 518 l 1
 624 470 l 1
 576 470 l 1
 576 518 l 1
432 422 m 1
 480 422 l 1
 480 374 l 1
 528 374 l 1
 528 422 l 1
 576 422 l 1
 576 374 l 1
 624 374 l 1
 672 374 l 1
 672 422 l 1
 720 422 l 1
 768 422 l 1
 816 422 l 1
 864 422 l 1
 912 422 l 1
 912 374 l 1
 864 374 l 1
 864 326 l 1
 816 326 l 1
 816 374 l 1
 768 374 l 1
 720 374 l 1
 720 326 l 1
 768 326 l 1
 768 278 l 1
 720 278 l 1
 720 230 l 1
 672 230 l 1
 624 230 l 1
 624 182 l 1
 624 134 l 1
 576 134 l 1
 576 182 l 1
 576 230 l 1
 528 230 l 1
 528 278 l 1
 576 278 l 1
 576 326 l 1
 528 326 l 1
 480 326 l 1
 432 326 l 1
 432 278 l 1
 432 230 l 1
 384 230 l 1
 384 182 l 1
 336 182 l 1
 288 182 l 1
 288 230 l 1
 336 230 l 1
 336 278 l 1
 384 278 l 1
 384 326 l 1
 384 374 l 1
 432 374 l 1
 432 422 l 1
720 230 m 1
 768 230 l 1
 768 182 l 1
 768 134 l 1
 720 134 l 1
 720 182 l 1
 720 230 l 1
768 134 m 1
 816 134 l 1
 864 134 l 1
 864 182 l 1
 864 230 l 1
 912 230 l 1
 912 182 l 1
 912 134 l 1
 960 134 l 1
 960 86 l 1
 960 38 l 1
 912 38 l 1
 912 -10 l 1
 864 -10 l 1
 864 -58 l 1
 816 -58 l 1
 816 -10 l 1
 768 -10 l 1
 768 38 l 1
 720 38 l 1
 720 86 l 1
 768 86 l 1
 768 134 l 1
864 230 m 1
 816 230 l 1
 816 278 l 1
 864 278 l 1
 864 230 l 1
960 134 m 1
 960 182 l 1
 960 230 l 1
 960 278 l 1
 1008 278 l 1
 1008 230 l 1
 1008 182 l 1
 1008 134 l 1
 960 134 l 1
624 134 m 1
 672 134 l 1
 672 86 l 1
 624 86 l 1
 624 134 l 1
576 134 m 1
 576 86 l 1
 528 86 l 1
 480 86 l 1
 480 134 l 1
 432 134 l 1
 384 134 l 1
 384 182 l 1
 432 182 l 1
 480 182 l 1
 528 182 l 1
 528 134 l 1
 576 134 l 1
480 86 m 1
 480 38 l 1
 528 38 l 1
 576 38 l 1
 576 -10 l 1
 624 -10 l 1
 624 38 l 1
 672 38 l 1
 672 -10 l 1
 720 -10 l 1
 720 -58 l 1
 768 -58 l 1
 768 -106 l 1
 720 -106 l 1
 720 -154 l 1
 672 -154 l 1
 624 -154 l 1
 624 -202 l 1
 576 -202 l 1
 576 -154 l 1
 528 -154 l 1
 528 -202 l 1
 480 -202 l 1
 480 -154 l 1
 432 -154 l 1
 432 -106 l 1
 384 -106 l 1
 384 -58 l 1
 384 -10 l 1
 384 38 l 1
 384 86 l 1
 432 86 l 1
 480 86 l 1
720 -154 m 1
 768 -154 l 1
 768 -202 l 1
 720 -202 l 1
 720 -154 l 1
432 -154 m 1
 432 -202 l 1
 384 -202 l 1
 384 -154 l 1
 432 -154 l 1
288 230 m 1
 240 230 l 1
 240 182 l 1
 192 182 l 1
 144 182 l 1
 144 230 l 1
 192 230 l 1
 192 278 l 1
 240 278 l 1
 288 278 l 1
 288 230 l 1
144 230 m 1
 96 230 l 1
 96 278 l 1
 144 278 l 1
 144 230 l 1
96 278 m 1
 48 278 l 1
 48 326 l 1
 48 374 l 1
 96 374 l 1
 96 326 l 1
 96 278 l 1
48 374 m 1
 0 374 l 1
 0 422 l 1
 48 422 l 1
 48 374 l 1
96 374 m 1
 96 422 l 1
 144 422 l 1
 192 422 l 1
 240 422 l 1
 288 422 l 1
 336 422 l 1
 336 374 l 1
 288 374 l 1
 240 374 l 1
 240 326 l 1
 192 326 l 1
 192 374 l 1
 144 374 l 1
 96 374 l 1
192 326 m 1
 192 278 l 1
 144 278 l 1
 144 326 l 1
 192 326 l 1
288 278 m 1
 288 326 l 1
 336 326 l 1
 336 278 l 1
 288 278 l 1
672 806 m 1
 720 806 l 1
 768 806 l 1
 816 806 l 1
 864 806 l 1
 912 806 l 1
 960 806 l 1
 1008 806 l 1
 1008 758 l 1
 1008 710 l 1
 1008 662 l 1
 1008 614 l 1
 1008 566 l 1
 1008 518 l 1
 1008 470 l 1
 960 470 l 1
 912 470 l 1
 864 470 l 1
 816 470 l 1
 768 470 l 1
 720 470 l 1
 672 470 l 1
 672 518 l 1
 672 566 l 1
 672 614 l 1
 672 662 l 1
 672 710 l 1
 672 758 l 1
 672 806 l 1
48 758 m 1
 48 710 l 1
 48 662 l 1
 48 614 l 1
 48 566 l 1
 48 518 l 1
 96 518 l 1
 144 518 l 1
 192 518 l 1
 240 518 l 1
 288 518 l 1
 288 566 l 1
 288 614 l 1
 288 662 l 1
 288 710 l 1
 288 758 l 1
 240 758 l 1
 192 758 l 1
 144 758 l 1
 96 758 l 1
 48 758 l 1
720 758 m 1
 720 710 l 1
 720 662 l 1
 720 614 l 1
 720 566 l 1
 720 518 l 1
 768 518 l 1
 816 518 l 1
 864 518 l 1
 912 518 l 1
 960 518 l 1
 960 566 l 1
 960 614 l 1
 960 662 l 1
 960 710 l 1
 960 758 l 1
 912 758 l 1
 864 758 l 1
 816 758 l 1
 768 758 l 1
 720 758 l 1
96 710 m 1
 144 710 l 1
 192 710 l 1
 240 710 l 1
 240 662 l 1
 240 614 l 1
 240 566 l 1
 192 566 l 1
 144 566 l 1
 96 566 l 1
 96 614 l 1
 96 662 l 1
 96 710 l 1
768 710 m 1
 816 710 l 1
 864 710 l 1
 912 710 l 1
 912 662 l 1
 912 614 l 1
 912 566 l 1
 864 566 l 1
 816 566 l 1
 768 566 l 1
 768 614 l 1
 768 662 l 1
 768 710 l 1
624 326 m 1
 624 278 l 1
 672 278 l 1
 672 326 l 1
 624 326 l 1
0 134 m 1
 48 134 l 1
 96 134 l 1
 144 134 l 1
 192 134 l 1
 240 134 l 1
 288 134 l 1
 336 134 l 1
 336 86 l 1
 336 38 l 1
 336 -10 l 1
 336 -58 l 1
 336 -106 l 1
 336 -154 l 1
 336 -202 l 1
 288 -202 l 1
 240 -202 l 1
 192 -202 l 1
 144 -202 l 1
 96 -202 l 1
 48 -202 l 1
 0 -202 l 1
 0 -154 l 1
 0 -106 l 1
 0 -58 l 1
 0 -10 l 1
 0 38 l 1
 0 86 l 1
 0 134 l 1
48 86 m 1
 48 38 l 1
 48 -10 l 1
 48 -58 l 1
 48 -106 l 1
 48 -154 l 1
 96 -154 l 1
 144 -154 l 1
 192 -154 l 1
 240 -154 l 1
 288 -154 l 1
 288 -106 l 1
 288 -58 l 1
 288 -10 l 1
 288 38 l 1
 288 86 l 1
 240 86 l 1
 192 86 l 1
 144 86 l 1
 96 86 l 1
 48 86 l 1
816 86 m 1
 816 38 l 1
 864 38 l 1
 864 86 l 1
 816 86 l 1
96 38 m 1
 144 38 l 1
 192 38 l 1
 240 38 l 1
 240 -10 l 1
 240 -58 l 1
 240 -106 l 1
 192 -106 l 1
 144 -106 l 1
 96 -106 l 1
 96 -58 l 1
 96 -10 l 1
 96 38 l 1
480 -10 m 1
 480 -58 l 1
 528 -58 l 1
 528 -106 l 1
 576 -106 l 1
 576 -58 l 1
 528 -58 l 1
 528 -10 l 1
 480 -10 l 1
624 -58 m 1
 624 -106 l 1
 672 -106 l 1
 672 -58 l 1
 624 -58 l 1
816 -106 m 1
 864 -106 l 1
 864 -154 l 1
 816 -154 l 1
 816 -106 l 1
864 -154 m 1
 912 -154 l 1
 960 -154 l 1
 960 -202 l 1
 912 -202 l 1
 864 -202 l 1
 864 -154 l 1
EndSplineSet
EndChar

StartChar: k
Encoding: 107 107 10
Width: 1092
VWidth: 1056
Flags: HW
LayerCount: 2
Fore
SplineSet
0 806 m 1
 48 806 l 1
 96 806 l 1
 144 806 l 1
 192 806 l 1
 240 806 l 1
 288 806 l 1
 336 806 l 1
 336 758 l 1
 336 710 l 1
 336 662 l 1
 336 614 l 1
 336 566 l 1
 336 518 l 1
 336 470 l 1
 288 470 l 1
 240 470 l 1
 192 470 l 1
 144 470 l 1
 96 470 l 1
 48 470 l 1
 0 470 l 1
 0 518 l 1
 0 566 l 1
 0 614 l 1
 0 662 l 1
 0 710 l 1
 0 758 l 1
 0 806 l 1
384 806 m 1
 432 806 l 1
 480 806 l 1
 480 758 l 1
 480 710 l 1
 480 662 l 1
 480 614 l 1
 432 614 l 1
 432 566 l 1
 480 566 l 1
 480 518 l 1
 432 518 l 1
 432 470 l 1
 432 422 l 1
 480 422 l 1
 480 470 l 1
 480 518 l 1
 528 518 l 1
 528 470 l 1
 576 470 l 1
 576 518 l 1
 624 518 l 1
 624 470 l 1
 624 422 l 1
 576 422 l 1
 576 374 l 1
 624 374 l 1
 624 326 l 1
 576 326 l 1
 576 278 l 1
 528 278 l 1
 528 326 l 1
 480 326 l 1
 480 278 l 1
 432 278 l 1
 432 326 l 1
 432 374 l 1
 384 374 l 1
 336 374 l 1
 288 374 l 1
 288 422 l 1
 336 422 l 1
 384 422 l 1
 384 470 l 1
 384 518 l 1
 384 566 l 1
 384 614 l 1
 384 662 l 1
 432 662 l 1
 432 710 l 1
 432 758 l 1
 384 758 l 1
 384 806 l 1
528 518 m 1
 528 566 l 1
 576 566 l 1
 576 518 l 1
 528 518 l 1
576 566 m 1
 576 614 l 1
 528 614 l 1
 528 662 l 1
 528 710 l 1
 528 758 l 1
 528 806 l 1
 576 806 l 1
 624 806 l 1
 624 758 l 1
 624 710 l 1
 576 710 l 1
 576 662 l 1
 624 662 l 1
 624 614 l 1
 624 566 l 1
 576 566 l 1
624 422 m 1
 672 422 l 1
 720 422 l 1
 768 422 l 1
 816 422 l 1
 864 422 l 1
 864 374 l 1
 864 326 l 1
 912 326 l 1
 912 278 l 1
 960 278 l 1
 1008 278 l 1
 1008 230 l 1
 960 230 l 1
 960 182 l 1
 960 134 l 1
 960 86 l 1
 960 38 l 1
 1008 38 l 1
 1008 -10 l 1
 1008 -58 l 1
 960 -58 l 1
 912 -58 l 1
 912 -10 l 1
 864 -10 l 1
 864 -58 l 1
 912 -58 l 1
 912 -106 l 1
 912 -154 l 1
 912 -202 l 1
 864 -202 l 1
 864 -154 l 1
 864 -106 l 1
 816 -106 l 1
 816 -154 l 1
 768 -154 l 1
 768 -106 l 1
 720 -106 l 1
 720 -154 l 1
 720 -202 l 1
 672 -202 l 1
 624 -202 l 1
 576 -202 l 1
 576 -154 l 1
 624 -154 l 1
 624 -106 l 1
 672 -106 l 1
 672 -58 l 1
 720 -58 l 1
 720 -10 l 1
 672 -10 l 1
 672 38 l 1
 720 38 l 1
 720 86 l 1
 768 86 l 1
 768 38 l 1
 816 38 l 1
 816 86 l 1
 864 86 l 1
 864 38 l 1
 912 38 l 1
 912 86 l 1
 912 134 l 1
 864 134 l 1
 864 182 l 1
 864 230 l 1
 864 278 l 1
 816 278 l 1
 816 230 l 1
 768 230 l 1
 768 278 l 1
 720 278 l 1
 720 230 l 1
 720 182 l 1
 720 134 l 1
 672 134 l 1
 672 86 l 1
 624 86 l 1
 624 38 l 1
 576 38 l 1
 576 -10 l 1
 624 -10 l 1
 624 -58 l 1
 576 -58 l 1
 576 -106 l 1
 528 -106 l 1
 528 -58 l 1
 480 -58 l 1
 480 -106 l 1
 528 -106 l 1
 528 -154 l 1
 528 -202 l 1
 480 -202 l 1
 480 -154 l 1
 432 -154 l 1
 432 -106 l 1
 432 -58 l 1
 432 -10 l 1
 384 -10 l 1
 384 38 l 1
 432 38 l 1
 432 86 l 1
 384 86 l 1
 384 134 l 1
 384 182 l 1
 336 182 l 1
 288 182 l 1
 288 230 l 1
 336 230 l 1
 384 230 l 1
 432 230 l 1
 480 230 l 1
 480 182 l 1
 432 182 l 1
 432 134 l 1
 480 134 l 1
 480 182 l 1
 528 182 l 1
 528 134 l 1
 528 86 l 1
 576 86 l 1
 576 134 l 1
 576 182 l 1
 576 230 l 1
 624 230 l 1
 624 278 l 1
 672 278 l 1
 672 326 l 1
 720 326 l 1
 720 374 l 1
 672 374 l 1
 624 374 l 1
 624 422 l 1
912 326 m 1
 912 374 l 1
 960 374 l 1
 960 422 l 1
 1008 422 l 1
 1008 374 l 1
 1008 326 l 1
 960 326 l 1
 912 326 l 1
432 -154 m 1
 432 -202 l 1
 384 -202 l 1
 384 -154 l 1
 432 -154 l 1
480 230 m 1
 480 278 l 1
 528 278 l 1
 528 230 l 1
 480 230 l 1
672 806 m 1
 720 806 l 1
 768 806 l 1
 816 806 l 1
 864 806 l 1
 912 806 l 1
 960 806 l 1
 1008 806 l 1
 1008 758 l 1
 1008 710 l 1
 1008 662 l 1
 1008 614 l 1
 1008 566 l 1
 1008 518 l 1
 1008 470 l 1
 960 470 l 1
 912 470 l 1
 864 470 l 1
 816 470 l 1
 768 470 l 1
 720 470 l 1
 672 470 l 1
 672 518 l 1
 672 566 l 1
 672 614 l 1
 672 662 l 1
 672 710 l 1
 672 758 l 1
 672 806 l 1
48 758 m 1
 48 710 l 1
 48 662 l 1
 48 614 l 1
 48 566 l 1
 48 518 l 1
 96 518 l 1
 144 518 l 1
 192 518 l 1
 240 518 l 1
 288 518 l 1
 288 566 l 1
 288 614 l 1
 288 662 l 1
 288 710 l 1
 288 758 l 1
 240 758 l 1
 192 758 l 1
 144 758 l 1
 96 758 l 1
 48 758 l 1
720 758 m 1
 720 710 l 1
 720 662 l 1
 720 614 l 1
 720 566 l 1
 720 518 l 1
 768 518 l 1
 816 518 l 1
 864 518 l 1
 912 518 l 1
 960 518 l 1
 960 566 l 1
 960 614 l 1
 960 662 l 1
 960 710 l 1
 960 758 l 1
 912 758 l 1
 864 758 l 1
 816 758 l 1
 768 758 l 1
 720 758 l 1
96 710 m 1
 144 710 l 1
 192 710 l 1
 240 710 l 1
 240 662 l 1
 240 614 l 1
 240 566 l 1
 192 566 l 1
 144 566 l 1
 96 566 l 1
 96 614 l 1
 96 662 l 1
 96 710 l 1
768 710 m 1
 816 710 l 1
 864 710 l 1
 912 710 l 1
 912 662 l 1
 912 614 l 1
 912 566 l 1
 864 566 l 1
 816 566 l 1
 768 566 l 1
 768 614 l 1
 768 662 l 1
 768 710 l 1
0 422 m 1
 48 422 l 1
 48 374 l 1
 0 374 l 1
 0 422 l 1
48 374 m 1
 96 374 l 1
 144 374 l 1
 192 374 l 1
 192 422 l 1
 240 422 l 1
 240 374 l 1
 240 326 l 1
 240 278 l 1
 192 278 l 1
 144 278 l 1
 96 278 l 1
 96 230 l 1
 48 230 l 1
 48 278 l 1
 48 326 l 1
 48 374 l 1
768 374 m 1
 768 326 l 1
 816 326 l 1
 816 374 l 1
 768 374 l 1
288 326 m 1
 336 326 l 1
 384 326 l 1
 384 278 l 1
 336 278 l 1
 288 278 l 1
 288 326 l 1
0 134 m 1
 48 134 l 1
 96 134 l 1
 144 134 l 1
 192 134 l 1
 240 134 l 1
 288 134 l 1
 336 134 l 1
 336 86 l 1
 336 38 l 1
 336 -10 l 1
 336 -58 l 1
 336 -106 l 1
 336 -154 l 1
 336 -202 l 1
 288 -202 l 1
 240 -202 l 1
 192 -202 l 1
 144 -202 l 1
 96 -202 l 1
 48 -202 l 1
 0 -202 l 1
 0 -154 l 1
 0 -106 l 1
 0 -58 l 1
 0 -10 l 1
 0 38 l 1
 0 86 l 1
 0 134 l 1
48 86 m 1
 48 38 l 1
 48 -10 l 1
 48 -58 l 1
 48 -106 l 1
 48 -154 l 1
 96 -154 l 1
 144 -154 l 1
 192 -154 l 1
 240 -154 l 1
 288 -154 l 1
 288 -106 l 1
 288 -58 l 1
 288 -10 l 1
 288 38 l 1
 288 86 l 1
 240 86 l 1
 192 86 l 1
 144 86 l 1
 96 86 l 1
 48 86 l 1
96 38 m 1
 144 38 l 1
 192 38 l 1
 240 38 l 1
 240 -10 l 1
 240 -58 l 1
 240 -106 l 1
 192 -106 l 1
 144 -106 l 1
 96 -106 l 1
 96 -58 l 1
 96 -10 l 1
 96 38 l 1
480 38 m 1
 480 -10 l 1
 528 -10 l 1
 528 38 l 1
 480 38 l 1
768 -10 m 1
 768 -58 l 1
 816 -58 l 1
 816 -10 l 1
 768 -10 l 1
960 -154 m 1
 1008 -154 l 1
 1008 -202 l 1
 960 -202 l 1
 960 -154 l 1
EndSplineSet
EndChar

StartChar: l
Encoding: 108 108 11
Width: 1092
VWidth: 1056
Flags: HW
LayerCount: 2
Fore
SplineSet
0 806 m 1
 48 806 l 1
 96 806 l 1
 144 806 l 1
 192 806 l 1
 240 806 l 1
 288 806 l 1
 336 806 l 1
 336 758 l 1
 336 710 l 1
 336 662 l 1
 336 614 l 1
 336 566 l 1
 336 518 l 1
 336 470 l 1
 288 470 l 1
 240 470 l 1
 192 470 l 1
 144 470 l 1
 96 470 l 1
 48 470 l 1
 0 470 l 1
 0 518 l 1
 0 566 l 1
 0 614 l 1
 0 662 l 1
 0 710 l 1
 0 758 l 1
 0 806 l 1
384 806 m 1
 432 806 l 1
 432 758 l 1
 384 758 l 1
 384 806 l 1
432 758 m 1
 480 758 l 1
 480 710 l 1
 432 710 l 1
 432 758 l 1
480 710 m 1
 528 710 l 1
 576 710 l 1
 576 662 l 1
 624 662 l 1
 624 614 l 1
 624 566 l 1
 576 566 l 1
 576 614 l 1
 528 614 l 1
 528 566 l 1
 576 566 l 1
 576 518 l 1
 528 518 l 1
 528 470 l 1
 576 470 l 1
 576 518 l 1
 624 518 l 1
 624 470 l 1
 624 422 l 1
 576 422 l 1
 576 374 l 1
 624 374 l 1
 624 326 l 1
 576 326 l 1
 576 278 l 1
 528 278 l 1
 528 326 l 1
 480 326 l 1
 480 374 l 1
 528 374 l 1
 528 422 l 1
 480 422 l 1
 480 470 l 1
 480 518 l 1
 432 518 l 1
 432 470 l 1
 432 422 l 1
 432 374 l 1
 432 326 l 1
 480 326 l 1
 480 278 l 1
 480 230 l 1
 432 230 l 1
 432 182 l 1
 432 134 l 1
 432 86 l 1
 384 86 l 1
 384 134 l 1
 384 182 l 1
 384 230 l 1
 384 278 l 1
 384 326 l 1
 384 374 l 1
 336 374 l 1
 288 374 l 1
 288 422 l 1
 336 422 l 1
 384 422 l 1
 384 470 l 1
 384 518 l 1
 384 566 l 1
 384 614 l 1
 384 662 l 1
 432 662 l 1
 432 614 l 1
 480 614 l 1
 480 662 l 1
 480 710 l 1
624 422 m 1
 672 422 l 1
 720 422 l 1
 768 422 l 1
 816 422 l 1
 864 422 l 1
 864 374 l 1
 864 326 l 1
 912 326 l 1
 912 278 l 1
 912 230 l 1
 912 182 l 1
 960 182 l 1
 960 134 l 1
 960 86 l 1
 960 38 l 1
 1008 38 l 1
 1008 -10 l 1
 1008 -58 l 1
 960 -58 l 1
 912 -58 l 1
 912 -10 l 1
 864 -10 l 1
 864 -58 l 1
 912 -58 l 1
 912 -106 l 1
 912 -154 l 1
 912 -202 l 1
 864 -202 l 1
 864 -154 l 1
 864 -106 l 1
 816 -106 l 1
 816 -154 l 1
 768 -154 l 1
 768 -106 l 1
 720 -106 l 1
 720 -154 l 1
 720 -202 l 1
 672 -202 l 1
 624 -202 l 1
 576 -202 l 1
 576 -154 l 1
 624 -154 l 1
 624 -106 l 1
 672 -106 l 1
 672 -58 l 1
 720 -58 l 1
 720 -10 l 1
 672 -10 l 1
 672 38 l 1
 720 38 l 1
 720 86 l 1
 768 86 l 1
 768 38 l 1
 816 38 l 1
 816 86 l 1
 864 86 l 1
 864 38 l 1
 912 38 l 1
 912 86 l 1
 912 134 l 1
 864 134 l 1
 864 182 l 1
 864 230 l 1
 864 278 l 1
 816 278 l 1
 816 230 l 1
 768 230 l 1
 768 278 l 1
 720 278 l 1
 720 230 l 1
 720 182 l 1
 720 134 l 1
 672 134 l 1
 672 86 l 1
 624 86 l 1
 624 38 l 1
 576 38 l 1
 576 -10 l 1
 624 -10 l 1
 624 -58 l 1
 576 -58 l 1
 576 -106 l 1
 528 -106 l 1
 528 -58 l 1
 480 -58 l 1
 480 -10 l 1
 528 -10 l 1
 528 38 l 1
 528 86 l 1
 576 86 l 1
 576 134 l 1
 576 182 l 1
 576 230 l 1
 624 230 l 1
 624 278 l 1
 672 278 l 1
 672 326 l 1
 720 326 l 1
 720 374 l 1
 672 374 l 1
 624 374 l 1
 624 422 l 1
912 326 m 1
 912 374 l 1
 960 374 l 1
 960 422 l 1
 1008 422 l 1
 1008 374 l 1
 1008 326 l 1
 960 326 l 1
 912 326 l 1
528 -106 m 1
 528 -154 l 1
 528 -202 l 1
 480 -202 l 1
 432 -202 l 1
 384 -202 l 1
 384 -154 l 1
 432 -154 l 1
 480 -154 l 1
 480 -106 l 1
 528 -106 l 1
480 -106 m 1
 432 -106 l 1
 432 -58 l 1
 480 -58 l 1
 480 -106 l 1
528 86 m 1
 480 86 l 1
 480 134 l 1
 528 134 l 1
 528 86 l 1
480 86 m 1
 480 38 l 1
 432 38 l 1
 432 86 l 1
 480 86 l 1
432 38 m 1
 432 -10 l 1
 384 -10 l 1
 384 38 l 1
 432 38 l 1
288 374 m 1
 288 326 l 1
 336 326 l 1
 336 278 l 1
 288 278 l 1
 240 278 l 1
 240 230 l 1
 288 230 l 1
 336 230 l 1
 336 182 l 1
 288 182 l 1
 240 182 l 1
 192 182 l 1
 192 230 l 1
 192 278 l 1
 144 278 l 1
 144 326 l 1
 192 326 l 1
 240 326 l 1
 240 374 l 1
 288 374 l 1
144 278 m 1
 144 230 l 1
 96 230 l 1
 96 278 l 1
 144 278 l 1
96 230 m 1
 96 182 l 1
 48 182 l 1
 48 230 l 1
 96 230 l 1
96 278 m 1
 48 278 l 1
 48 326 l 1
 48 374 l 1
 96 374 l 1
 144 374 l 1
 144 326 l 1
 96 326 l 1
 96 278 l 1
48 374 m 1
 0 374 l 1
 0 422 l 1
 48 422 l 1
 48 374 l 1
240 374 m 1
 192 374 l 1
 192 422 l 1
 240 422 l 1
 240 374 l 1
576 806 m 1
 624 806 l 1
 624 758 l 1
 576 758 l 1
 576 806 l 1
672 806 m 1
 720 806 l 1
 768 806 l 1
 816 806 l 1
 864 806 l 1
 912 806 l 1
 960 806 l 1
 1008 806 l 1
 1008 758 l 1
 1008 710 l 1
 1008 662 l 1
 1008 614 l 1
 1008 566 l 1
 1008 518 l 1
 1008 470 l 1
 960 470 l 1
 912 470 l 1
 864 470 l 1
 816 470 l 1
 768 470 l 1
 720 470 l 1
 672 470 l 1
 672 518 l 1
 672 566 l 1
 672 614 l 1
 672 662 l 1
 672 710 l 1
 672 758 l 1
 672 806 l 1
48 758 m 1
 48 710 l 1
 48 662 l 1
 48 614 l 1
 48 566 l 1
 48 518 l 1
 96 518 l 1
 144 518 l 1
 192 518 l 1
 240 518 l 1
 288 518 l 1
 288 566 l 1
 288 614 l 1
 288 662 l 1
 288 710 l 1
 288 758 l 1
 240 758 l 1
 192 758 l 1
 144 758 l 1
 96 758 l 1
 48 758 l 1
720 758 m 1
 720 710 l 1
 720 662 l 1
 720 614 l 1
 720 566 l 1
 720 518 l 1
 768 518 l 1
 816 518 l 1
 864 518 l 1
 912 518 l 1
 960 518 l 1
 960 566 l 1
 960 614 l 1
 960 662 l 1
 960 710 l 1
 960 758 l 1
 912 758 l 1
 864 758 l 1
 816 758 l 1
 768 758 l 1
 720 758 l 1
96 710 m 1
 144 710 l 1
 192 710 l 1
 240 710 l 1
 240 662 l 1
 240 614 l 1
 240 566 l 1
 192 566 l 1
 144 566 l 1
 96 566 l 1
 96 614 l 1
 96 662 l 1
 96 710 l 1
768 710 m 1
 816 710 l 1
 864 710 l 1
 912 710 l 1
 912 662 l 1
 912 614 l 1
 912 566 l 1
 864 566 l 1
 816 566 l 1
 768 566 l 1
 768 614 l 1
 768 662 l 1
 768 710 l 1
768 374 m 1
 768 326 l 1
 816 326 l 1
 816 374 l 1
 768 374 l 1
0 134 m 1
 48 134 l 1
 96 134 l 1
 144 134 l 1
 192 134 l 1
 240 134 l 1
 288 134 l 1
 336 134 l 1
 336 86 l 1
 336 38 l 1
 336 -10 l 1
 336 -58 l 1
 336 -106 l 1
 336 -154 l 1
 336 -202 l 1
 288 -202 l 1
 240 -202 l 1
 192 -202 l 1
 144 -202 l 1
 96 -202 l 1
 48 -202 l 1
 0 -202 l 1
 0 -154 l 1
 0 -106 l 1
 0 -58 l 1
 0 -10 l 1
 0 38 l 1
 0 86 l 1
 0 134 l 1
48 86 m 1
 48 38 l 1
 48 -10 l 1
 48 -58 l 1
 48 -106 l 1
 48 -154 l 1
 96 -154 l 1
 144 -154 l 1
 192 -154 l 1
 240 -154 l 1
 288 -154 l 1
 288 -106 l 1
 288 -58 l 1
 288 -10 l 1
 288 38 l 1
 288 86 l 1
 240 86 l 1
 192 86 l 1
 144 86 l 1
 96 86 l 1
 48 86 l 1
96 38 m 1
 144 38 l 1
 192 38 l 1
 240 38 l 1
 240 -10 l 1
 240 -58 l 1
 240 -106 l 1
 192 -106 l 1
 144 -106 l 1
 96 -106 l 1
 96 -58 l 1
 96 -10 l 1
 96 38 l 1
768 -10 m 1
 768 -58 l 1
 816 -58 l 1
 816 -10 l 1
 768 -10 l 1
960 -154 m 1
 1008 -154 l 1
 1008 -202 l 1
 960 -202 l 1
 960 -154 l 1
EndSplineSet
EndChar

StartChar: m
Encoding: 109 109 12
Width: 1092
VWidth: 1056
Flags: HW
LayerCount: 2
Fore
SplineSet
0 806 m 1
 48 806 l 1
 96 806 l 1
 144 806 l 1
 192 806 l 1
 240 806 l 1
 288 806 l 1
 336 806 l 1
 336 758 l 1
 336 710 l 1
 336 662 l 1
 336 614 l 1
 336 566 l 1
 336 518 l 1
 336 470 l 1
 288 470 l 1
 240 470 l 1
 192 470 l 1
 144 470 l 1
 96 470 l 1
 48 470 l 1
 0 470 l 1
 0 518 l 1
 0 566 l 1
 0 614 l 1
 0 662 l 1
 0 710 l 1
 0 758 l 1
 0 806 l 1
384 806 m 1
 432 806 l 1
 480 806 l 1
 480 758 l 1
 432 758 l 1
 432 710 l 1
 384 710 l 1
 384 758 l 1
 384 806 l 1
432 710 m 1
 480 710 l 1
 480 662 l 1
 480 614 l 1
 432 614 l 1
 384 614 l 1
 384 662 l 1
 432 662 l 1
 432 710 l 1
528 806 m 1
 576 806 l 1
 624 806 l 1
 624 758 l 1
 624 710 l 1
 576 710 l 1
 576 662 l 1
 624 662 l 1
 624 614 l 1
 576 614 l 1
 576 566 l 1
 624 566 l 1
 624 518 l 1
 624 470 l 1
 624 422 l 1
 624 374 l 1
 672 374 l 1
 672 422 l 1
 720 422 l 1
 720 374 l 1
 720 326 l 1
 672 326 l 1
 624 326 l 1
 576 326 l 1
 576 278 l 1
 576 230 l 1
 528 230 l 1
 528 278 l 1
 528 326 l 1
 480 326 l 1
 480 374 l 1
 528 374 l 1
 528 422 l 1
 528 470 l 1
 576 470 l 1
 576 518 l 1
 528 518 l 1
 528 470 l 1
 480 470 l 1
 480 518 l 1
 480 566 l 1
 528 566 l 1
 528 614 l 1
 528 662 l 1
 528 710 l 1
 528 758 l 1
 528 806 l 1
576 230 m 1
 624 230 l 1
 624 182 l 1
 576 182 l 1
 576 230 l 1
576 182 m 1
 576 134 l 1
 624 134 l 1
 624 86 l 1
 576 86 l 1
 528 86 l 1
 528 134 l 1
 528 182 l 1
 576 182 l 1
528 86 m 1
 528 38 l 1
 528 -10 l 1
 576 -10 l 1
 576 -58 l 1
 528 -58 l 1
 528 -106 l 1
 528 -154 l 1
 480 -154 l 1
 432 -154 l 1
 432 -106 l 1
 384 -106 l 1
 384 -58 l 1
 384 -10 l 1
 432 -10 l 1
 432 38 l 1
 384 38 l 1
 384 86 l 1
 384 134 l 1
 384 182 l 1
 432 182 l 1
 432 134 l 1
 432 86 l 1
 480 86 l 1
 528 86 l 1
576 -10 m 1
 576 38 l 1
 624 38 l 1
 672 38 l 1
 720 38 l 1
 720 86 l 1
 720 134 l 1
 768 134 l 1
 768 86 l 1
 816 86 l 1
 816 38 l 1
 816 -10 l 1
 864 -10 l 1
 912 -10 l 1
 960 -10 l 1
 960 -58 l 1
 912 -58 l 1
 864 -58 l 1
 816 -58 l 1
 768 -58 l 1
 768 -106 l 1
 768 -154 l 1
 720 -154 l 1
 720 -106 l 1
 672 -106 l 1
 672 -58 l 1
 672 -10 l 1
 624 -10 l 1
 576 -10 l 1
720 134 m 1
 672 134 l 1
 672 182 l 1
 720 182 l 1
 720 134 l 1
720 182 m 1
 720 230 l 1
 672 230 l 1
 672 278 l 1
 720 278 l 1
 768 278 l 1
 816 278 l 1
 816 326 l 1
 816 374 l 1
 816 422 l 1
 864 422 l 1
 864 374 l 1
 864 326 l 1
 912 326 l 1
 912 278 l 1
 912 230 l 1
 960 230 l 1
 1008 230 l 1
 1008 182 l 1
 960 182 l 1
 912 182 l 1
 864 182 l 1
 864 230 l 1
 816 230 l 1
 768 230 l 1
 768 182 l 1
 720 182 l 1
864 182 m 1
 864 134 l 1
 864 86 l 1
 816 86 l 1
 816 134 l 1
 816 182 l 1
 864 182 l 1
864 86 m 1
 912 86 l 1
 960 86 l 1
 960 38 l 1
 912 38 l 1
 864 38 l 1
 864 86 l 1
960 38 m 1
 1008 38 l 1
 1008 -10 l 1
 960 -10 l 1
 960 38 l 1
768 -154 m 1
 816 -154 l 1
 816 -202 l 1
 768 -202 l 1
 768 -154 l 1
672 -106 m 1
 672 -154 l 1
 672 -202 l 1
 624 -202 l 1
 624 -154 l 1
 624 -106 l 1
 672 -106 l 1
624 -106 m 1
 576 -106 l 1
 576 -58 l 1
 624 -58 l 1
 624 -106 l 1
432 -154 m 1
 432 -202 l 1
 384 -202 l 1
 384 -154 l 1
 432 -154 l 1
432 182 m 1
 432 230 l 1
 480 230 l 1
 480 182 l 1
 432 182 l 1
480 326 m 1
 480 278 l 1
 432 278 l 1
 384 278 l 1
 336 278 l 1
 288 278 l 1
 288 326 l 1
 336 326 l 1
 384 326 l 1
 432 326 l 1
 480 326 l 1
288 278 m 1
 288 230 l 1
 336 230 l 1
 336 182 l 1
 288 182 l 1
 240 182 l 1
 240 230 l 1
 192 230 l 1
 192 182 l 1
 144 182 l 1
 144 230 l 1
 144 278 l 1
 192 278 l 1
 240 278 l 1
 288 278 l 1
288 326 m 1
 240 326 l 1
 240 374 l 1
 240 422 l 1
 288 422 l 1
 336 422 l 1
 384 422 l 1
 384 374 l 1
 336 374 l 1
 288 374 l 1
 288 326 l 1
384 422 m 1
 384 470 l 1
 384 518 l 1
 432 518 l 1
 432 470 l 1
 480 470 l 1
 480 422 l 1
 480 374 l 1
 432 374 l 1
 432 422 l 1
 384 422 l 1
672 806 m 1
 720 806 l 1
 768 806 l 1
 816 806 l 1
 864 806 l 1
 912 806 l 1
 960 806 l 1
 1008 806 l 1
 1008 758 l 1
 1008 710 l 1
 1008 662 l 1
 1008 614 l 1
 1008 566 l 1
 1008 518 l 1
 1008 470 l 1
 960 470 l 1
 912 470 l 1
 864 470 l 1
 816 470 l 1
 768 470 l 1
 720 470 l 1
 672 470 l 1
 672 518 l 1
 672 566 l 1
 672 614 l 1
 672 662 l 1
 672 710 l 1
 672 758 l 1
 672 806 l 1
48 758 m 1
 48 710 l 1
 48 662 l 1
 48 614 l 1
 48 566 l 1
 48 518 l 1
 96 518 l 1
 144 518 l 1
 192 518 l 1
 240 518 l 1
 288 518 l 1
 288 566 l 1
 288 614 l 1
 288 662 l 1
 288 710 l 1
 288 758 l 1
 240 758 l 1
 192 758 l 1
 144 758 l 1
 96 758 l 1
 48 758 l 1
720 758 m 1
 720 710 l 1
 720 662 l 1
 720 614 l 1
 720 566 l 1
 720 518 l 1
 768 518 l 1
 816 518 l 1
 864 518 l 1
 912 518 l 1
 960 518 l 1
 960 566 l 1
 960 614 l 1
 960 662 l 1
 960 710 l 1
 960 758 l 1
 912 758 l 1
 864 758 l 1
 816 758 l 1
 768 758 l 1
 720 758 l 1
96 710 m 1
 144 710 l 1
 192 710 l 1
 240 710 l 1
 240 662 l 1
 240 614 l 1
 240 566 l 1
 192 566 l 1
 144 566 l 1
 96 566 l 1
 96 614 l 1
 96 662 l 1
 96 710 l 1
768 710 m 1
 816 710 l 1
 864 710 l 1
 912 710 l 1
 912 662 l 1
 912 614 l 1
 912 566 l 1
 864 566 l 1
 816 566 l 1
 768 566 l 1
 768 614 l 1
 768 662 l 1
 768 710 l 1
0 422 m 1
 48 422 l 1
 48 374 l 1
 0 374 l 1
 0 422 l 1
48 374 m 1
 96 374 l 1
 96 326 l 1
 96 278 l 1
 48 278 l 1
 48 326 l 1
 48 374 l 1
96 374 m 1
 96 422 l 1
 144 422 l 1
 192 422 l 1
 192 374 l 1
 192 326 l 1
 144 326 l 1
 144 374 l 1
 96 374 l 1
912 422 m 1
 960 422 l 1
 1008 422 l 1
 1008 374 l 1
 960 374 l 1
 912 374 l 1
 912 422 l 1
960 326 m 1
 1008 326 l 1
 1008 278 l 1
 960 278 l 1
 960 326 l 1
48 230 m 1
 96 230 l 1
 96 182 l 1
 48 182 l 1
 48 230 l 1
0 134 m 1
 48 134 l 1
 96 134 l 1
 144 134 l 1
 192 134 l 1
 240 134 l 1
 288 134 l 1
 336 134 l 1
 336 86 l 1
 336 38 l 1
 336 -10 l 1
 336 -58 l 1
 336 -106 l 1
 336 -154 l 1
 336 -202 l 1
 288 -202 l 1
 240 -202 l 1
 192 -202 l 1
 144 -202 l 1
 96 -202 l 1
 48 -202 l 1
 0 -202 l 1
 0 -154 l 1
 0 -106 l 1
 0 -58 l 1
 0 -10 l 1
 0 38 l 1
 0 86 l 1
 0 134 l 1
48 86 m 1
 48 38 l 1
 48 -10 l 1
 48 -58 l 1
 48 -106 l 1
 48 -154 l 1
 96 -154 l 1
 144 -154 l 1
 192 -154 l 1
 240 -154 l 1
 288 -154 l 1
 288 -106 l 1
 288 -58 l 1
 288 -10 l 1
 288 38 l 1
 288 86 l 1
 240 86 l 1
 192 86 l 1
 144 86 l 1
 96 86 l 1
 48 86 l 1
96 38 m 1
 144 38 l 1
 192 38 l 1
 240 38 l 1
 240 -10 l 1
 240 -58 l 1
 240 -106 l 1
 192 -106 l 1
 144 -106 l 1
 96 -106 l 1
 96 -58 l 1
 96 -10 l 1
 96 38 l 1
864 -106 m 1
 912 -106 l 1
 912 -154 l 1
 864 -154 l 1
 864 -106 l 1
960 -106 m 1
 1008 -106 l 1
 1008 -154 l 1
 960 -154 l 1
 960 -106 l 1
EndSplineSet
EndChar

StartChar: n
Encoding: 110 110 13
Width: 1092
VWidth: 1056
Flags: HW
LayerCount: 2
Fore
SplineSet
0 806 m 1
 48 806 l 1
 96 806 l 1
 144 806 l 1
 192 806 l 1
 240 806 l 1
 288 806 l 1
 336 806 l 1
 336 758 l 1
 336 710 l 1
 336 662 l 1
 336 614 l 1
 336 566 l 1
 336 518 l 1
 336 470 l 1
 288 470 l 1
 240 470 l 1
 192 470 l 1
 144 470 l 1
 96 470 l 1
 48 470 l 1
 0 470 l 1
 0 518 l 1
 0 566 l 1
 0 614 l 1
 0 662 l 1
 0 710 l 1
 0 758 l 1
 0 806 l 1
432 806 m 1
 480 806 l 1
 480 758 l 1
 528 758 l 1
 528 806 l 1
 576 806 l 1
 576 758 l 1
 624 758 l 1
 624 710 l 1
 576 710 l 1
 576 662 l 1
 528 662 l 1
 528 710 l 1
 480 710 l 1
 432 710 l 1
 432 758 l 1
 432 806 l 1
576 662 m 1
 624 662 l 1
 624 614 l 1
 624 566 l 1
 576 566 l 1
 576 614 l 1
 576 662 l 1
576 566 m 1
 576 518 l 1
 528 518 l 1
 528 566 l 1
 576 566 l 1
576 518 m 1
 624 518 l 1
 624 470 l 1
 576 470 l 1
 576 518 l 1
528 518 m 1
 528 470 l 1
 528 422 l 1
 576 422 l 1
 576 374 l 1
 624 374 l 1
 672 374 l 1
 672 422 l 1
 720 422 l 1
 768 422 l 1
 816 422 l 1
 864 422 l 1
 912 422 l 1
 912 374 l 1
 864 374 l 1
 864 326 l 1
 816 326 l 1
 816 374 l 1
 768 374 l 1
 720 374 l 1
 720 326 l 1
 768 326 l 1
 768 278 l 1
 720 278 l 1
 720 230 l 1
 672 230 l 1
 624 230 l 1
 624 182 l 1
 624 134 l 1
 576 134 l 1
 576 182 l 1
 576 230 l 1
 528 230 l 1
 480 230 l 1
 480 182 l 1
 432 182 l 1
 432 134 l 1
 384 134 l 1
 384 182 l 1
 384 230 l 1
 432 230 l 1
 432 278 l 1
 432 326 l 1
 480 326 l 1
 480 278 l 1
 528 278 l 1
 576 278 l 1
 576 326 l 1
 528 326 l 1
 528 374 l 1
 480 374 l 1
 480 422 l 1
 480 470 l 1
 480 518 l 1
 528 518 l 1
720 230 m 1
 768 230 l 1
 768 182 l 1
 768 134 l 1
 720 134 l 1
 720 182 l 1
 720 230 l 1
768 134 m 1
 816 134 l 1
 864 134 l 1
 864 182 l 1
 864 230 l 1
 912 230 l 1
 960 230 l 1
 960 278 l 1
 1008 278 l 1
 1008 230 l 1
 1008 182 l 1
 1008 134 l 1
 960 134 l 1
 960 182 l 1
 912 182 l 1
 912 134 l 1
 960 134 l 1
 960 86 l 1
 960 38 l 1
 912 38 l 1
 912 -10 l 1
 864 -10 l 1
 864 -58 l 1
 816 -58 l 1
 816 -10 l 1
 768 -10 l 1
 768 38 l 1
 720 38 l 1
 720 86 l 1
 768 86 l 1
 768 134 l 1
864 230 m 1
 816 230 l 1
 816 278 l 1
 864 278 l 1
 864 230 l 1
624 134 m 1
 672 134 l 1
 672 86 l 1
 624 86 l 1
 624 134 l 1
576 134 m 1
 576 86 l 1
 528 86 l 1
 528 38 l 1
 576 38 l 1
 576 -10 l 1
 624 -10 l 1
 624 38 l 1
 672 38 l 1
 672 -10 l 1
 720 -10 l 1
 720 -58 l 1
 768 -58 l 1
 768 -106 l 1
 720 -106 l 1
 720 -154 l 1
 672 -154 l 1
 624 -154 l 1
 624 -202 l 1
 576 -202 l 1
 576 -154 l 1
 528 -154 l 1
 480 -154 l 1
 480 -202 l 1
 432 -202 l 1
 384 -202 l 1
 384 -154 l 1
 432 -154 l 1
 432 -106 l 1
 384 -106 l 1
 384 -58 l 1
 384 -10 l 1
 384 38 l 1
 384 86 l 1
 432 86 l 1
 432 38 l 1
 480 38 l 1
 480 86 l 1
 480 134 l 1
 528 134 l 1
 576 134 l 1
720 -154 m 1
 768 -154 l 1
 768 -202 l 1
 720 -202 l 1
 720 -154 l 1
384 230 m 1
 336 230 l 1
 336 278 l 1
 384 278 l 1
 384 230 l 1
336 230 m 1
 336 182 l 1
 288 182 l 1
 288 230 l 1
 336 230 l 1
288 230 m 1
 240 230 l 1
 240 278 l 1
 288 278 l 1
 288 230 l 1
240 230 m 1
 240 182 l 1
 192 182 l 1
 144 182 l 1
 144 230 l 1
 192 230 l 1
 240 230 l 1
288 278 m 1
 288 326 l 1
 336 326 l 1
 336 278 l 1
 288 278 l 1
288 326 m 1
 240 326 l 1
 192 326 l 1
 192 278 l 1
 144 278 l 1
 144 326 l 1
 96 326 l 1
 96 278 l 1
 96 230 l 1
 48 230 l 1
 48 278 l 1
 48 326 l 1
 48 374 l 1
 96 374 l 1
 96 422 l 1
 144 422 l 1
 192 422 l 1
 240 422 l 1
 288 422 l 1
 336 422 l 1
 336 374 l 1
 288 374 l 1
 288 326 l 1
48 374 m 1
 0 374 l 1
 0 422 l 1
 48 422 l 1
 48 374 l 1
336 374 m 1
 384 374 l 1
 432 374 l 1
 432 326 l 1
 384 326 l 1
 336 326 l 1
 336 374 l 1
480 518 m 1
 432 518 l 1
 432 470 l 1
 432 422 l 1
 384 422 l 1
 384 470 l 1
 384 518 l 1
 384 566 l 1
 384 614 l 1
 384 662 l 1
 384 710 l 1
 432 710 l 1
 432 662 l 1
 432 614 l 1
 480 614 l 1
 480 566 l 1
 480 518 l 1
480 614 m 1
 480 662 l 1
 528 662 l 1
 528 614 l 1
 480 614 l 1
672 806 m 1
 720 806 l 1
 768 806 l 1
 816 806 l 1
 864 806 l 1
 912 806 l 1
 960 806 l 1
 1008 806 l 1
 1008 758 l 1
 1008 710 l 1
 1008 662 l 1
 1008 614 l 1
 1008 566 l 1
 1008 518 l 1
 1008 470 l 1
 960 470 l 1
 912 470 l 1
 864 470 l 1
 816 470 l 1
 768 470 l 1
 720 470 l 1
 672 470 l 1
 672 518 l 1
 672 566 l 1
 672 614 l 1
 672 662 l 1
 672 710 l 1
 672 758 l 1
 672 806 l 1
48 758 m 1
 48 710 l 1
 48 662 l 1
 48 614 l 1
 48 566 l 1
 48 518 l 1
 96 518 l 1
 144 518 l 1
 192 518 l 1
 240 518 l 1
 288 518 l 1
 288 566 l 1
 288 614 l 1
 288 662 l 1
 288 710 l 1
 288 758 l 1
 240 758 l 1
 192 758 l 1
 144 758 l 1
 96 758 l 1
 48 758 l 1
720 758 m 1
 720 710 l 1
 720 662 l 1
 720 614 l 1
 720 566 l 1
 720 518 l 1
 768 518 l 1
 816 518 l 1
 864 518 l 1
 912 518 l 1
 960 518 l 1
 960 566 l 1
 960 614 l 1
 960 662 l 1
 960 710 l 1
 960 758 l 1
 912 758 l 1
 864 758 l 1
 816 758 l 1
 768 758 l 1
 720 758 l 1
96 710 m 1
 144 710 l 1
 192 710 l 1
 240 710 l 1
 240 662 l 1
 240 614 l 1
 240 566 l 1
 192 566 l 1
 144 566 l 1
 96 566 l 1
 96 614 l 1
 96 662 l 1
 96 710 l 1
768 710 m 1
 816 710 l 1
 864 710 l 1
 912 710 l 1
 912 662 l 1
 912 614 l 1
 912 566 l 1
 864 566 l 1
 816 566 l 1
 768 566 l 1
 768 614 l 1
 768 662 l 1
 768 710 l 1
624 326 m 1
 624 278 l 1
 672 278 l 1
 672 326 l 1
 624 326 l 1
0 134 m 1
 48 134 l 1
 96 134 l 1
 144 134 l 1
 192 134 l 1
 240 134 l 1
 288 134 l 1
 336 134 l 1
 336 86 l 1
 336 38 l 1
 336 -10 l 1
 336 -58 l 1
 336 -106 l 1
 336 -154 l 1
 336 -202 l 1
 288 -202 l 1
 240 -202 l 1
 192 -202 l 1
 144 -202 l 1
 96 -202 l 1
 48 -202 l 1
 0 -202 l 1
 0 -154 l 1
 0 -106 l 1
 0 -58 l 1
 0 -10 l 1
 0 38 l 1
 0 86 l 1
 0 134 l 1
48 86 m 1
 48 38 l 1
 48 -10 l 1
 48 -58 l 1
 48 -106 l 1
 48 -154 l 1
 96 -154 l 1
 144 -154 l 1
 192 -154 l 1
 240 -154 l 1
 288 -154 l 1
 288 -106 l 1
 288 -58 l 1
 288 -10 l 1
 288 38 l 1
 288 86 l 1
 240 86 l 1
 192 86 l 1
 144 86 l 1
 96 86 l 1
 48 86 l 1
816 86 m 1
 816 38 l 1
 864 38 l 1
 864 86 l 1
 816 86 l 1
96 38 m 1
 144 38 l 1
 192 38 l 1
 240 38 l 1
 240 -10 l 1
 240 -58 l 1
 240 -106 l 1
 192 -106 l 1
 144 -106 l 1
 96 -106 l 1
 96 -58 l 1
 96 -10 l 1
 96 38 l 1
480 -10 m 1
 480 -58 l 1
 528 -58 l 1
 528 -106 l 1
 576 -106 l 1
 576 -58 l 1
 528 -58 l 1
 528 -10 l 1
 480 -10 l 1
624 -58 m 1
 624 -106 l 1
 672 -106 l 1
 672 -58 l 1
 624 -58 l 1
816 -106 m 1
 864 -106 l 1
 864 -154 l 1
 816 -154 l 1
 816 -106 l 1
864 -154 m 1
 912 -154 l 1
 960 -154 l 1
 960 -202 l 1
 912 -202 l 1
 864 -202 l 1
 864 -154 l 1
EndSplineSet
EndChar

StartChar: o
Encoding: 111 111 14
Width: 1092
VWidth: 1056
Flags: HW
LayerCount: 2
Fore
SplineSet
0 806 m 1
 48 806 l 1
 96 806 l 1
 144 806 l 1
 192 806 l 1
 240 806 l 1
 288 806 l 1
 336 806 l 1
 336 758 l 1
 336 710 l 1
 336 662 l 1
 336 614 l 1
 336 566 l 1
 336 518 l 1
 336 470 l 1
 288 470 l 1
 240 470 l 1
 192 470 l 1
 144 470 l 1
 96 470 l 1
 48 470 l 1
 0 470 l 1
 0 518 l 1
 0 566 l 1
 0 614 l 1
 0 662 l 1
 0 710 l 1
 0 758 l 1
 0 806 l 1
432 806 m 1
 480 806 l 1
 480 758 l 1
 432 758 l 1
 432 806 l 1
480 758 m 1
 528 758 l 1
 576 758 l 1
 624 758 l 1
 624 710 l 1
 576 710 l 1
 528 710 l 1
 528 662 l 1
 576 662 l 1
 576 614 l 1
 528 614 l 1
 528 566 l 1
 576 566 l 1
 576 518 l 1
 528 518 l 1
 528 470 l 1
 528 422 l 1
 480 422 l 1
 480 470 l 1
 480 518 l 1
 480 566 l 1
 480 614 l 1
 432 614 l 1
 432 566 l 1
 432 518 l 1
 432 470 l 1
 432 422 l 1
 384 422 l 1
 384 470 l 1
 384 518 l 1
 384 566 l 1
 384 614 l 1
 384 662 l 1
 384 710 l 1
 432 710 l 1
 432 662 l 1
 480 662 l 1
 480 710 l 1
 480 758 l 1
576 614 m 1
 624 614 l 1
 624 566 l 1
 576 566 l 1
 576 614 l 1
576 518 m 1
 624 518 l 1
 624 470 l 1
 576 470 l 1
 576 518 l 1
528 422 m 1
 576 422 l 1
 576 374 l 1
 624 374 l 1
 672 374 l 1
 672 422 l 1
 720 422 l 1
 768 422 l 1
 816 422 l 1
 864 422 l 1
 912 422 l 1
 912 374 l 1
 864 374 l 1
 864 326 l 1
 816 326 l 1
 816 374 l 1
 768 374 l 1
 720 374 l 1
 720 326 l 1
 768 326 l 1
 768 278 l 1
 720 278 l 1
 720 230 l 1
 672 230 l 1
 624 230 l 1
 624 182 l 1
 624 134 l 1
 576 134 l 1
 576 182 l 1
 576 230 l 1
 528 230 l 1
 480 230 l 1
 480 182 l 1
 432 182 l 1
 432 134 l 1
 384 134 l 1
 384 182 l 1
 336 182 l 1
 288 182 l 1
 288 230 l 1
 336 230 l 1
 384 230 l 1
 384 278 l 1
 336 278 l 1
 288 278 l 1
 288 230 l 1
 240 230 l 1
 240 278 l 1
 240 326 l 1
 192 326 l 1
 192 278 l 1
 144 278 l 1
 144 230 l 1
 192 230 l 1
 192 182 l 1
 144 182 l 1
 96 182 l 1
 48 182 l 1
 48 230 l 1
 96 230 l 1
 96 278 l 1
 48 278 l 1
 48 326 l 1
 96 326 l 1
 96 374 l 1
 96 422 l 1
 144 422 l 1
 192 422 l 1
 240 422 l 1
 288 422 l 1
 336 422 l 1
 336 374 l 1
 288 374 l 1
 288 326 l 1
 336 326 l 1
 384 326 l 1
 384 374 l 1
 432 374 l 1
 432 422 l 1
 480 422 l 1
 480 374 l 1
 480 326 l 1
 432 326 l 1
 432 278 l 1
 480 278 l 1
 480 326 l 1
 528 326 l 1
 528 278 l 1
 576 278 l 1
 576 326 l 1
 528 326 l 1
 528 374 l 1
 528 422 l 1
720 230 m 1
 768 230 l 1
 768 182 l 1
 768 134 l 1
 720 134 l 1
 720 182 l 1
 720 230 l 1
768 134 m 1
 816 134 l 1
 864 134 l 1
 864 182 l 1
 864 230 l 1
 912 230 l 1
 912 278 l 1
 960 278 l 1
 1008 278 l 1
 1008 230 l 1
 1008 182 l 1
 1008 134 l 1
 960 134 l 1
 960 182 l 1
 912 182 l 1
 912 134 l 1
 960 134 l 1
 960 86 l 1
 960 38 l 1
 912 38 l 1
 912 -10 l 1
 864 -10 l 1
 864 -58 l 1
 816 -58 l 1
 816 -10 l 1
 768 -10 l 1
 768 38 l 1
 720 38 l 1
 720 86 l 1
 768 86 l 1
 768 134 l 1
864 230 m 1
 816 230 l 1
 816 278 l 1
 864 278 l 1
 864 230 l 1
624 134 m 1
 672 134 l 1
 672 86 l 1
 624 86 l 1
 624 134 l 1
576 134 m 1
 576 86 l 1
 528 86 l 1
 528 134 l 1
 576 134 l 1
528 86 m 1
 528 38 l 1
 480 38 l 1
 480 86 l 1
 528 86 l 1
528 38 m 1
 576 38 l 1
 576 -10 l 1
 624 -10 l 1
 624 38 l 1
 672 38 l 1
 672 -10 l 1
 720 -10 l 1
 720 -58 l 1
 768 -58 l 1
 768 -106 l 1
 720 -106 l 1
 720 -154 l 1
 672 -154 l 1
 624 -154 l 1
 624 -202 l 1
 576 -202 l 1
 576 -154 l 1
 528 -154 l 1
 528 -106 l 1
 576 -106 l 1
 576 -58 l 1
 528 -58 l 1
 528 -106 l 1
 480 -106 l 1
 480 -154 l 1
 432 -154 l 1
 432 -106 l 1
 384 -106 l 1
 384 -58 l 1
 384 -10 l 1
 384 38 l 1
 384 86 l 1
 432 86 l 1
 432 38 l 1
 432 -10 l 1
 432 -58 l 1
 480 -58 l 1
 480 -10 l 1
 528 -10 l 1
 528 38 l 1
720 -154 m 1
 768 -154 l 1
 768 -202 l 1
 720 -202 l 1
 720 -154 l 1
432 -154 m 1
 432 -202 l 1
 384 -202 l 1
 384 -154 l 1
 432 -154 l 1
432 86 m 1
 432 134 l 1
 480 134 l 1
 480 86 l 1
 432 86 l 1
672 806 m 1
 720 806 l 1
 768 806 l 1
 816 806 l 1
 864 806 l 1
 912 806 l 1
 960 806 l 1
 1008 806 l 1
 1008 758 l 1
 1008 710 l 1
 1008 662 l 1
 1008 614 l 1
 1008 566 l 1
 1008 518 l 1
 1008 470 l 1
 960 470 l 1
 912 470 l 1
 864 470 l 1
 816 470 l 1
 768 470 l 1
 720 470 l 1
 672 470 l 1
 672 518 l 1
 672 566 l 1
 672 614 l 1
 672 662 l 1
 672 710 l 1
 672 758 l 1
 672 806 l 1
48 758 m 1
 48 710 l 1
 48 662 l 1
 48 614 l 1
 48 566 l 1
 48 518 l 1
 96 518 l 1
 144 518 l 1
 192 518 l 1
 240 518 l 1
 288 518 l 1
 288 566 l 1
 288 614 l 1
 288 662 l 1
 288 710 l 1
 288 758 l 1
 240 758 l 1
 192 758 l 1
 144 758 l 1
 96 758 l 1
 48 758 l 1
720 758 m 1
 720 710 l 1
 720 662 l 1
 720 614 l 1
 720 566 l 1
 720 518 l 1
 768 518 l 1
 816 518 l 1
 864 518 l 1
 912 518 l 1
 960 518 l 1
 960 566 l 1
 960 614 l 1
 960 662 l 1
 960 710 l 1
 960 758 l 1
 912 758 l 1
 864 758 l 1
 816 758 l 1
 768 758 l 1
 720 758 l 1
96 710 m 1
 144 710 l 1
 192 710 l 1
 240 710 l 1
 240 662 l 1
 240 614 l 1
 240 566 l 1
 192 566 l 1
 144 566 l 1
 96 566 l 1
 96 614 l 1
 96 662 l 1
 96 710 l 1
768 710 m 1
 816 710 l 1
 864 710 l 1
 912 710 l 1
 912 662 l 1
 912 614 l 1
 912 566 l 1
 864 566 l 1
 816 566 l 1
 768 566 l 1
 768 614 l 1
 768 662 l 1
 768 710 l 1
0 422 m 1
 48 422 l 1
 48 374 l 1
 0 374 l 1
 0 422 l 1
624 326 m 1
 624 278 l 1
 672 278 l 1
 672 326 l 1
 624 326 l 1
0 134 m 1
 48 134 l 1
 96 134 l 1
 144 134 l 1
 192 134 l 1
 240 134 l 1
 288 134 l 1
 336 134 l 1
 336 86 l 1
 336 38 l 1
 336 -10 l 1
 336 -58 l 1
 336 -106 l 1
 336 -154 l 1
 336 -202 l 1
 288 -202 l 1
 240 -202 l 1
 192 -202 l 1
 144 -202 l 1
 96 -202 l 1
 48 -202 l 1
 0 -202 l 1
 0 -154 l 1
 0 -106 l 1
 0 -58 l 1
 0 -10 l 1
 0 38 l 1
 0 86 l 1
 0 134 l 1
48 86 m 1
 48 38 l 1
 48 -10 l 1
 48 -58 l 1
 48 -106 l 1
 48 -154 l 1
 96 -154 l 1
 144 -154 l 1
 192 -154 l 1
 240 -154 l 1
 288 -154 l 1
 288 -106 l 1
 288 -58 l 1
 288 -10 l 1
 288 38 l 1
 288 86 l 1
 240 86 l 1
 192 86 l 1
 144 86 l 1
 96 86 l 1
 48 86 l 1
816 86 m 1
 816 38 l 1
 864 38 l 1
 864 86 l 1
 816 86 l 1
96 38 m 1
 144 38 l 1
 192 38 l 1
 240 38 l 1
 240 -10 l 1
 240 -58 l 1
 240 -106 l 1
 192 -106 l 1
 144 -106 l 1
 96 -106 l 1
 96 -58 l 1
 96 -10 l 1
 96 38 l 1
624 -58 m 1
 624 -106 l 1
 672 -106 l 1
 672 -58 l 1
 624 -58 l 1
816 -106 m 1
 864 -106 l 1
 864 -154 l 1
 816 -154 l 1
 816 -106 l 1
864 -154 m 1
 912 -154 l 1
 960 -154 l 1
 960 -202 l 1
 912 -202 l 1
 864 -202 l 1
 864 -154 l 1
EndSplineSet
EndChar

StartChar: p
Encoding: 112 112 15
Width: 1092
VWidth: 1056
Flags: HW
LayerCount: 2
Fore
SplineSet
0 806 m 1
 48 806 l 1
 96 806 l 1
 144 806 l 1
 192 806 l 1
 240 806 l 1
 288 806 l 1
 336 806 l 1
 336 758 l 1
 336 710 l 1
 336 662 l 1
 336 614 l 1
 336 566 l 1
 336 518 l 1
 336 470 l 1
 288 470 l 1
 240 470 l 1
 192 470 l 1
 144 470 l 1
 96 470 l 1
 48 470 l 1
 0 470 l 1
 0 518 l 1
 0 566 l 1
 0 614 l 1
 0 662 l 1
 0 710 l 1
 0 758 l 1
 0 806 l 1
432 806 m 1
 480 806 l 1
 480 758 l 1
 432 758 l 1
 432 806 l 1
480 758 m 1
 528 758 l 1
 576 758 l 1
 576 806 l 1
 624 806 l 1
 624 758 l 1
 624 710 l 1
 576 710 l 1
 576 662 l 1
 528 662 l 1
 480 662 l 1
 480 710 l 1
 480 758 l 1
576 662 m 1
 624 662 l 1
 624 614 l 1
 624 566 l 1
 624 518 l 1
 624 470 l 1
 624 422 l 1
 576 422 l 1
 528 422 l 1
 480 422 l 1
 480 374 l 1
 528 374 l 1
 528 326 l 1
 480 326 l 1
 432 326 l 1
 432 374 l 1
 384 374 l 1
 384 422 l 1
 432 422 l 1
 432 470 l 1
 480 470 l 1
 480 518 l 1
 480 566 l 1
 528 566 l 1
 576 566 l 1
 576 614 l 1
 576 662 l 1
624 422 m 1
 672 422 l 1
 672 374 l 1
 624 374 l 1
 624 422 l 1
672 374 m 1
 720 374 l 1
 720 326 l 1
 672 326 l 1
 672 374 l 1
720 374 m 1
 720 422 l 1
 768 422 l 1
 768 374 l 1
 720 374 l 1
672 326 m 1
 672 278 l 1
 624 278 l 1
 576 278 l 1
 576 326 l 1
 624 326 l 1
 672 326 l 1
576 278 m 1
 576 230 l 1
 528 230 l 1
 480 230 l 1
 480 278 l 1
 528 278 l 1
 576 278 l 1
576 230 m 1
 624 230 l 1
 624 182 l 1
 576 182 l 1
 576 230 l 1
576 182 m 1
 576 134 l 1
 528 134 l 1
 528 182 l 1
 576 182 l 1
480 230 m 1
 480 182 l 1
 480 134 l 1
 480 86 l 1
 432 86 l 1
 432 134 l 1
 384 134 l 1
 384 182 l 1
 432 182 l 1
 432 230 l 1
 480 230 l 1
480 86 m 1
 528 86 l 1
 576 86 l 1
 624 86 l 1
 624 134 l 1
 672 134 l 1
 672 86 l 1
 672 38 l 1
 624 38 l 1
 576 38 l 1
 576 -10 l 1
 576 -58 l 1
 528 -58 l 1
 528 -10 l 1
 480 -10 l 1
 480 -58 l 1
 432 -58 l 1
 384 -58 l 1
 384 -10 l 1
 432 -10 l 1
 432 38 l 1
 480 38 l 1
 480 86 l 1
672 38 m 1
 720 38 l 1
 720 86 l 1
 720 134 l 1
 720 182 l 1
 768 182 l 1
 768 230 l 1
 816 230 l 1
 816 182 l 1
 864 182 l 1
 864 134 l 1
 816 134 l 1
 768 134 l 1
 768 86 l 1
 816 86 l 1
 864 86 l 1
 864 38 l 1
 912 38 l 1
 960 38 l 1
 1008 38 l 1
 1008 -10 l 1
 1008 -58 l 1
 1008 -106 l 1
 960 -106 l 1
 960 -58 l 1
 912 -58 l 1
 864 -58 l 1
 816 -58 l 1
 816 -10 l 1
 768 -10 l 1
 720 -10 l 1
 672 -10 l 1
 672 38 l 1
720 182 m 1
 672 182 l 1
 672 230 l 1
 720 230 l 1
 720 182 l 1
816 230 m 1
 816 278 l 1
 864 278 l 1
 912 278 l 1
 912 326 l 1
 864 326 l 1
 864 374 l 1
 912 374 l 1
 960 374 l 1
 960 326 l 1
 1008 326 l 1
 1008 278 l 1
 1008 230 l 1
 1008 182 l 1
 1008 134 l 1
 960 134 l 1
 960 86 l 1
 912 86 l 1
 864 86 l 1
 864 134 l 1
 912 134 l 1
 912 182 l 1
 960 182 l 1
 960 230 l 1
 912 230 l 1
 912 182 l 1
 864 182 l 1
 864 230 l 1
 816 230 l 1
816 -58 m 1
 816 -106 l 1
 816 -154 l 1
 864 -154 l 1
 864 -106 l 1
 912 -106 l 1
 912 -154 l 1
 960 -154 l 1
 960 -202 l 1
 912 -202 l 1
 864 -202 l 1
 816 -202 l 1
 768 -202 l 1
 768 -154 l 1
 768 -106 l 1
 768 -58 l 1
 816 -58 l 1
576 -58 m 1
 624 -58 l 1
 624 -106 l 1
 576 -106 l 1
 576 -58 l 1
624 -106 m 1
 672 -106 l 1
 720 -106 l 1
 720 -154 l 1
 672 -154 l 1
 624 -154 l 1
 624 -106 l 1
624 -154 m 1
 624 -202 l 1
 576 -202 l 1
 528 -202 l 1
 480 -202 l 1
 480 -154 l 1
 480 -106 l 1
 528 -106 l 1
 528 -154 l 1
 576 -154 l 1
 624 -154 l 1
432 38 m 1
 384 38 l 1
 384 86 l 1
 432 86 l 1
 432 38 l 1
384 182 m 1
 336 182 l 1
 288 182 l 1
 288 230 l 1
 336 230 l 1
 384 230 l 1
 384 182 l 1
288 230 m 1
 240 230 l 1
 240 278 l 1
 240 326 l 1
 240 374 l 1
 240 422 l 1
 288 422 l 1
 336 422 l 1
 336 374 l 1
 288 374 l 1
 288 326 l 1
 336 326 l 1
 336 374 l 1
 384 374 l 1
 384 326 l 1
 432 326 l 1
 432 278 l 1
 432 230 l 1
 384 230 l 1
 384 278 l 1
 336 278 l 1
 288 278 l 1
 288 230 l 1
240 230 m 1
 240 182 l 1
 192 182 l 1
 144 182 l 1
 96 182 l 1
 48 182 l 1
 48 230 l 1
 48 278 l 1
 48 326 l 1
 48 374 l 1
 96 374 l 1
 144 374 l 1
 144 422 l 1
 192 422 l 1
 192 374 l 1
 192 326 l 1
 144 326 l 1
 96 326 l 1
 96 278 l 1
 96 230 l 1
 144 230 l 1
 192 230 l 1
 240 230 l 1
48 374 m 1
 0 374 l 1
 0 422 l 1
 48 422 l 1
 48 374 l 1
432 470 m 1
 384 470 l 1
 384 518 l 1
 384 566 l 1
 432 566 l 1
 432 518 l 1
 432 470 l 1
672 806 m 1
 720 806 l 1
 768 806 l 1
 816 806 l 1
 864 806 l 1
 912 806 l 1
 960 806 l 1
 1008 806 l 1
 1008 758 l 1
 1008 710 l 1
 1008 662 l 1
 1008 614 l 1
 1008 566 l 1
 1008 518 l 1
 1008 470 l 1
 960 470 l 1
 912 470 l 1
 864 470 l 1
 816 470 l 1
 768 470 l 1
 720 470 l 1
 672 470 l 1
 672 518 l 1
 672 566 l 1
 672 614 l 1
 672 662 l 1
 672 710 l 1
 672 758 l 1
 672 806 l 1
48 758 m 1
 48 710 l 1
 48 662 l 1
 48 614 l 1
 48 566 l 1
 48 518 l 1
 96 518 l 1
 144 518 l 1
 192 518 l 1
 240 518 l 1
 288 518 l 1
 288 566 l 1
 288 614 l 1
 288 662 l 1
 288 710 l 1
 288 758 l 1
 240 758 l 1
 192 758 l 1
 144 758 l 1
 96 758 l 1
 48 758 l 1
720 758 m 1
 720 710 l 1
 720 662 l 1
 720 614 l 1
 720 566 l 1
 720 518 l 1
 768 518 l 1
 816 518 l 1
 864 518 l 1
 912 518 l 1
 960 518 l 1
 960 566 l 1
 960 614 l 1
 960 662 l 1
 960 710 l 1
 960 758 l 1
 912 758 l 1
 864 758 l 1
 816 758 l 1
 768 758 l 1
 720 758 l 1
96 710 m 1
 144 710 l 1
 192 710 l 1
 240 710 l 1
 240 662 l 1
 240 614 l 1
 240 566 l 1
 192 566 l 1
 144 566 l 1
 96 566 l 1
 96 614 l 1
 96 662 l 1
 96 710 l 1
768 710 m 1
 816 710 l 1
 864 710 l 1
 912 710 l 1
 912 662 l 1
 912 614 l 1
 912 566 l 1
 864 566 l 1
 816 566 l 1
 768 566 l 1
 768 614 l 1
 768 662 l 1
 768 710 l 1
528 518 m 1
 528 470 l 1
 576 470 l 1
 576 518 l 1
 528 518 l 1
0 134 m 1
 48 134 l 1
 96 134 l 1
 144 134 l 1
 192 134 l 1
 240 134 l 1
 288 134 l 1
 336 134 l 1
 336 86 l 1
 336 38 l 1
 336 -10 l 1
 336 -58 l 1
 336 -106 l 1
 336 -154 l 1
 336 -202 l 1
 288 -202 l 1
 240 -202 l 1
 192 -202 l 1
 144 -202 l 1
 96 -202 l 1
 48 -202 l 1
 0 -202 l 1
 0 -154 l 1
 0 -106 l 1
 0 -58 l 1
 0 -10 l 1
 0 38 l 1
 0 86 l 1
 0 134 l 1
48 86 m 1
 48 38 l 1
 48 -10 l 1
 48 -58 l 1
 48 -106 l 1
 48 -154 l 1
 96 -154 l 1
 144 -154 l 1
 192 -154 l 1
 240 -154 l 1
 288 -154 l 1
 288 -106 l 1
 288 -58 l 1
 288 -10 l 1
 288 38 l 1
 288 86 l 1
 240 86 l 1
 192 86 l 1
 144 86 l 1
 96 86 l 1
 48 86 l 1
96 38 m 1
 144 38 l 1
 192 38 l 1
 240 38 l 1
 240 -10 l 1
 240 -58 l 1
 240 -106 l 1
 192 -106 l 1
 144 -106 l 1
 96 -106 l 1
 96 -58 l 1
 96 -10 l 1
 96 38 l 1
384 -154 m 1
 432 -154 l 1
 432 -202 l 1
 384 -202 l 1
 384 -154 l 1
EndSplineSet
EndChar

StartChar: q
Encoding: 113 113 16
Width: 1092
VWidth: 1056
Flags: HW
LayerCount: 2
Fore
SplineSet
0 806 m 1
 48 806 l 1
 96 806 l 1
 144 806 l 1
 192 806 l 1
 240 806 l 1
 288 806 l 1
 336 806 l 1
 336 758 l 1
 336 710 l 1
 336 662 l 1
 336 614 l 1
 336 566 l 1
 336 518 l 1
 336 470 l 1
 288 470 l 1
 240 470 l 1
 192 470 l 1
 144 470 l 1
 96 470 l 1
 48 470 l 1
 0 470 l 1
 0 518 l 1
 0 566 l 1
 0 614 l 1
 0 662 l 1
 0 710 l 1
 0 758 l 1
 0 806 l 1
480 806 m 1
 528 806 l 1
 576 806 l 1
 624 806 l 1
 624 758 l 1
 576 758 l 1
 528 758 l 1
 480 758 l 1
 480 806 l 1
480 758 m 1
 480 710 l 1
 528 710 l 1
 576 710 l 1
 576 662 l 1
 528 662 l 1
 480 662 l 1
 480 614 l 1
 432 614 l 1
 432 566 l 1
 480 566 l 1
 480 518 l 1
 432 518 l 1
 432 470 l 1
 480 470 l 1
 480 422 l 1
 480 374 l 1
 432 374 l 1
 432 422 l 1
 384 422 l 1
 384 470 l 1
 384 518 l 1
 384 566 l 1
 384 614 l 1
 384 662 l 1
 384 710 l 1
 432 710 l 1
 432 758 l 1
 480 758 l 1
576 662 m 1
 624 662 l 1
 624 614 l 1
 624 566 l 1
 576 566 l 1
 576 614 l 1
 576 662 l 1
576 566 m 1
 576 518 l 1
 528 518 l 1
 528 566 l 1
 576 566 l 1
576 518 m 1
 624 518 l 1
 624 470 l 1
 576 470 l 1
 576 518 l 1
528 518 m 1
 528 470 l 1
 480 470 l 1
 480 518 l 1
 528 518 l 1
528 566 m 1
 480 566 l 1
 480 614 l 1
 528 614 l 1
 528 566 l 1
480 374 m 1
 528 374 l 1
 528 422 l 1
 576 422 l 1
 576 374 l 1
 624 374 l 1
 672 374 l 1
 672 422 l 1
 720 422 l 1
 768 422 l 1
 816 422 l 1
 864 422 l 1
 912 422 l 1
 912 374 l 1
 864 374 l 1
 864 326 l 1
 816 326 l 1
 816 374 l 1
 768 374 l 1
 720 374 l 1
 720 326 l 1
 768 326 l 1
 768 278 l 1
 720 278 l 1
 720 230 l 1
 672 230 l 1
 624 230 l 1
 624 182 l 1
 624 134 l 1
 576 134 l 1
 576 182 l 1
 576 230 l 1
 528 230 l 1
 528 182 l 1
 528 134 l 1
 480 134 l 1
 480 86 l 1
 432 86 l 1
 432 134 l 1
 384 134 l 1
 384 182 l 1
 384 230 l 1
 384 278 l 1
 336 278 l 1
 288 278 l 1
 288 326 l 1
 336 326 l 1
 336 374 l 1
 384 374 l 1
 384 326 l 1
 432 326 l 1
 432 278 l 1
 432 230 l 1
 432 182 l 1
 480 182 l 1
 480 230 l 1
 480 278 l 1
 480 326 l 1
 480 374 l 1
720 230 m 1
 768 230 l 1
 768 182 l 1
 768 134 l 1
 720 134 l 1
 720 182 l 1
 720 230 l 1
768 134 m 1
 816 134 l 1
 864 134 l 1
 864 182 l 1
 864 230 l 1
 912 230 l 1
 912 182 l 1
 960 182 l 1
 1008 182 l 1
 1008 134 l 1
 960 134 l 1
 960 86 l 1
 960 38 l 1
 912 38 l 1
 912 -10 l 1
 864 -10 l 1
 864 -58 l 1
 816 -58 l 1
 816 -10 l 1
 768 -10 l 1
 768 38 l 1
 720 38 l 1
 720 86 l 1
 768 86 l 1
 768 134 l 1
864 230 m 1
 816 230 l 1
 816 278 l 1
 864 278 l 1
 864 230 l 1
912 230 m 1
 912 278 l 1
 960 278 l 1
 960 230 l 1
 912 230 l 1
624 134 m 1
 672 134 l 1
 672 86 l 1
 624 86 l 1
 624 134 l 1
576 134 m 1
 576 86 l 1
 528 86 l 1
 528 134 l 1
 576 134 l 1
528 86 m 1
 528 38 l 1
 480 38 l 1
 480 86 l 1
 528 86 l 1
528 38 m 1
 576 38 l 1
 576 -10 l 1
 624 -10 l 1
 624 38 l 1
 672 38 l 1
 672 -10 l 1
 720 -10 l 1
 720 -58 l 1
 768 -58 l 1
 768 -106 l 1
 720 -106 l 1
 720 -154 l 1
 672 -154 l 1
 624 -154 l 1
 624 -202 l 1
 576 -202 l 1
 576 -154 l 1
 528 -154 l 1
 480 -154 l 1
 480 -106 l 1
 432 -106 l 1
 384 -106 l 1
 384 -58 l 1
 384 -10 l 1
 384 38 l 1
 384 86 l 1
 432 86 l 1
 432 38 l 1
 480 38 l 1
 480 -10 l 1
 432 -10 l 1
 432 -58 l 1
 480 -58 l 1
 480 -10 l 1
 528 -10 l 1
 528 38 l 1
720 -154 m 1
 768 -154 l 1
 768 -202 l 1
 720 -202 l 1
 720 -154 l 1
288 278 m 1
 288 230 l 1
 240 230 l 1
 240 278 l 1
 288 278 l 1
288 230 m 1
 336 230 l 1
 336 182 l 1
 288 182 l 1
 288 230 l 1
240 230 m 1
 240 182 l 1
 192 182 l 1
 192 230 l 1
 240 230 l 1
336 374 m 1
 288 374 l 1
 240 374 l 1
 192 374 l 1
 192 326 l 1
 192 278 l 1
 144 278 l 1
 144 326 l 1
 96 326 l 1
 48 326 l 1
 48 374 l 1
 96 374 l 1
 96 422 l 1
 144 422 l 1
 192 422 l 1
 240 422 l 1
 288 422 l 1
 336 422 l 1
 336 374 l 1
48 374 m 1
 0 374 l 1
 0 422 l 1
 48 422 l 1
 48 374 l 1
672 806 m 1
 720 806 l 1
 768 806 l 1
 816 806 l 1
 864 806 l 1
 912 806 l 1
 960 806 l 1
 1008 806 l 1
 1008 758 l 1
 1008 710 l 1
 1008 662 l 1
 1008 614 l 1
 1008 566 l 1
 1008 518 l 1
 1008 470 l 1
 960 470 l 1
 912 470 l 1
 864 470 l 1
 816 470 l 1
 768 470 l 1
 720 470 l 1
 672 470 l 1
 672 518 l 1
 672 566 l 1
 672 614 l 1
 672 662 l 1
 672 710 l 1
 672 758 l 1
 672 806 l 1
48 758 m 1
 48 710 l 1
 48 662 l 1
 48 614 l 1
 48 566 l 1
 48 518 l 1
 96 518 l 1
 144 518 l 1
 192 518 l 1
 240 518 l 1
 288 518 l 1
 288 566 l 1
 288 614 l 1
 288 662 l 1
 288 710 l 1
 288 758 l 1
 240 758 l 1
 192 758 l 1
 144 758 l 1
 96 758 l 1
 48 758 l 1
720 758 m 1
 720 710 l 1
 720 662 l 1
 720 614 l 1
 720 566 l 1
 720 518 l 1
 768 518 l 1
 816 518 l 1
 864 518 l 1
 912 518 l 1
 960 518 l 1
 960 566 l 1
 960 614 l 1
 960 662 l 1
 960 710 l 1
 960 758 l 1
 912 758 l 1
 864 758 l 1
 816 758 l 1
 768 758 l 1
 720 758 l 1
96 710 m 1
 144 710 l 1
 192 710 l 1
 240 710 l 1
 240 662 l 1
 240 614 l 1
 240 566 l 1
 192 566 l 1
 144 566 l 1
 96 566 l 1
 96 614 l 1
 96 662 l 1
 96 710 l 1
768 710 m 1
 816 710 l 1
 864 710 l 1
 912 710 l 1
 912 662 l 1
 912 614 l 1
 912 566 l 1
 864 566 l 1
 816 566 l 1
 768 566 l 1
 768 614 l 1
 768 662 l 1
 768 710 l 1
528 326 m 1
 528 278 l 1
 576 278 l 1
 576 326 l 1
 528 326 l 1
624 326 m 1
 624 278 l 1
 672 278 l 1
 672 326 l 1
 624 326 l 1
48 278 m 1
 96 278 l 1
 96 230 l 1
 48 230 l 1
 48 278 l 1
96 230 m 1
 144 230 l 1
 144 182 l 1
 96 182 l 1
 96 230 l 1
0 134 m 1
 48 134 l 1
 96 134 l 1
 144 134 l 1
 192 134 l 1
 240 134 l 1
 288 134 l 1
 336 134 l 1
 336 86 l 1
 336 38 l 1
 336 -10 l 1
 336 -58 l 1
 336 -106 l 1
 336 -154 l 1
 336 -202 l 1
 288 -202 l 1
 240 -202 l 1
 192 -202 l 1
 144 -202 l 1
 96 -202 l 1
 48 -202 l 1
 0 -202 l 1
 0 -154 l 1
 0 -106 l 1
 0 -58 l 1
 0 -10 l 1
 0 38 l 1
 0 86 l 1
 0 134 l 1
48 86 m 1
 48 38 l 1
 48 -10 l 1
 48 -58 l 1
 48 -106 l 1
 48 -154 l 1
 96 -154 l 1
 144 -154 l 1
 192 -154 l 1
 240 -154 l 1
 288 -154 l 1
 288 -106 l 1
 288 -58 l 1
 288 -10 l 1
 288 38 l 1
 288 86 l 1
 240 86 l 1
 192 86 l 1
 144 86 l 1
 96 86 l 1
 48 86 l 1
816 86 m 1
 816 38 l 1
 864 38 l 1
 864 86 l 1
 816 86 l 1
96 38 m 1
 144 38 l 1
 192 38 l 1
 240 38 l 1
 240 -10 l 1
 240 -58 l 1
 240 -106 l 1
 192 -106 l 1
 144 -106 l 1
 96 -106 l 1
 96 -58 l 1
 96 -10 l 1
 96 38 l 1
528 -58 m 1
 528 -106 l 1
 576 -106 l 1
 576 -58 l 1
 528 -58 l 1
624 -58 m 1
 624 -106 l 1
 672 -106 l 1
 672 -58 l 1
 624 -58 l 1
816 -106 m 1
 864 -106 l 1
 864 -154 l 1
 816 -154 l 1
 816 -106 l 1
864 -154 m 1
 912 -154 l 1
 960 -154 l 1
 960 -202 l 1
 912 -202 l 1
 864 -202 l 1
 864 -154 l 1
384 -154 m 1
 432 -154 l 1
 432 -202 l 1
 384 -202 l 1
 384 -154 l 1
EndSplineSet
EndChar

StartChar: r
Encoding: 114 114 17
Width: 1092
VWidth: 1056
Flags: HW
LayerCount: 2
Fore
SplineSet
0 806 m 1
 48 806 l 1
 96 806 l 1
 144 806 l 1
 192 806 l 1
 240 806 l 1
 288 806 l 1
 336 806 l 1
 336 758 l 1
 336 710 l 1
 336 662 l 1
 336 614 l 1
 336 566 l 1
 336 518 l 1
 336 470 l 1
 288 470 l 1
 240 470 l 1
 192 470 l 1
 144 470 l 1
 96 470 l 1
 48 470 l 1
 0 470 l 1
 0 518 l 1
 0 566 l 1
 0 614 l 1
 0 662 l 1
 0 710 l 1
 0 758 l 1
 0 806 l 1
384 806 m 1
 432 806 l 1
 480 806 l 1
 528 806 l 1
 576 806 l 1
 576 758 l 1
 624 758 l 1
 624 710 l 1
 576 710 l 1
 528 710 l 1
 528 662 l 1
 480 662 l 1
 432 662 l 1
 432 710 l 1
 480 710 l 1
 480 758 l 1
 432 758 l 1
 384 758 l 1
 384 806 l 1
432 662 m 1
 432 614 l 1
 480 614 l 1
 528 614 l 1
 528 566 l 1
 480 566 l 1
 432 566 l 1
 432 518 l 1
 432 470 l 1
 480 470 l 1
 480 422 l 1
 432 422 l 1
 432 374 l 1
 384 374 l 1
 384 326 l 1
 336 326 l 1
 336 374 l 1
 288 374 l 1
 288 422 l 1
 336 422 l 1
 384 422 l 1
 384 470 l 1
 384 518 l 1
 384 566 l 1
 384 614 l 1
 384 662 l 1
 432 662 l 1
528 566 m 1
 576 566 l 1
 576 518 l 1
 528 518 l 1
 528 566 l 1
576 566 m 1
 576 614 l 1
 624 614 l 1
 624 566 l 1
 576 566 l 1
576 518 m 1
 624 518 l 1
 624 470 l 1
 624 422 l 1
 576 422 l 1
 576 374 l 1
 624 374 l 1
 624 326 l 1
 576 326 l 1
 576 278 l 1
 528 278 l 1
 528 326 l 1
 528 374 l 1
 528 422 l 1
 528 470 l 1
 576 470 l 1
 576 518 l 1
624 422 m 1
 672 422 l 1
 720 422 l 1
 768 422 l 1
 816 422 l 1
 864 422 l 1
 864 374 l 1
 864 326 l 1
 912 326 l 1
 912 278 l 1
 912 230 l 1
 960 230 l 1
 960 278 l 1
 1008 278 l 1
 1008 230 l 1
 1008 182 l 1
 960 182 l 1
 912 182 l 1
 912 134 l 1
 864 134 l 1
 864 182 l 1
 864 230 l 1
 864 278 l 1
 816 278 l 1
 816 230 l 1
 768 230 l 1
 768 278 l 1
 720 278 l 1
 720 230 l 1
 720 182 l 1
 720 134 l 1
 672 134 l 1
 672 86 l 1
 624 86 l 1
 624 38 l 1
 576 38 l 1
 576 -10 l 1
 624 -10 l 1
 624 -58 l 1
 576 -58 l 1
 576 -106 l 1
 528 -106 l 1
 528 -58 l 1
 480 -58 l 1
 480 -10 l 1
 528 -10 l 1
 528 38 l 1
 528 86 l 1
 576 86 l 1
 576 134 l 1
 576 182 l 1
 576 230 l 1
 624 230 l 1
 624 278 l 1
 672 278 l 1
 672 326 l 1
 720 326 l 1
 720 374 l 1
 672 374 l 1
 624 374 l 1
 624 422 l 1
912 326 m 1
 912 374 l 1
 960 374 l 1
 960 422 l 1
 1008 422 l 1
 1008 374 l 1
 1008 326 l 1
 960 326 l 1
 912 326 l 1
912 134 m 1
 960 134 l 1
 960 86 l 1
 960 38 l 1
 1008 38 l 1
 1008 -10 l 1
 1008 -58 l 1
 960 -58 l 1
 912 -58 l 1
 912 -10 l 1
 864 -10 l 1
 864 -58 l 1
 912 -58 l 1
 912 -106 l 1
 912 -154 l 1
 912 -202 l 1
 864 -202 l 1
 864 -154 l 1
 864 -106 l 1
 816 -106 l 1
 816 -154 l 1
 768 -154 l 1
 768 -106 l 1
 720 -106 l 1
 720 -154 l 1
 720 -202 l 1
 672 -202 l 1
 624 -202 l 1
 576 -202 l 1
 576 -154 l 1
 624 -154 l 1
 624 -106 l 1
 672 -106 l 1
 672 -58 l 1
 720 -58 l 1
 720 -10 l 1
 672 -10 l 1
 672 38 l 1
 720 38 l 1
 720 86 l 1
 768 86 l 1
 768 38 l 1
 816 38 l 1
 816 86 l 1
 864 86 l 1
 864 38 l 1
 912 38 l 1
 912 86 l 1
 912 134 l 1
480 -58 m 1
 480 -106 l 1
 480 -154 l 1
 528 -154 l 1
 528 -202 l 1
 480 -202 l 1
 432 -202 l 1
 384 -202 l 1
 384 -154 l 1
 432 -154 l 1
 432 -106 l 1
 432 -58 l 1
 480 -58 l 1
480 -10 m 1
 432 -10 l 1
 384 -10 l 1
 384 38 l 1
 432 38 l 1
 432 86 l 1
 480 86 l 1
 480 38 l 1
 480 -10 l 1
432 86 m 1
 384 86 l 1
 384 134 l 1
 384 182 l 1
 336 182 l 1
 288 182 l 1
 240 182 l 1
 240 230 l 1
 288 230 l 1
 336 230 l 1
 384 230 l 1
 384 278 l 1
 384 326 l 1
 432 326 l 1
 432 374 l 1
 480 374 l 1
 480 326 l 1
 480 278 l 1
 432 278 l 1
 432 230 l 1
 480 230 l 1
 528 230 l 1
 528 182 l 1
 528 134 l 1
 528 86 l 1
 480 86 l 1
 480 134 l 1
 432 134 l 1
 432 86 l 1
240 230 m 1
 192 230 l 1
 192 278 l 1
 144 278 l 1
 96 278 l 1
 96 326 l 1
 96 374 l 1
 144 374 l 1
 144 326 l 1
 192 326 l 1
 192 374 l 1
 192 422 l 1
 240 422 l 1
 240 374 l 1
 240 326 l 1
 240 278 l 1
 240 230 l 1
192 230 m 1
 192 182 l 1
 144 182 l 1
 144 230 l 1
 192 230 l 1
96 278 m 1
 96 230 l 1
 48 230 l 1
 48 278 l 1
 96 278 l 1
528 470 m 1
 480 470 l 1
 480 518 l 1
 528 518 l 1
 528 470 l 1
336 326 m 1
 336 278 l 1
 288 278 l 1
 288 326 l 1
 336 326 l 1
672 806 m 1
 720 806 l 1
 768 806 l 1
 816 806 l 1
 864 806 l 1
 912 806 l 1
 960 806 l 1
 1008 806 l 1
 1008 758 l 1
 1008 710 l 1
 1008 662 l 1
 1008 614 l 1
 1008 566 l 1
 1008 518 l 1
 1008 470 l 1
 960 470 l 1
 912 470 l 1
 864 470 l 1
 816 470 l 1
 768 470 l 1
 720 470 l 1
 672 470 l 1
 672 518 l 1
 672 566 l 1
 672 614 l 1
 672 662 l 1
 672 710 l 1
 672 758 l 1
 672 806 l 1
48 758 m 1
 48 710 l 1
 48 662 l 1
 48 614 l 1
 48 566 l 1
 48 518 l 1
 96 518 l 1
 144 518 l 1
 192 518 l 1
 240 518 l 1
 288 518 l 1
 288 566 l 1
 288 614 l 1
 288 662 l 1
 288 710 l 1
 288 758 l 1
 240 758 l 1
 192 758 l 1
 144 758 l 1
 96 758 l 1
 48 758 l 1
720 758 m 1
 720 710 l 1
 720 662 l 1
 720 614 l 1
 720 566 l 1
 720 518 l 1
 768 518 l 1
 816 518 l 1
 864 518 l 1
 912 518 l 1
 960 518 l 1
 960 566 l 1
 960 614 l 1
 960 662 l 1
 960 710 l 1
 960 758 l 1
 912 758 l 1
 864 758 l 1
 816 758 l 1
 768 758 l 1
 720 758 l 1
96 710 m 1
 144 710 l 1
 192 710 l 1
 240 710 l 1
 240 662 l 1
 240 614 l 1
 240 566 l 1
 192 566 l 1
 144 566 l 1
 96 566 l 1
 96 614 l 1
 96 662 l 1
 96 710 l 1
768 710 m 1
 816 710 l 1
 864 710 l 1
 912 710 l 1
 912 662 l 1
 912 614 l 1
 912 566 l 1
 864 566 l 1
 816 566 l 1
 768 566 l 1
 768 614 l 1
 768 662 l 1
 768 710 l 1
0 422 m 1
 48 422 l 1
 48 374 l 1
 0 374 l 1
 0 422 l 1
768 374 m 1
 768 326 l 1
 816 326 l 1
 816 374 l 1
 768 374 l 1
0 134 m 1
 48 134 l 1
 96 134 l 1
 144 134 l 1
 192 134 l 1
 240 134 l 1
 288 134 l 1
 336 134 l 1
 336 86 l 1
 336 38 l 1
 336 -10 l 1
 336 -58 l 1
 336 -106 l 1
 336 -154 l 1
 336 -202 l 1
 288 -202 l 1
 240 -202 l 1
 192 -202 l 1
 144 -202 l 1
 96 -202 l 1
 48 -202 l 1
 0 -202 l 1
 0 -154 l 1
 0 -106 l 1
 0 -58 l 1
 0 -10 l 1
 0 38 l 1
 0 86 l 1
 0 134 l 1
48 86 m 1
 48 38 l 1
 48 -10 l 1
 48 -58 l 1
 48 -106 l 1
 48 -154 l 1
 96 -154 l 1
 144 -154 l 1
 192 -154 l 1
 240 -154 l 1
 288 -154 l 1
 288 -106 l 1
 288 -58 l 1
 288 -10 l 1
 288 38 l 1
 288 86 l 1
 240 86 l 1
 192 86 l 1
 144 86 l 1
 96 86 l 1
 48 86 l 1
96 38 m 1
 144 38 l 1
 192 38 l 1
 240 38 l 1
 240 -10 l 1
 240 -58 l 1
 240 -106 l 1
 192 -106 l 1
 144 -106 l 1
 96 -106 l 1
 96 -58 l 1
 96 -10 l 1
 96 38 l 1
768 -10 m 1
 768 -58 l 1
 816 -58 l 1
 816 -10 l 1
 768 -10 l 1
960 -154 m 1
 1008 -154 l 1
 1008 -202 l 1
 960 -202 l 1
 960 -154 l 1
EndSplineSet
EndChar

StartChar: s
Encoding: 115 115 18
Width: 1092
VWidth: 1056
Flags: HW
LayerCount: 2
Fore
SplineSet
0 806 m 1
 48 806 l 1
 96 806 l 1
 144 806 l 1
 192 806 l 1
 240 806 l 1
 288 806 l 1
 336 806 l 1
 336 758 l 1
 336 710 l 1
 336 662 l 1
 336 614 l 1
 336 566 l 1
 336 518 l 1
 336 470 l 1
 288 470 l 1
 240 470 l 1
 192 470 l 1
 144 470 l 1
 96 470 l 1
 48 470 l 1
 0 470 l 1
 0 518 l 1
 0 566 l 1
 0 614 l 1
 0 662 l 1
 0 710 l 1
 0 758 l 1
 0 806 l 1
384 806 m 1
 432 806 l 1
 480 806 l 1
 528 806 l 1
 528 758 l 1
 576 758 l 1
 624 758 l 1
 624 710 l 1
 576 710 l 1
 576 662 l 1
 624 662 l 1
 624 614 l 1
 624 566 l 1
 576 566 l 1
 576 614 l 1
 528 614 l 1
 528 662 l 1
 528 710 l 1
 480 710 l 1
 480 662 l 1
 480 614 l 1
 432 614 l 1
 432 566 l 1
 480 566 l 1
 528 566 l 1
 576 566 l 1
 576 518 l 1
 528 518 l 1
 528 470 l 1
 480 470 l 1
 480 518 l 1
 432 518 l 1
 432 470 l 1
 480 470 l 1
 480 422 l 1
 528 422 l 1
 528 470 l 1
 576 470 l 1
 576 518 l 1
 624 518 l 1
 624 470 l 1
 624 422 l 1
 576 422 l 1
 576 374 l 1
 624 374 l 1
 624 326 l 1
 576 326 l 1
 576 278 l 1
 528 278 l 1
 480 278 l 1
 480 326 l 1
 528 326 l 1
 528 374 l 1
 480 374 l 1
 432 374 l 1
 384 374 l 1
 336 374 l 1
 288 374 l 1
 288 422 l 1
 336 422 l 1
 384 422 l 1
 384 470 l 1
 384 518 l 1
 384 566 l 1
 384 614 l 1
 384 662 l 1
 432 662 l 1
 432 710 l 1
 432 758 l 1
 384 758 l 1
 384 806 l 1
624 422 m 1
 672 422 l 1
 720 422 l 1
 768 422 l 1
 816 422 l 1
 864 422 l 1
 864 374 l 1
 864 326 l 1
 912 326 l 1
 912 278 l 1
 960 278 l 1
 1008 278 l 1
 1008 230 l 1
 1008 182 l 1
 960 182 l 1
 912 182 l 1
 912 134 l 1
 864 134 l 1
 864 182 l 1
 864 230 l 1
 864 278 l 1
 816 278 l 1
 816 230 l 1
 768 230 l 1
 768 278 l 1
 720 278 l 1
 720 230 l 1
 720 182 l 1
 720 134 l 1
 672 134 l 1
 672 86 l 1
 624 86 l 1
 624 38 l 1
 576 38 l 1
 576 -10 l 1
 624 -10 l 1
 624 -58 l 1
 576 -58 l 1
 576 -106 l 1
 528 -106 l 1
 528 -58 l 1
 528 -10 l 1
 480 -10 l 1
 480 38 l 1
 528 38 l 1
 528 86 l 1
 576 86 l 1
 576 134 l 1
 576 182 l 1
 576 230 l 1
 624 230 l 1
 624 278 l 1
 672 278 l 1
 672 326 l 1
 720 326 l 1
 720 374 l 1
 672 374 l 1
 624 374 l 1
 624 422 l 1
912 326 m 1
 912 374 l 1
 960 374 l 1
 960 422 l 1
 1008 422 l 1
 1008 374 l 1
 1008 326 l 1
 960 326 l 1
 912 326 l 1
912 134 m 1
 960 134 l 1
 960 86 l 1
 960 38 l 1
 1008 38 l 1
 1008 -10 l 1
 1008 -58 l 1
 960 -58 l 1
 912 -58 l 1
 912 -10 l 1
 864 -10 l 1
 864 -58 l 1
 912 -58 l 1
 912 -106 l 1
 912 -154 l 1
 912 -202 l 1
 864 -202 l 1
 864 -154 l 1
 864 -106 l 1
 816 -106 l 1
 816 -154 l 1
 768 -154 l 1
 768 -106 l 1
 720 -106 l 1
 720 -154 l 1
 720 -202 l 1
 672 -202 l 1
 624 -202 l 1
 576 -202 l 1
 576 -154 l 1
 624 -154 l 1
 624 -106 l 1
 672 -106 l 1
 672 -58 l 1
 720 -58 l 1
 720 -10 l 1
 672 -10 l 1
 672 38 l 1
 720 38 l 1
 720 86 l 1
 768 86 l 1
 768 38 l 1
 816 38 l 1
 816 86 l 1
 864 86 l 1
 864 38 l 1
 912 38 l 1
 912 86 l 1
 912 134 l 1
528 -106 m 1
 528 -154 l 1
 528 -202 l 1
 480 -202 l 1
 480 -154 l 1
 432 -154 l 1
 432 -106 l 1
 432 -58 l 1
 432 -10 l 1
 480 -10 l 1
 480 -58 l 1
 480 -106 l 1
 528 -106 l 1
432 -154 m 1
 432 -202 l 1
 384 -202 l 1
 384 -154 l 1
 432 -154 l 1
432 -10 m 1
 384 -10 l 1
 384 38 l 1
 432 38 l 1
 432 -10 l 1
432 38 m 1
 432 86 l 1
 384 86 l 1
 384 134 l 1
 384 182 l 1
 384 230 l 1
 432 230 l 1
 480 230 l 1
 528 230 l 1
 528 182 l 1
 528 134 l 1
 480 134 l 1
 480 86 l 1
 480 38 l 1
 432 38 l 1
384 230 m 1
 336 230 l 1
 336 278 l 1
 288 278 l 1
 240 278 l 1
 240 230 l 1
 288 230 l 1
 336 230 l 1
 336 182 l 1
 288 182 l 1
 240 182 l 1
 192 182 l 1
 144 182 l 1
 96 182 l 1
 48 182 l 1
 48 230 l 1
 96 230 l 1
 96 278 l 1
 144 278 l 1
 144 230 l 1
 192 230 l 1
 192 278 l 1
 144 278 l 1
 144 326 l 1
 192 326 l 1
 192 374 l 1
 192 422 l 1
 240 422 l 1
 240 374 l 1
 240 326 l 1
 288 326 l 1
 336 326 l 1
 384 326 l 1
 384 278 l 1
 384 230 l 1
144 326 m 1
 96 326 l 1
 48 326 l 1
 48 374 l 1
 96 374 l 1
 144 374 l 1
 144 326 l 1
48 374 m 1
 0 374 l 1
 0 422 l 1
 48 422 l 1
 48 374 l 1
672 806 m 1
 720 806 l 1
 768 806 l 1
 816 806 l 1
 864 806 l 1
 912 806 l 1
 960 806 l 1
 1008 806 l 1
 1008 758 l 1
 1008 710 l 1
 1008 662 l 1
 1008 614 l 1
 1008 566 l 1
 1008 518 l 1
 1008 470 l 1
 960 470 l 1
 912 470 l 1
 864 470 l 1
 816 470 l 1
 768 470 l 1
 720 470 l 1
 672 470 l 1
 672 518 l 1
 672 566 l 1
 672 614 l 1
 672 662 l 1
 672 710 l 1
 672 758 l 1
 672 806 l 1
48 758 m 1
 48 710 l 1
 48 662 l 1
 48 614 l 1
 48 566 l 1
 48 518 l 1
 96 518 l 1
 144 518 l 1
 192 518 l 1
 240 518 l 1
 288 518 l 1
 288 566 l 1
 288 614 l 1
 288 662 l 1
 288 710 l 1
 288 758 l 1
 240 758 l 1
 192 758 l 1
 144 758 l 1
 96 758 l 1
 48 758 l 1
720 758 m 1
 720 710 l 1
 720 662 l 1
 720 614 l 1
 720 566 l 1
 720 518 l 1
 768 518 l 1
 816 518 l 1
 864 518 l 1
 912 518 l 1
 960 518 l 1
 960 566 l 1
 960 614 l 1
 960 662 l 1
 960 710 l 1
 960 758 l 1
 912 758 l 1
 864 758 l 1
 816 758 l 1
 768 758 l 1
 720 758 l 1
96 710 m 1
 144 710 l 1
 192 710 l 1
 240 710 l 1
 240 662 l 1
 240 614 l 1
 240 566 l 1
 192 566 l 1
 144 566 l 1
 96 566 l 1
 96 614 l 1
 96 662 l 1
 96 710 l 1
768 710 m 1
 816 710 l 1
 864 710 l 1
 912 710 l 1
 912 662 l 1
 912 614 l 1
 912 566 l 1
 864 566 l 1
 816 566 l 1
 768 566 l 1
 768 614 l 1
 768 662 l 1
 768 710 l 1
768 374 m 1
 768 326 l 1
 816 326 l 1
 816 374 l 1
 768 374 l 1
0 134 m 1
 48 134 l 1
 96 134 l 1
 144 134 l 1
 192 134 l 1
 240 134 l 1
 288 134 l 1
 336 134 l 1
 336 86 l 1
 336 38 l 1
 336 -10 l 1
 336 -58 l 1
 336 -106 l 1
 336 -154 l 1
 336 -202 l 1
 288 -202 l 1
 240 -202 l 1
 192 -202 l 1
 144 -202 l 1
 96 -202 l 1
 48 -202 l 1
 0 -202 l 1
 0 -154 l 1
 0 -106 l 1
 0 -58 l 1
 0 -10 l 1
 0 38 l 1
 0 86 l 1
 0 134 l 1
48 86 m 1
 48 38 l 1
 48 -10 l 1
 48 -58 l 1
 48 -106 l 1
 48 -154 l 1
 96 -154 l 1
 144 -154 l 1
 192 -154 l 1
 240 -154 l 1
 288 -154 l 1
 288 -106 l 1
 288 -58 l 1
 288 -10 l 1
 288 38 l 1
 288 86 l 1
 240 86 l 1
 192 86 l 1
 144 86 l 1
 96 86 l 1
 48 86 l 1
96 38 m 1
 144 38 l 1
 192 38 l 1
 240 38 l 1
 240 -10 l 1
 240 -58 l 1
 240 -106 l 1
 192 -106 l 1
 144 -106 l 1
 96 -106 l 1
 96 -58 l 1
 96 -10 l 1
 96 38 l 1
768 -10 m 1
 768 -58 l 1
 816 -58 l 1
 816 -10 l 1
 768 -10 l 1
960 -154 m 1
 1008 -154 l 1
 1008 -202 l 1
 960 -202 l 1
 960 -154 l 1
EndSplineSet
EndChar

StartChar: t
Encoding: 116 116 19
Width: 1092
VWidth: 1056
Flags: HW
LayerCount: 2
Fore
SplineSet
0 806 m 1
 48 806 l 1
 96 806 l 1
 144 806 l 1
 192 806 l 1
 240 806 l 1
 288 806 l 1
 336 806 l 1
 336 758 l 1
 336 710 l 1
 336 662 l 1
 336 614 l 1
 336 566 l 1
 336 518 l 1
 336 470 l 1
 288 470 l 1
 240 470 l 1
 192 470 l 1
 144 470 l 1
 96 470 l 1
 48 470 l 1
 0 470 l 1
 0 518 l 1
 0 566 l 1
 0 614 l 1
 0 662 l 1
 0 710 l 1
 0 758 l 1
 0 806 l 1
384 806 m 1
 432 806 l 1
 432 758 l 1
 384 758 l 1
 384 806 l 1
432 758 m 1
 480 758 l 1
 480 806 l 1
 528 806 l 1
 576 806 l 1
 576 758 l 1
 528 758 l 1
 528 710 l 1
 576 710 l 1
 576 662 l 1
 624 662 l 1
 624 614 l 1
 624 566 l 1
 576 566 l 1
 576 614 l 1
 528 614 l 1
 528 566 l 1
 480 566 l 1
 480 518 l 1
 432 518 l 1
 432 470 l 1
 480 470 l 1
 480 422 l 1
 432 422 l 1
 432 374 l 1
 480 374 l 1
 480 326 l 1
 432 326 l 1
 432 278 l 1
 480 278 l 1
 480 326 l 1
 528 326 l 1
 528 374 l 1
 528 422 l 1
 528 470 l 1
 576 470 l 1
 576 518 l 1
 624 518 l 1
 624 470 l 1
 624 422 l 1
 576 422 l 1
 576 374 l 1
 624 374 l 1
 624 326 l 1
 576 326 l 1
 576 278 l 1
 528 278 l 1
 528 230 l 1
 528 182 l 1
 480 182 l 1
 480 230 l 1
 432 230 l 1
 432 182 l 1
 480 182 l 1
 480 134 l 1
 432 134 l 1
 432 86 l 1
 384 86 l 1
 384 134 l 1
 384 182 l 1
 336 182 l 1
 288 182 l 1
 288 230 l 1
 336 230 l 1
 336 278 l 1
 384 278 l 1
 384 326 l 1
 384 374 l 1
 336 374 l 1
 288 374 l 1
 288 422 l 1
 336 422 l 1
 384 422 l 1
 384 470 l 1
 384 518 l 1
 384 566 l 1
 384 614 l 1
 384 662 l 1
 432 662 l 1
 432 614 l 1
 480 614 l 1
 480 662 l 1
 480 710 l 1
 432 710 l 1
 432 758 l 1
576 566 m 1
 576 518 l 1
 528 518 l 1
 528 566 l 1
 576 566 l 1
528 518 m 1
 528 470 l 1
 480 470 l 1
 480 518 l 1
 528 518 l 1
624 422 m 1
 672 422 l 1
 720 422 l 1
 768 422 l 1
 816 422 l 1
 864 422 l 1
 864 374 l 1
 864 326 l 1
 912 326 l 1
 912 278 l 1
 912 230 l 1
 912 182 l 1
 912 134 l 1
 864 134 l 1
 864 182 l 1
 864 230 l 1
 864 278 l 1
 816 278 l 1
 816 230 l 1
 768 230 l 1
 768 278 l 1
 720 278 l 1
 720 230 l 1
 720 182 l 1
 720 134 l 1
 672 134 l 1
 672 86 l 1
 624 86 l 1
 624 38 l 1
 576 38 l 1
 576 -10 l 1
 624 -10 l 1
 624 -58 l 1
 576 -58 l 1
 576 -106 l 1
 528 -106 l 1
 528 -58 l 1
 528 -10 l 1
 480 -10 l 1
 432 -10 l 1
 384 -10 l 1
 384 38 l 1
 432 38 l 1
 432 86 l 1
 480 86 l 1
 528 86 l 1
 576 86 l 1
 576 134 l 1
 576 182 l 1
 576 230 l 1
 624 230 l 1
 624 278 l 1
 672 278 l 1
 672 326 l 1
 720 326 l 1
 720 374 l 1
 672 374 l 1
 624 374 l 1
 624 422 l 1
912 326 m 1
 912 374 l 1
 960 374 l 1
 960 422 l 1
 1008 422 l 1
 1008 374 l 1
 1008 326 l 1
 960 326 l 1
 912 326 l 1
912 134 m 1
 960 134 l 1
 960 86 l 1
 960 38 l 1
 1008 38 l 1
 1008 -10 l 1
 1008 -58 l 1
 960 -58 l 1
 912 -58 l 1
 912 -10 l 1
 864 -10 l 1
 864 -58 l 1
 912 -58 l 1
 912 -106 l 1
 912 -154 l 1
 912 -202 l 1
 864 -202 l 1
 864 -154 l 1
 864 -106 l 1
 816 -106 l 1
 816 -154 l 1
 768 -154 l 1
 768 -106 l 1
 720 -106 l 1
 720 -154 l 1
 720 -202 l 1
 672 -202 l 1
 624 -202 l 1
 576 -202 l 1
 576 -154 l 1
 624 -154 l 1
 624 -106 l 1
 672 -106 l 1
 672 -58 l 1
 720 -58 l 1
 720 -10 l 1
 672 -10 l 1
 672 38 l 1
 720 38 l 1
 720 86 l 1
 768 86 l 1
 768 38 l 1
 816 38 l 1
 816 86 l 1
 864 86 l 1
 864 38 l 1
 912 38 l 1
 912 86 l 1
 912 134 l 1
528 -106 m 1
 528 -154 l 1
 528 -202 l 1
 480 -202 l 1
 432 -202 l 1
 384 -202 l 1
 384 -154 l 1
 432 -154 l 1
 480 -154 l 1
 480 -106 l 1
 528 -106 l 1
480 -106 m 1
 432 -106 l 1
 432 -58 l 1
 480 -58 l 1
 480 -106 l 1
336 278 m 1
 288 278 l 1
 288 326 l 1
 336 326 l 1
 336 278 l 1
288 326 m 1
 240 326 l 1
 240 374 l 1
 288 374 l 1
 288 326 l 1
240 326 m 1
 240 278 l 1
 192 278 l 1
 144 278 l 1
 96 278 l 1
 96 326 l 1
 48 326 l 1
 48 374 l 1
 96 374 l 1
 144 374 l 1
 192 374 l 1
 192 326 l 1
 240 326 l 1
96 278 m 1
 96 230 l 1
 48 230 l 1
 48 278 l 1
 96 278 l 1
96 230 m 1
 144 230 l 1
 192 230 l 1
 192 182 l 1
 144 182 l 1
 96 182 l 1
 96 230 l 1
48 374 m 1
 0 374 l 1
 0 422 l 1
 48 422 l 1
 48 374 l 1
192 374 m 1
 192 422 l 1
 240 422 l 1
 240 374 l 1
 192 374 l 1
672 806 m 1
 720 806 l 1
 768 806 l 1
 816 806 l 1
 864 806 l 1
 912 806 l 1
 960 806 l 1
 1008 806 l 1
 1008 758 l 1
 1008 710 l 1
 1008 662 l 1
 1008 614 l 1
 1008 566 l 1
 1008 518 l 1
 1008 470 l 1
 960 470 l 1
 912 470 l 1
 864 470 l 1
 816 470 l 1
 768 470 l 1
 720 470 l 1
 672 470 l 1
 672 518 l 1
 672 566 l 1
 672 614 l 1
 672 662 l 1
 672 710 l 1
 672 758 l 1
 672 806 l 1
48 758 m 1
 48 710 l 1
 48 662 l 1
 48 614 l 1
 48 566 l 1
 48 518 l 1
 96 518 l 1
 144 518 l 1
 192 518 l 1
 240 518 l 1
 288 518 l 1
 288 566 l 1
 288 614 l 1
 288 662 l 1
 288 710 l 1
 288 758 l 1
 240 758 l 1
 192 758 l 1
 144 758 l 1
 96 758 l 1
 48 758 l 1
720 758 m 1
 720 710 l 1
 720 662 l 1
 720 614 l 1
 720 566 l 1
 720 518 l 1
 768 518 l 1
 816 518 l 1
 864 518 l 1
 912 518 l 1
 960 518 l 1
 960 566 l 1
 960 614 l 1
 960 662 l 1
 960 710 l 1
 960 758 l 1
 912 758 l 1
 864 758 l 1
 816 758 l 1
 768 758 l 1
 720 758 l 1
96 710 m 1
 144 710 l 1
 192 710 l 1
 240 710 l 1
 240 662 l 1
 240 614 l 1
 240 566 l 1
 192 566 l 1
 144 566 l 1
 96 566 l 1
 96 614 l 1
 96 662 l 1
 96 710 l 1
768 710 m 1
 816 710 l 1
 864 710 l 1
 912 710 l 1
 912 662 l 1
 912 614 l 1
 912 566 l 1
 864 566 l 1
 816 566 l 1
 768 566 l 1
 768 614 l 1
 768 662 l 1
 768 710 l 1
768 374 m 1
 768 326 l 1
 816 326 l 1
 816 374 l 1
 768 374 l 1
960 230 m 1
 1008 230 l 1
 1008 182 l 1
 960 182 l 1
 960 230 l 1
0 134 m 1
 48 134 l 1
 96 134 l 1
 144 134 l 1
 192 134 l 1
 240 134 l 1
 288 134 l 1
 336 134 l 1
 336 86 l 1
 336 38 l 1
 336 -10 l 1
 336 -58 l 1
 336 -106 l 1
 336 -154 l 1
 336 -202 l 1
 288 -202 l 1
 240 -202 l 1
 192 -202 l 1
 144 -202 l 1
 96 -202 l 1
 48 -202 l 1
 0 -202 l 1
 0 -154 l 1
 0 -106 l 1
 0 -58 l 1
 0 -10 l 1
 0 38 l 1
 0 86 l 1
 0 134 l 1
48 86 m 1
 48 38 l 1
 48 -10 l 1
 48 -58 l 1
 48 -106 l 1
 48 -154 l 1
 96 -154 l 1
 144 -154 l 1
 192 -154 l 1
 240 -154 l 1
 288 -154 l 1
 288 -106 l 1
 288 -58 l 1
 288 -10 l 1
 288 38 l 1
 288 86 l 1
 240 86 l 1
 192 86 l 1
 144 86 l 1
 96 86 l 1
 48 86 l 1
96 38 m 1
 144 38 l 1
 192 38 l 1
 240 38 l 1
 240 -10 l 1
 240 -58 l 1
 240 -106 l 1
 192 -106 l 1
 144 -106 l 1
 96 -106 l 1
 96 -58 l 1
 96 -10 l 1
 96 38 l 1
768 -10 m 1
 768 -58 l 1
 816 -58 l 1
 816 -10 l 1
 768 -10 l 1
960 -154 m 1
 1008 -154 l 1
 1008 -202 l 1
 960 -202 l 1
 960 -154 l 1
EndSplineSet
EndChar

StartChar: u
Encoding: 117 117 20
Width: 1092
VWidth: 1056
Flags: HW
LayerCount: 2
Fore
SplineSet
0 806 m 1
 48 806 l 1
 96 806 l 1
 144 806 l 1
 192 806 l 1
 240 806 l 1
 288 806 l 1
 336 806 l 1
 336 758 l 1
 336 710 l 1
 336 662 l 1
 336 614 l 1
 336 566 l 1
 336 518 l 1
 336 470 l 1
 288 470 l 1
 240 470 l 1
 192 470 l 1
 144 470 l 1
 96 470 l 1
 48 470 l 1
 0 470 l 1
 0 518 l 1
 0 566 l 1
 0 614 l 1
 0 662 l 1
 0 710 l 1
 0 758 l 1
 0 806 l 1
384 806 m 1
 432 806 l 1
 480 806 l 1
 528 806 l 1
 528 758 l 1
 576 758 l 1
 624 758 l 1
 624 710 l 1
 576 710 l 1
 576 662 l 1
 624 662 l 1
 624 614 l 1
 576 614 l 1
 576 566 l 1
 624 566 l 1
 624 518 l 1
 624 470 l 1
 624 422 l 1
 624 374 l 1
 672 374 l 1
 672 422 l 1
 720 422 l 1
 720 374 l 1
 720 326 l 1
 672 326 l 1
 624 326 l 1
 576 326 l 1
 576 278 l 1
 576 230 l 1
 528 230 l 1
 528 182 l 1
 480 182 l 1
 480 134 l 1
 432 134 l 1
 432 86 l 1
 480 86 l 1
 480 38 l 1
 432 38 l 1
 384 38 l 1
 384 86 l 1
 384 134 l 1
 384 182 l 1
 432 182 l 1
 432 230 l 1
 480 230 l 1
 480 278 l 1
 480 326 l 1
 528 326 l 1
 528 374 l 1
 528 422 l 1
 480 422 l 1
 480 470 l 1
 480 518 l 1
 528 518 l 1
 528 470 l 1
 576 470 l 1
 576 518 l 1
 528 518 l 1
 528 566 l 1
 528 614 l 1
 528 662 l 1
 528 710 l 1
 480 710 l 1
 480 758 l 1
 432 758 l 1
 432 710 l 1
 384 710 l 1
 384 758 l 1
 384 806 l 1
576 230 m 1
 624 230 l 1
 624 182 l 1
 576 182 l 1
 576 230 l 1
576 182 m 1
 576 134 l 1
 624 134 l 1
 624 86 l 1
 576 86 l 1
 528 86 l 1
 480 86 l 1
 480 134 l 1
 528 134 l 1
 528 182 l 1
 576 182 l 1
384 182 m 1
 336 182 l 1
 288 182 l 1
 288 230 l 1
 336 230 l 1
 336 278 l 1
 288 278 l 1
 288 230 l 1
 240 230 l 1
 240 278 l 1
 240 326 l 1
 240 374 l 1
 240 422 l 1
 288 422 l 1
 336 422 l 1
 384 422 l 1
 384 374 l 1
 336 374 l 1
 288 374 l 1
 288 326 l 1
 336 326 l 1
 384 326 l 1
 432 326 l 1
 432 278 l 1
 384 278 l 1
 384 230 l 1
 384 182 l 1
240 230 m 1
 240 182 l 1
 192 182 l 1
 192 230 l 1
 240 230 l 1
192 230 m 1
 144 230 l 1
 144 182 l 1
 96 182 l 1
 96 230 l 1
 48 230 l 1
 48 278 l 1
 96 278 l 1
 96 326 l 1
 144 326 l 1
 144 278 l 1
 192 278 l 1
 192 230 l 1
96 326 m 1
 48 326 l 1
 48 374 l 1
 96 374 l 1
 96 326 l 1
48 374 m 1
 0 374 l 1
 0 422 l 1
 48 422 l 1
 48 374 l 1
96 374 m 1
 96 422 l 1
 144 422 l 1
 192 422 l 1
 192 374 l 1
 144 374 l 1
 96 374 l 1
384 422 m 1
 384 470 l 1
 384 518 l 1
 432 518 l 1
 432 470 l 1
 432 422 l 1
 384 422 l 1
432 422 m 1
 480 422 l 1
 480 374 l 1
 480 326 l 1
 432 326 l 1
 432 374 l 1
 432 422 l 1
480 710 m 1
 480 662 l 1
 480 614 l 1
 432 614 l 1
 384 614 l 1
 384 662 l 1
 432 662 l 1
 432 710 l 1
 480 710 l 1
672 806 m 1
 720 806 l 1
 768 806 l 1
 816 806 l 1
 864 806 l 1
 912 806 l 1
 960 806 l 1
 1008 806 l 1
 1008 758 l 1
 1008 710 l 1
 1008 662 l 1
 1008 614 l 1
 1008 566 l 1
 1008 518 l 1
 1008 470 l 1
 960 470 l 1
 912 470 l 1
 864 470 l 1
 816 470 l 1
 768 470 l 1
 720 470 l 1
 672 470 l 1
 672 518 l 1
 672 566 l 1
 672 614 l 1
 672 662 l 1
 672 710 l 1
 672 758 l 1
 672 806 l 1
48 758 m 1
 48 710 l 1
 48 662 l 1
 48 614 l 1
 48 566 l 1
 48 518 l 1
 96 518 l 1
 144 518 l 1
 192 518 l 1
 240 518 l 1
 288 518 l 1
 288 566 l 1
 288 614 l 1
 288 662 l 1
 288 710 l 1
 288 758 l 1
 240 758 l 1
 192 758 l 1
 144 758 l 1
 96 758 l 1
 48 758 l 1
720 758 m 1
 720 710 l 1
 720 662 l 1
 720 614 l 1
 720 566 l 1
 720 518 l 1
 768 518 l 1
 816 518 l 1
 864 518 l 1
 912 518 l 1
 960 518 l 1
 960 566 l 1
 960 614 l 1
 960 662 l 1
 960 710 l 1
 960 758 l 1
 912 758 l 1
 864 758 l 1
 816 758 l 1
 768 758 l 1
 720 758 l 1
96 710 m 1
 144 710 l 1
 192 710 l 1
 240 710 l 1
 240 662 l 1
 240 614 l 1
 240 566 l 1
 192 566 l 1
 144 566 l 1
 96 566 l 1
 96 614 l 1
 96 662 l 1
 96 710 l 1
768 710 m 1
 816 710 l 1
 864 710 l 1
 912 710 l 1
 912 662 l 1
 912 614 l 1
 912 566 l 1
 864 566 l 1
 816 566 l 1
 768 566 l 1
 768 614 l 1
 768 662 l 1
 768 710 l 1
816 422 m 1
 864 422 l 1
 864 374 l 1
 864 326 l 1
 912 326 l 1
 912 278 l 1
 912 230 l 1
 960 230 l 1
 960 182 l 1
 960 134 l 1
 912 134 l 1
 912 182 l 1
 864 182 l 1
 864 230 l 1
 816 230 l 1
 768 230 l 1
 768 182 l 1
 720 182 l 1
 720 230 l 1
 672 230 l 1
 672 278 l 1
 720 278 l 1
 768 278 l 1
 816 278 l 1
 816 326 l 1
 816 374 l 1
 816 422 l 1
864 182 m 1
 864 134 l 1
 864 86 l 1
 816 86 l 1
 816 134 l 1
 816 182 l 1
 864 182 l 1
864 86 m 1
 912 86 l 1
 960 86 l 1
 960 38 l 1
 912 38 l 1
 864 38 l 1
 864 86 l 1
960 38 m 1
 1008 38 l 1
 1008 -10 l 1
 960 -10 l 1
 960 38 l 1
960 -10 m 1
 960 -58 l 1
 912 -58 l 1
 864 -58 l 1
 816 -58 l 1
 768 -58 l 1
 768 -106 l 1
 768 -154 l 1
 720 -154 l 1
 720 -106 l 1
 672 -106 l 1
 672 -58 l 1
 672 -10 l 1
 624 -10 l 1
 576 -10 l 1
 576 38 l 1
 624 38 l 1
 672 38 l 1
 720 38 l 1
 720 86 l 1
 720 134 l 1
 768 134 l 1
 768 86 l 1
 816 86 l 1
 816 38 l 1
 816 -10 l 1
 864 -10 l 1
 912 -10 l 1
 960 -10 l 1
768 -154 m 1
 816 -154 l 1
 816 -202 l 1
 768 -202 l 1
 768 -154 l 1
672 -106 m 1
 672 -154 l 1
 672 -202 l 1
 624 -202 l 1
 624 -154 l 1
 624 -106 l 1
 672 -106 l 1
624 -106 m 1
 576 -106 l 1
 576 -58 l 1
 624 -58 l 1
 624 -106 l 1
576 -58 m 1
 528 -58 l 1
 528 -10 l 1
 576 -10 l 1
 576 -58 l 1
528 -58 m 1
 528 -106 l 1
 528 -154 l 1
 480 -154 l 1
 432 -154 l 1
 432 -106 l 1
 384 -106 l 1
 384 -58 l 1
 384 -10 l 1
 432 -10 l 1
 480 -10 l 1
 480 -58 l 1
 528 -58 l 1
432 -154 m 1
 432 -202 l 1
 384 -202 l 1
 384 -154 l 1
 432 -154 l 1
720 134 m 1
 672 134 l 1
 672 182 l 1
 720 182 l 1
 720 134 l 1
912 422 m 1
 960 422 l 1
 1008 422 l 1
 1008 374 l 1
 960 374 l 1
 912 374 l 1
 912 422 l 1
960 326 m 1
 1008 326 l 1
 1008 278 l 1
 960 278 l 1
 960 326 l 1
0 134 m 1
 48 134 l 1
 96 134 l 1
 144 134 l 1
 192 134 l 1
 240 134 l 1
 288 134 l 1
 336 134 l 1
 336 86 l 1
 336 38 l 1
 336 -10 l 1
 336 -58 l 1
 336 -106 l 1
 336 -154 l 1
 336 -202 l 1
 288 -202 l 1
 240 -202 l 1
 192 -202 l 1
 144 -202 l 1
 96 -202 l 1
 48 -202 l 1
 0 -202 l 1
 0 -154 l 1
 0 -106 l 1
 0 -58 l 1
 0 -10 l 1
 0 38 l 1
 0 86 l 1
 0 134 l 1
48 86 m 1
 48 38 l 1
 48 -10 l 1
 48 -58 l 1
 48 -106 l 1
 48 -154 l 1
 96 -154 l 1
 144 -154 l 1
 192 -154 l 1
 240 -154 l 1
 288 -154 l 1
 288 -106 l 1
 288 -58 l 1
 288 -10 l 1
 288 38 l 1
 288 86 l 1
 240 86 l 1
 192 86 l 1
 144 86 l 1
 96 86 l 1
 48 86 l 1
96 38 m 1
 144 38 l 1
 192 38 l 1
 240 38 l 1
 240 -10 l 1
 240 -58 l 1
 240 -106 l 1
 192 -106 l 1
 144 -106 l 1
 96 -106 l 1
 96 -58 l 1
 96 -10 l 1
 96 38 l 1
864 -106 m 1
 912 -106 l 1
 912 -154 l 1
 864 -154 l 1
 864 -106 l 1
960 -106 m 1
 1008 -106 l 1
 1008 -154 l 1
 960 -154 l 1
 960 -106 l 1
EndSplineSet
EndChar

StartChar: v
Encoding: 118 118 21
Width: 1092
VWidth: 1056
Flags: HW
LayerCount: 2
Fore
SplineSet
0 806 m 1
 48 806 l 1
 96 806 l 1
 144 806 l 1
 192 806 l 1
 240 806 l 1
 288 806 l 1
 336 806 l 1
 336 758 l 1
 336 710 l 1
 336 662 l 1
 336 614 l 1
 336 566 l 1
 336 518 l 1
 336 470 l 1
 288 470 l 1
 240 470 l 1
 192 470 l 1
 144 470 l 1
 96 470 l 1
 48 470 l 1
 0 470 l 1
 0 518 l 1
 0 566 l 1
 0 614 l 1
 0 662 l 1
 0 710 l 1
 0 758 l 1
 0 806 l 1
384 806 m 1
 432 806 l 1
 480 806 l 1
 528 806 l 1
 528 758 l 1
 480 758 l 1
 432 758 l 1
 432 710 l 1
 384 710 l 1
 384 758 l 1
 384 806 l 1
432 710 m 1
 480 710 l 1
 528 710 l 1
 576 710 l 1
 624 710 l 1
 624 662 l 1
 624 614 l 1
 576 614 l 1
 576 662 l 1
 528 662 l 1
 528 614 l 1
 480 614 l 1
 480 662 l 1
 432 662 l 1
 432 710 l 1
576 614 m 1
 576 566 l 1
 624 566 l 1
 624 518 l 1
 624 470 l 1
 624 422 l 1
 624 374 l 1
 672 374 l 1
 672 422 l 1
 720 422 l 1
 720 374 l 1
 720 326 l 1
 672 326 l 1
 624 326 l 1
 576 326 l 1
 576 278 l 1
 576 230 l 1
 528 230 l 1
 528 182 l 1
 480 182 l 1
 432 182 l 1
 432 134 l 1
 480 134 l 1
 528 134 l 1
 528 182 l 1
 576 182 l 1
 576 134 l 1
 624 134 l 1
 624 86 l 1
 576 86 l 1
 528 86 l 1
 480 86 l 1
 432 86 l 1
 432 38 l 1
 384 38 l 1
 384 86 l 1
 384 134 l 1
 384 182 l 1
 336 182 l 1
 288 182 l 1
 240 182 l 1
 240 230 l 1
 240 278 l 1
 288 278 l 1
 288 230 l 1
 336 230 l 1
 336 278 l 1
 384 278 l 1
 384 230 l 1
 432 230 l 1
 480 230 l 1
 480 278 l 1
 432 278 l 1
 384 278 l 1
 384 326 l 1
 336 326 l 1
 336 374 l 1
 288 374 l 1
 288 326 l 1
 240 326 l 1
 192 326 l 1
 192 374 l 1
 240 374 l 1
 240 422 l 1
 288 422 l 1
 336 422 l 1
 384 422 l 1
 384 374 l 1
 432 374 l 1
 432 422 l 1
 480 422 l 1
 480 374 l 1
 528 374 l 1
 528 422 l 1
 528 470 l 1
 576 470 l 1
 576 518 l 1
 528 518 l 1
 528 566 l 1
 528 614 l 1
 576 614 l 1
576 230 m 1
 624 230 l 1
 624 182 l 1
 576 182 l 1
 576 230 l 1
432 38 m 1
 480 38 l 1
 480 -10 l 1
 432 -10 l 1
 432 38 l 1
432 -10 m 1
 432 -58 l 1
 480 -58 l 1
 528 -58 l 1
 528 -106 l 1
 528 -154 l 1
 528 -202 l 1
 480 -202 l 1
 480 -154 l 1
 480 -106 l 1
 432 -106 l 1
 384 -106 l 1
 384 -58 l 1
 384 -10 l 1
 432 -10 l 1
528 -58 m 1
 528 -10 l 1
 576 -10 l 1
 576 -58 l 1
 528 -58 l 1
576 -10 m 1
 576 38 l 1
 624 38 l 1
 672 38 l 1
 720 38 l 1
 720 86 l 1
 720 134 l 1
 768 134 l 1
 768 86 l 1
 816 86 l 1
 816 38 l 1
 816 -10 l 1
 864 -10 l 1
 912 -10 l 1
 960 -10 l 1
 960 -58 l 1
 912 -58 l 1
 864 -58 l 1
 816 -58 l 1
 768 -58 l 1
 768 -106 l 1
 768 -154 l 1
 720 -154 l 1
 720 -106 l 1
 672 -106 l 1
 672 -58 l 1
 672 -10 l 1
 624 -10 l 1
 576 -10 l 1
720 134 m 1
 672 134 l 1
 672 182 l 1
 720 182 l 1
 720 134 l 1
720 182 m 1
 720 230 l 1
 672 230 l 1
 672 278 l 1
 720 278 l 1
 768 278 l 1
 816 278 l 1
 816 326 l 1
 816 374 l 1
 816 422 l 1
 864 422 l 1
 864 374 l 1
 864 326 l 1
 912 326 l 1
 912 278 l 1
 960 278 l 1
 960 326 l 1
 1008 326 l 1
 1008 278 l 1
 1008 230 l 1
 960 230 l 1
 960 182 l 1
 960 134 l 1
 912 134 l 1
 912 182 l 1
 864 182 l 1
 864 230 l 1
 816 230 l 1
 768 230 l 1
 768 182 l 1
 720 182 l 1
864 182 m 1
 864 134 l 1
 864 86 l 1
 816 86 l 1
 816 134 l 1
 816 182 l 1
 864 182 l 1
864 86 m 1
 912 86 l 1
 960 86 l 1
 960 38 l 1
 912 38 l 1
 864 38 l 1
 864 86 l 1
960 38 m 1
 1008 38 l 1
 1008 -10 l 1
 960 -10 l 1
 960 38 l 1
768 -154 m 1
 816 -154 l 1
 816 -202 l 1
 768 -202 l 1
 768 -154 l 1
672 -106 m 1
 672 -154 l 1
 672 -202 l 1
 624 -202 l 1
 624 -154 l 1
 624 -106 l 1
 672 -106 l 1
624 -106 m 1
 576 -106 l 1
 576 -58 l 1
 624 -58 l 1
 624 -106 l 1
288 278 m 1
 288 326 l 1
 336 326 l 1
 336 278 l 1
 288 278 l 1
192 374 m 1
 144 374 l 1
 144 326 l 1
 96 326 l 1
 48 326 l 1
 48 374 l 1
 96 374 l 1
 96 422 l 1
 144 422 l 1
 192 422 l 1
 192 374 l 1
48 374 m 1
 0 374 l 1
 0 422 l 1
 48 422 l 1
 48 374 l 1
384 422 m 1
 384 470 l 1
 384 518 l 1
 432 518 l 1
 432 470 l 1
 432 422 l 1
 384 422 l 1
528 470 m 1
 480 470 l 1
 480 518 l 1
 528 518 l 1
 528 470 l 1
432 662 m 1
 432 614 l 1
 384 614 l 1
 384 662 l 1
 432 662 l 1
576 806 m 1
 624 806 l 1
 624 758 l 1
 576 758 l 1
 576 806 l 1
672 806 m 1
 720 806 l 1
 768 806 l 1
 816 806 l 1
 864 806 l 1
 912 806 l 1
 960 806 l 1
 1008 806 l 1
 1008 758 l 1
 1008 710 l 1
 1008 662 l 1
 1008 614 l 1
 1008 566 l 1
 1008 518 l 1
 1008 470 l 1
 960 470 l 1
 912 470 l 1
 864 470 l 1
 816 470 l 1
 768 470 l 1
 720 470 l 1
 672 470 l 1
 672 518 l 1
 672 566 l 1
 672 614 l 1
 672 662 l 1
 672 710 l 1
 672 758 l 1
 672 806 l 1
48 758 m 1
 48 710 l 1
 48 662 l 1
 48 614 l 1
 48 566 l 1
 48 518 l 1
 96 518 l 1
 144 518 l 1
 192 518 l 1
 240 518 l 1
 288 518 l 1
 288 566 l 1
 288 614 l 1
 288 662 l 1
 288 710 l 1
 288 758 l 1
 240 758 l 1
 192 758 l 1
 144 758 l 1
 96 758 l 1
 48 758 l 1
720 758 m 1
 720 710 l 1
 720 662 l 1
 720 614 l 1
 720 566 l 1
 720 518 l 1
 768 518 l 1
 816 518 l 1
 864 518 l 1
 912 518 l 1
 960 518 l 1
 960 566 l 1
 960 614 l 1
 960 662 l 1
 960 710 l 1
 960 758 l 1
 912 758 l 1
 864 758 l 1
 816 758 l 1
 768 758 l 1
 720 758 l 1
96 710 m 1
 144 710 l 1
 192 710 l 1
 240 710 l 1
 240 662 l 1
 240 614 l 1
 240 566 l 1
 192 566 l 1
 144 566 l 1
 96 566 l 1
 96 614 l 1
 96 662 l 1
 96 710 l 1
768 710 m 1
 816 710 l 1
 864 710 l 1
 912 710 l 1
 912 662 l 1
 912 614 l 1
 912 566 l 1
 864 566 l 1
 816 566 l 1
 768 566 l 1
 768 614 l 1
 768 662 l 1
 768 710 l 1
912 422 m 1
 960 422 l 1
 1008 422 l 1
 1008 374 l 1
 960 374 l 1
 912 374 l 1
 912 422 l 1
48 278 m 1
 96 278 l 1
 144 278 l 1
 192 278 l 1
 192 230 l 1
 144 230 l 1
 144 182 l 1
 96 182 l 1
 48 182 l 1
 48 230 l 1
 48 278 l 1
0 134 m 1
 48 134 l 1
 96 134 l 1
 144 134 l 1
 192 134 l 1
 240 134 l 1
 288 134 l 1
 336 134 l 1
 336 86 l 1
 336 38 l 1
 336 -10 l 1
 336 -58 l 1
 336 -106 l 1
 336 -154 l 1
 336 -202 l 1
 288 -202 l 1
 240 -202 l 1
 192 -202 l 1
 144 -202 l 1
 96 -202 l 1
 48 -202 l 1
 0 -202 l 1
 0 -154 l 1
 0 -106 l 1
 0 -58 l 1
 0 -10 l 1
 0 38 l 1
 0 86 l 1
 0 134 l 1
48 86 m 1
 48 38 l 1
 48 -10 l 1
 48 -58 l 1
 48 -106 l 1
 48 -154 l 1
 96 -154 l 1
 144 -154 l 1
 192 -154 l 1
 240 -154 l 1
 288 -154 l 1
 288 -106 l 1
 288 -58 l 1
 288 -10 l 1
 288 38 l 1
 288 86 l 1
 240 86 l 1
 192 86 l 1
 144 86 l 1
 96 86 l 1
 48 86 l 1
96 38 m 1
 144 38 l 1
 192 38 l 1
 240 38 l 1
 240 -10 l 1
 240 -58 l 1
 240 -106 l 1
 192 -106 l 1
 144 -106 l 1
 96 -106 l 1
 96 -58 l 1
 96 -10 l 1
 96 38 l 1
864 -106 m 1
 912 -106 l 1
 912 -154 l 1
 864 -154 l 1
 864 -106 l 1
960 -106 m 1
 1008 -106 l 1
 1008 -154 l 1
 960 -154 l 1
 960 -106 l 1
384 -154 m 1
 432 -154 l 1
 432 -202 l 1
 384 -202 l 1
 384 -154 l 1
EndSplineSet
EndChar

StartChar: w
Encoding: 119 119 22
Width: 1092
VWidth: 1056
Flags: HW
LayerCount: 2
Fore
SplineSet
0 806 m 1
 48 806 l 1
 96 806 l 1
 144 806 l 1
 192 806 l 1
 240 806 l 1
 288 806 l 1
 336 806 l 1
 336 758 l 1
 336 710 l 1
 336 662 l 1
 336 614 l 1
 336 566 l 1
 336 518 l 1
 336 470 l 1
 288 470 l 1
 240 470 l 1
 192 470 l 1
 144 470 l 1
 96 470 l 1
 48 470 l 1
 0 470 l 1
 0 518 l 1
 0 566 l 1
 0 614 l 1
 0 662 l 1
 0 710 l 1
 0 758 l 1
 0 806 l 1
384 806 m 1
 432 806 l 1
 432 758 l 1
 384 758 l 1
 384 806 l 1
432 758 m 1
 480 758 l 1
 480 710 l 1
 432 710 l 1
 432 758 l 1
480 758 m 1
 480 806 l 1
 528 806 l 1
 576 806 l 1
 624 806 l 1
 624 758 l 1
 624 710 l 1
 624 662 l 1
 624 614 l 1
 624 566 l 1
 576 566 l 1
 576 614 l 1
 576 662 l 1
 528 662 l 1
 528 710 l 1
 528 758 l 1
 480 758 l 1
576 566 m 1
 576 518 l 1
 528 518 l 1
 528 566 l 1
 576 566 l 1
576 518 m 1
 624 518 l 1
 624 470 l 1
 624 422 l 1
 576 422 l 1
 576 374 l 1
 624 374 l 1
 624 326 l 1
 576 326 l 1
 576 278 l 1
 528 278 l 1
 528 230 l 1
 528 182 l 1
 480 182 l 1
 480 230 l 1
 432 230 l 1
 384 230 l 1
 384 182 l 1
 336 182 l 1
 288 182 l 1
 240 182 l 1
 192 182 l 1
 144 182 l 1
 96 182 l 1
 48 182 l 1
 48 230 l 1
 48 278 l 1
 96 278 l 1
 96 230 l 1
 144 230 l 1
 192 230 l 1
 240 230 l 1
 288 230 l 1
 336 230 l 1
 336 278 l 1
 288 278 l 1
 240 278 l 1
 192 278 l 1
 144 278 l 1
 144 326 l 1
 144 374 l 1
 192 374 l 1
 192 422 l 1
 240 422 l 1
 240 374 l 1
 288 374 l 1
 288 326 l 1
 336 326 l 1
 336 374 l 1
 288 374 l 1
 288 422 l 1
 336 422 l 1
 384 422 l 1
 384 470 l 1
 384 518 l 1
 384 566 l 1
 384 614 l 1
 384 662 l 1
 432 662 l 1
 480 662 l 1
 480 614 l 1
 528 614 l 1
 528 566 l 1
 480 566 l 1
 480 518 l 1
 432 518 l 1
 432 470 l 1
 480 470 l 1
 480 518 l 1
 528 518 l 1
 528 470 l 1
 576 470 l 1
 576 518 l 1
624 422 m 1
 672 422 l 1
 720 422 l 1
 768 422 l 1
 816 422 l 1
 864 422 l 1
 864 374 l 1
 864 326 l 1
 912 326 l 1
 912 278 l 1
 960 278 l 1
 1008 278 l 1
 1008 230 l 1
 1008 182 l 1
 960 182 l 1
 960 230 l 1
 912 230 l 1
 912 182 l 1
 912 134 l 1
 864 134 l 1
 864 182 l 1
 864 230 l 1
 864 278 l 1
 816 278 l 1
 816 230 l 1
 768 230 l 1
 768 278 l 1
 720 278 l 1
 720 230 l 1
 720 182 l 1
 720 134 l 1
 672 134 l 1
 672 86 l 1
 624 86 l 1
 624 38 l 1
 576 38 l 1
 576 -10 l 1
 624 -10 l 1
 624 -58 l 1
 576 -58 l 1
 576 -106 l 1
 528 -106 l 1
 528 -58 l 1
 528 -10 l 1
 480 -10 l 1
 480 38 l 1
 480 86 l 1
 528 86 l 1
 576 86 l 1
 576 134 l 1
 576 182 l 1
 576 230 l 1
 624 230 l 1
 624 278 l 1
 672 278 l 1
 672 326 l 1
 720 326 l 1
 720 374 l 1
 672 374 l 1
 624 374 l 1
 624 422 l 1
912 326 m 1
 912 374 l 1
 960 374 l 1
 960 422 l 1
 1008 422 l 1
 1008 374 l 1
 1008 326 l 1
 960 326 l 1
 912 326 l 1
912 134 m 1
 960 134 l 1
 960 86 l 1
 960 38 l 1
 1008 38 l 1
 1008 -10 l 1
 1008 -58 l 1
 960 -58 l 1
 912 -58 l 1
 912 -10 l 1
 864 -10 l 1
 864 -58 l 1
 912 -58 l 1
 912 -106 l 1
 912 -154 l 1
 912 -202 l 1
 864 -202 l 1
 864 -154 l 1
 864 -106 l 1
 816 -106 l 1
 816 -154 l 1
 768 -154 l 1
 768 -106 l 1
 720 -106 l 1
 720 -154 l 1
 720 -202 l 1
 672 -202 l 1
 624 -202 l 1
 576 -202 l 1
 576 -154 l 1
 624 -154 l 1
 624 -106 l 1
 672 -106 l 1
 672 -58 l 1
 720 -58 l 1
 720 -10 l 1
 672 -10 l 1
 672 38 l 1
 720 38 l 1
 720 86 l 1
 768 86 l 1
 768 38 l 1
 816 38 l 1
 816 86 l 1
 864 86 l 1
 864 38 l 1
 912 38 l 1
 912 86 l 1
 912 134 l 1
528 -106 m 1
 528 -154 l 1
 480 -154 l 1
 480 -202 l 1
 432 -202 l 1
 384 -202 l 1
 384 -154 l 1
 432 -154 l 1
 432 -106 l 1
 432 -58 l 1
 432 -10 l 1
 480 -10 l 1
 480 -58 l 1
 480 -106 l 1
 528 -106 l 1
432 -10 m 1
 384 -10 l 1
 384 38 l 1
 432 38 l 1
 432 -10 l 1
480 86 m 1
 432 86 l 1
 384 86 l 1
 384 134 l 1
 384 182 l 1
 432 182 l 1
 432 134 l 1
 480 134 l 1
 480 86 l 1
672 806 m 1
 720 806 l 1
 768 806 l 1
 816 806 l 1
 864 806 l 1
 912 806 l 1
 960 806 l 1
 1008 806 l 1
 1008 758 l 1
 1008 710 l 1
 1008 662 l 1
 1008 614 l 1
 1008 566 l 1
 1008 518 l 1
 1008 470 l 1
 960 470 l 1
 912 470 l 1
 864 470 l 1
 816 470 l 1
 768 470 l 1
 720 470 l 1
 672 470 l 1
 672 518 l 1
 672 566 l 1
 672 614 l 1
 672 662 l 1
 672 710 l 1
 672 758 l 1
 672 806 l 1
48 758 m 1
 48 710 l 1
 48 662 l 1
 48 614 l 1
 48 566 l 1
 48 518 l 1
 96 518 l 1
 144 518 l 1
 192 518 l 1
 240 518 l 1
 288 518 l 1
 288 566 l 1
 288 614 l 1
 288 662 l 1
 288 710 l 1
 288 758 l 1
 240 758 l 1
 192 758 l 1
 144 758 l 1
 96 758 l 1
 48 758 l 1
720 758 m 1
 720 710 l 1
 720 662 l 1
 720 614 l 1
 720 566 l 1
 720 518 l 1
 768 518 l 1
 816 518 l 1
 864 518 l 1
 912 518 l 1
 960 518 l 1
 960 566 l 1
 960 614 l 1
 960 662 l 1
 960 710 l 1
 960 758 l 1
 912 758 l 1
 864 758 l 1
 816 758 l 1
 768 758 l 1
 720 758 l 1
96 710 m 1
 144 710 l 1
 192 710 l 1
 240 710 l 1
 240 662 l 1
 240 614 l 1
 240 566 l 1
 192 566 l 1
 144 566 l 1
 96 566 l 1
 96 614 l 1
 96 662 l 1
 96 710 l 1
768 710 m 1
 816 710 l 1
 864 710 l 1
 912 710 l 1
 912 662 l 1
 912 614 l 1
 912 566 l 1
 864 566 l 1
 816 566 l 1
 768 566 l 1
 768 614 l 1
 768 662 l 1
 768 710 l 1
0 422 m 1
 48 422 l 1
 48 374 l 1
 0 374 l 1
 0 422 l 1
48 374 m 1
 96 374 l 1
 96 326 l 1
 48 326 l 1
 48 374 l 1
432 422 m 1
 432 374 l 1
 384 374 l 1
 384 326 l 1
 432 326 l 1
 432 374 l 1
 480 374 l 1
 528 374 l 1
 528 422 l 1
 480 422 l 1
 432 422 l 1
768 374 m 1
 768 326 l 1
 816 326 l 1
 816 374 l 1
 768 374 l 1
0 134 m 1
 48 134 l 1
 96 134 l 1
 144 134 l 1
 192 134 l 1
 240 134 l 1
 288 134 l 1
 336 134 l 1
 336 86 l 1
 336 38 l 1
 336 -10 l 1
 336 -58 l 1
 336 -106 l 1
 336 -154 l 1
 336 -202 l 1
 288 -202 l 1
 240 -202 l 1
 192 -202 l 1
 144 -202 l 1
 96 -202 l 1
 48 -202 l 1
 0 -202 l 1
 0 -154 l 1
 0 -106 l 1
 0 -58 l 1
 0 -10 l 1
 0 38 l 1
 0 86 l 1
 0 134 l 1
48 86 m 1
 48 38 l 1
 48 -10 l 1
 48 -58 l 1
 48 -106 l 1
 48 -154 l 1
 96 -154 l 1
 144 -154 l 1
 192 -154 l 1
 240 -154 l 1
 288 -154 l 1
 288 -106 l 1
 288 -58 l 1
 288 -10 l 1
 288 38 l 1
 288 86 l 1
 240 86 l 1
 192 86 l 1
 144 86 l 1
 96 86 l 1
 48 86 l 1
96 38 m 1
 144 38 l 1
 192 38 l 1
 240 38 l 1
 240 -10 l 1
 240 -58 l 1
 240 -106 l 1
 192 -106 l 1
 144 -106 l 1
 96 -106 l 1
 96 -58 l 1
 96 -10 l 1
 96 38 l 1
768 -10 m 1
 768 -58 l 1
 816 -58 l 1
 816 -10 l 1
 768 -10 l 1
960 -154 m 1
 1008 -154 l 1
 1008 -202 l 1
 960 -202 l 1
 960 -154 l 1
EndSplineSet
EndChar

StartChar: x
Encoding: 120 120 23
Width: 1092
VWidth: 1056
Flags: HW
LayerCount: 2
Fore
SplineSet
0 806 m 1
 48 806 l 1
 96 806 l 1
 144 806 l 1
 192 806 l 1
 240 806 l 1
 288 806 l 1
 336 806 l 1
 336 758 l 1
 336 710 l 1
 336 662 l 1
 336 614 l 1
 336 566 l 1
 336 518 l 1
 336 470 l 1
 288 470 l 1
 240 470 l 1
 192 470 l 1
 144 470 l 1
 96 470 l 1
 48 470 l 1
 0 470 l 1
 0 518 l 1
 0 566 l 1
 0 614 l 1
 0 662 l 1
 0 710 l 1
 0 758 l 1
 0 806 l 1
480 806 m 1
 528 806 l 1
 528 758 l 1
 528 710 l 1
 480 710 l 1
 480 758 l 1
 480 806 l 1
528 710 m 1
 576 710 l 1
 576 662 l 1
 576 614 l 1
 528 614 l 1
 528 662 l 1
 528 710 l 1
576 710 m 1
 576 758 l 1
 624 758 l 1
 624 710 l 1
 576 710 l 1
576 614 m 1
 624 614 l 1
 624 566 l 1
 624 518 l 1
 624 470 l 1
 624 422 l 1
 576 422 l 1
 528 422 l 1
 528 470 l 1
 576 470 l 1
 576 518 l 1
 528 518 l 1
 528 470 l 1
 480 470 l 1
 480 518 l 1
 480 566 l 1
 432 566 l 1
 432 614 l 1
 480 614 l 1
 528 614 l 1
 528 566 l 1
 576 566 l 1
 576 614 l 1
624 422 m 1
 672 422 l 1
 672 374 l 1
 624 374 l 1
 624 422 l 1
672 374 m 1
 720 374 l 1
 720 326 l 1
 672 326 l 1
 672 374 l 1
720 374 m 1
 720 422 l 1
 768 422 l 1
 768 374 l 1
 720 374 l 1
672 326 m 1
 672 278 l 1
 624 278 l 1
 576 278 l 1
 576 326 l 1
 624 326 l 1
 672 326 l 1
576 278 m 1
 576 230 l 1
 528 230 l 1
 528 182 l 1
 576 182 l 1
 576 134 l 1
 528 134 l 1
 480 134 l 1
 480 86 l 1
 528 86 l 1
 576 86 l 1
 624 86 l 1
 624 134 l 1
 672 134 l 1
 672 86 l 1
 672 38 l 1
 624 38 l 1
 576 38 l 1
 576 -10 l 1
 576 -58 l 1
 528 -58 l 1
 528 -10 l 1
 480 -10 l 1
 480 38 l 1
 432 38 l 1
 384 38 l 1
 384 86 l 1
 432 86 l 1
 432 134 l 1
 384 134 l 1
 384 182 l 1
 384 230 l 1
 384 278 l 1
 432 278 l 1
 480 278 l 1
 480 326 l 1
 528 326 l 1
 528 278 l 1
 576 278 l 1
576 230 m 1
 624 230 l 1
 624 182 l 1
 576 182 l 1
 576 230 l 1
672 38 m 1
 720 38 l 1
 720 86 l 1
 720 134 l 1
 720 182 l 1
 768 182 l 1
 768 230 l 1
 816 230 l 1
 816 182 l 1
 864 182 l 1
 864 134 l 1
 816 134 l 1
 768 134 l 1
 768 86 l 1
 816 86 l 1
 864 86 l 1
 864 38 l 1
 912 38 l 1
 960 38 l 1
 1008 38 l 1
 1008 -10 l 1
 1008 -58 l 1
 1008 -106 l 1
 960 -106 l 1
 960 -58 l 1
 912 -58 l 1
 864 -58 l 1
 816 -58 l 1
 816 -10 l 1
 768 -10 l 1
 720 -10 l 1
 672 -10 l 1
 672 38 l 1
720 182 m 1
 672 182 l 1
 672 230 l 1
 720 230 l 1
 720 182 l 1
816 230 m 1
 816 278 l 1
 864 278 l 1
 912 278 l 1
 912 326 l 1
 864 326 l 1
 864 374 l 1
 912 374 l 1
 960 374 l 1
 960 326 l 1
 1008 326 l 1
 1008 278 l 1
 1008 230 l 1
 960 230 l 1
 912 230 l 1
 912 182 l 1
 864 182 l 1
 864 230 l 1
 816 230 l 1
912 182 m 1
 960 182 l 1
 1008 182 l 1
 1008 134 l 1
 960 134 l 1
 960 86 l 1
 912 86 l 1
 864 86 l 1
 864 134 l 1
 912 134 l 1
 912 182 l 1
816 -58 m 1
 816 -106 l 1
 816 -154 l 1
 864 -154 l 1
 864 -106 l 1
 912 -106 l 1
 912 -154 l 1
 960 -154 l 1
 960 -202 l 1
 912 -202 l 1
 864 -202 l 1
 816 -202 l 1
 768 -202 l 1
 768 -154 l 1
 768 -106 l 1
 768 -58 l 1
 816 -58 l 1
576 -58 m 1
 624 -58 l 1
 624 -106 l 1
 576 -106 l 1
 576 -58 l 1
624 -106 m 1
 672 -106 l 1
 720 -106 l 1
 720 -154 l 1
 672 -154 l 1
 624 -154 l 1
 624 -106 l 1
624 -154 m 1
 624 -202 l 1
 576 -202 l 1
 528 -202 l 1
 528 -154 l 1
 576 -154 l 1
 624 -154 l 1
528 -154 m 1
 480 -154 l 1
 432 -154 l 1
 432 -106 l 1
 480 -106 l 1
 528 -106 l 1
 528 -154 l 1
432 -154 m 1
 432 -202 l 1
 384 -202 l 1
 384 -154 l 1
 432 -154 l 1
480 -10 m 1
 480 -58 l 1
 432 -58 l 1
 384 -58 l 1
 384 -10 l 1
 432 -10 l 1
 480 -10 l 1
480 326 m 1
 432 326 l 1
 384 326 l 1
 384 374 l 1
 384 422 l 1
 432 422 l 1
 432 374 l 1
 480 374 l 1
 480 326 l 1
432 422 m 1
 432 470 l 1
 480 470 l 1
 480 422 l 1
 432 422 l 1
432 470 m 1
 384 470 l 1
 384 518 l 1
 384 566 l 1
 432 566 l 1
 432 518 l 1
 432 470 l 1
480 422 m 1
 528 422 l 1
 528 374 l 1
 480 374 l 1
 480 422 l 1
672 806 m 1
 720 806 l 1
 768 806 l 1
 816 806 l 1
 864 806 l 1
 912 806 l 1
 960 806 l 1
 1008 806 l 1
 1008 758 l 1
 1008 710 l 1
 1008 662 l 1
 1008 614 l 1
 1008 566 l 1
 1008 518 l 1
 1008 470 l 1
 960 470 l 1
 912 470 l 1
 864 470 l 1
 816 470 l 1
 768 470 l 1
 720 470 l 1
 672 470 l 1
 672 518 l 1
 672 566 l 1
 672 614 l 1
 672 662 l 1
 672 710 l 1
 672 758 l 1
 672 806 l 1
48 758 m 1
 48 710 l 1
 48 662 l 1
 48 614 l 1
 48 566 l 1
 48 518 l 1
 96 518 l 1
 144 518 l 1
 192 518 l 1
 240 518 l 1
 288 518 l 1
 288 566 l 1
 288 614 l 1
 288 662 l 1
 288 710 l 1
 288 758 l 1
 240 758 l 1
 192 758 l 1
 144 758 l 1
 96 758 l 1
 48 758 l 1
720 758 m 1
 720 710 l 1
 720 662 l 1
 720 614 l 1
 720 566 l 1
 720 518 l 1
 768 518 l 1
 816 518 l 1
 864 518 l 1
 912 518 l 1
 960 518 l 1
 960 566 l 1
 960 614 l 1
 960 662 l 1
 960 710 l 1
 960 758 l 1
 912 758 l 1
 864 758 l 1
 816 758 l 1
 768 758 l 1
 720 758 l 1
96 710 m 1
 144 710 l 1
 192 710 l 1
 240 710 l 1
 240 662 l 1
 240 614 l 1
 240 566 l 1
 192 566 l 1
 144 566 l 1
 96 566 l 1
 96 614 l 1
 96 662 l 1
 96 710 l 1
768 710 m 1
 816 710 l 1
 864 710 l 1
 912 710 l 1
 912 662 l 1
 912 614 l 1
 912 566 l 1
 864 566 l 1
 816 566 l 1
 768 566 l 1
 768 614 l 1
 768 662 l 1
 768 710 l 1
0 422 m 1
 48 422 l 1
 48 374 l 1
 0 374 l 1
 0 422 l 1
48 374 m 1
 96 374 l 1
 144 374 l 1
 144 326 l 1
 96 326 l 1
 96 278 l 1
 144 278 l 1
 144 230 l 1
 192 230 l 1
 192 182 l 1
 144 182 l 1
 96 182 l 1
 48 182 l 1
 48 230 l 1
 48 278 l 1
 48 326 l 1
 48 374 l 1
144 374 m 1
 144 422 l 1
 192 422 l 1
 192 374 l 1
 144 374 l 1
144 326 m 1
 192 326 l 1
 240 326 l 1
 240 374 l 1
 240 422 l 1
 288 422 l 1
 336 422 l 1
 336 374 l 1
 288 374 l 1
 288 326 l 1
 336 326 l 1
 336 278 l 1
 288 278 l 1
 288 230 l 1
 240 230 l 1
 192 230 l 1
 192 278 l 1
 144 278 l 1
 144 326 l 1
288 230 m 1
 336 230 l 1
 336 182 l 1
 288 182 l 1
 288 230 l 1
432 230 m 1
 432 182 l 1
 480 182 l 1
 480 230 l 1
 432 230 l 1
0 134 m 1
 48 134 l 1
 96 134 l 1
 144 134 l 1
 192 134 l 1
 240 134 l 1
 288 134 l 1
 336 134 l 1
 336 86 l 1
 336 38 l 1
 336 -10 l 1
 336 -58 l 1
 336 -106 l 1
 336 -154 l 1
 336 -202 l 1
 288 -202 l 1
 240 -202 l 1
 192 -202 l 1
 144 -202 l 1
 96 -202 l 1
 48 -202 l 1
 0 -202 l 1
 0 -154 l 1
 0 -106 l 1
 0 -58 l 1
 0 -10 l 1
 0 38 l 1
 0 86 l 1
 0 134 l 1
48 86 m 1
 48 38 l 1
 48 -10 l 1
 48 -58 l 1
 48 -106 l 1
 48 -154 l 1
 96 -154 l 1
 144 -154 l 1
 192 -154 l 1
 240 -154 l 1
 288 -154 l 1
 288 -106 l 1
 288 -58 l 1
 288 -10 l 1
 288 38 l 1
 288 86 l 1
 240 86 l 1
 192 86 l 1
 144 86 l 1
 96 86 l 1
 48 86 l 1
96 38 m 1
 144 38 l 1
 192 38 l 1
 240 38 l 1
 240 -10 l 1
 240 -58 l 1
 240 -106 l 1
 192 -106 l 1
 144 -106 l 1
 96 -106 l 1
 96 -58 l 1
 96 -10 l 1
 96 38 l 1
EndSplineSet
EndChar

StartChar: y
Encoding: 121 121 24
Width: 1092
VWidth: 1056
Flags: HW
LayerCount: 2
Fore
SplineSet
0 806 m 1
 48 806 l 1
 96 806 l 1
 144 806 l 1
 192 806 l 1
 240 806 l 1
 288 806 l 1
 336 806 l 1
 336 758 l 1
 336 710 l 1
 336 662 l 1
 336 614 l 1
 336 566 l 1
 336 518 l 1
 336 470 l 1
 288 470 l 1
 240 470 l 1
 192 470 l 1
 144 470 l 1
 96 470 l 1
 48 470 l 1
 0 470 l 1
 0 518 l 1
 0 566 l 1
 0 614 l 1
 0 662 l 1
 0 710 l 1
 0 758 l 1
 0 806 l 1
384 806 m 1
 432 806 l 1
 480 806 l 1
 480 758 l 1
 432 758 l 1
 432 710 l 1
 384 710 l 1
 384 758 l 1
 384 806 l 1
528 806 m 1
 576 806 l 1
 576 758 l 1
 528 758 l 1
 528 806 l 1
576 758 m 1
 624 758 l 1
 624 710 l 1
 624 662 l 1
 576 662 l 1
 576 614 l 1
 576 566 l 1
 624 566 l 1
 624 518 l 1
 624 470 l 1
 624 422 l 1
 624 374 l 1
 672 374 l 1
 672 422 l 1
 720 422 l 1
 720 374 l 1
 720 326 l 1
 672 326 l 1
 624 326 l 1
 576 326 l 1
 576 278 l 1
 576 230 l 1
 528 230 l 1
 528 278 l 1
 528 326 l 1
 528 374 l 1
 528 422 l 1
 480 422 l 1
 480 470 l 1
 480 518 l 1
 480 566 l 1
 528 566 l 1
 528 614 l 1
 528 662 l 1
 480 662 l 1
 480 710 l 1
 528 710 l 1
 576 710 l 1
 576 758 l 1
576 230 m 1
 624 230 l 1
 624 182 l 1
 576 182 l 1
 576 230 l 1
576 182 m 1
 576 134 l 1
 624 134 l 1
 624 86 l 1
 576 86 l 1
 528 86 l 1
 528 38 l 1
 480 38 l 1
 480 -10 l 1
 480 -58 l 1
 528 -58 l 1
 528 -106 l 1
 528 -154 l 1
 480 -154 l 1
 480 -106 l 1
 432 -106 l 1
 384 -106 l 1
 384 -58 l 1
 384 -10 l 1
 432 -10 l 1
 432 38 l 1
 384 38 l 1
 384 86 l 1
 384 134 l 1
 384 182 l 1
 432 182 l 1
 432 134 l 1
 432 86 l 1
 480 86 l 1
 480 134 l 1
 528 134 l 1
 528 182 l 1
 576 182 l 1
528 -58 m 1
 528 -10 l 1
 576 -10 l 1
 576 -58 l 1
 528 -58 l 1
576 -10 m 1
 576 38 l 1
 624 38 l 1
 672 38 l 1
 720 38 l 1
 720 86 l 1
 720 134 l 1
 768 134 l 1
 768 86 l 1
 816 86 l 1
 816 38 l 1
 816 -10 l 1
 864 -10 l 1
 912 -10 l 1
 960 -10 l 1
 960 -58 l 1
 912 -58 l 1
 864 -58 l 1
 816 -58 l 1
 768 -58 l 1
 768 -106 l 1
 768 -154 l 1
 720 -154 l 1
 720 -106 l 1
 672 -106 l 1
 672 -58 l 1
 672 -10 l 1
 624 -10 l 1
 576 -10 l 1
720 134 m 1
 672 134 l 1
 672 182 l 1
 720 182 l 1
 720 134 l 1
720 182 m 1
 720 230 l 1
 672 230 l 1
 672 278 l 1
 720 278 l 1
 768 278 l 1
 816 278 l 1
 816 326 l 1
 816 374 l 1
 816 422 l 1
 864 422 l 1
 864 374 l 1
 864 326 l 1
 912 326 l 1
 912 278 l 1
 912 230 l 1
 912 182 l 1
 864 182 l 1
 864 230 l 1
 816 230 l 1
 768 230 l 1
 768 182 l 1
 720 182 l 1
912 182 m 1
 960 182 l 1
 960 134 l 1
 912 134 l 1
 912 182 l 1
960 182 m 1
 960 230 l 1
 1008 230 l 1
 1008 182 l 1
 960 182 l 1
864 182 m 1
 864 134 l 1
 864 86 l 1
 816 86 l 1
 816 134 l 1
 816 182 l 1
 864 182 l 1
864 86 m 1
 912 86 l 1
 960 86 l 1
 960 38 l 1
 912 38 l 1
 864 38 l 1
 864 86 l 1
960 38 m 1
 1008 38 l 1
 1008 -10 l 1
 960 -10 l 1
 960 38 l 1
768 -154 m 1
 816 -154 l 1
 816 -202 l 1
 768 -202 l 1
 768 -154 l 1
672 -106 m 1
 672 -154 l 1
 672 -202 l 1
 624 -202 l 1
 624 -154 l 1
 624 -106 l 1
 672 -106 l 1
624 -106 m 1
 576 -106 l 1
 576 -58 l 1
 624 -58 l 1
 624 -106 l 1
480 -154 m 1
 480 -202 l 1
 432 -202 l 1
 384 -202 l 1
 384 -154 l 1
 432 -154 l 1
 480 -154 l 1
384 182 m 1
 336 182 l 1
 288 182 l 1
 288 230 l 1
 336 230 l 1
 336 278 l 1
 384 278 l 1
 384 326 l 1
 384 374 l 1
 432 374 l 1
 432 326 l 1
 480 326 l 1
 480 278 l 1
 432 278 l 1
 432 230 l 1
 384 230 l 1
 384 182 l 1
288 230 m 1
 240 230 l 1
 240 278 l 1
 192 278 l 1
 192 230 l 1
 144 230 l 1
 144 182 l 1
 96 182 l 1
 96 230 l 1
 96 278 l 1
 96 326 l 1
 48 326 l 1
 48 374 l 1
 96 374 l 1
 96 422 l 1
 144 422 l 1
 192 422 l 1
 192 374 l 1
 144 374 l 1
 144 326 l 1
 192 326 l 1
 240 326 l 1
 288 326 l 1
 336 326 l 1
 336 278 l 1
 288 278 l 1
 288 230 l 1
48 374 m 1
 0 374 l 1
 0 422 l 1
 48 422 l 1
 48 374 l 1
384 374 m 1
 336 374 l 1
 288 374 l 1
 240 374 l 1
 240 422 l 1
 288 422 l 1
 336 422 l 1
 384 422 l 1
 384 374 l 1
384 422 m 1
 384 470 l 1
 384 518 l 1
 432 518 l 1
 432 470 l 1
 432 422 l 1
 384 422 l 1
432 422 m 1
 480 422 l 1
 480 374 l 1
 432 374 l 1
 432 422 l 1
432 230 m 1
 480 230 l 1
 480 182 l 1
 432 182 l 1
 432 230 l 1
480 662 m 1
 480 614 l 1
 432 614 l 1
 384 614 l 1
 384 662 l 1
 432 662 l 1
 480 662 l 1
672 806 m 1
 720 806 l 1
 768 806 l 1
 816 806 l 1
 864 806 l 1
 912 806 l 1
 960 806 l 1
 1008 806 l 1
 1008 758 l 1
 1008 710 l 1
 1008 662 l 1
 1008 614 l 1
 1008 566 l 1
 1008 518 l 1
 1008 470 l 1
 960 470 l 1
 912 470 l 1
 864 470 l 1
 816 470 l 1
 768 470 l 1
 720 470 l 1
 672 470 l 1
 672 518 l 1
 672 566 l 1
 672 614 l 1
 672 662 l 1
 672 710 l 1
 672 758 l 1
 672 806 l 1
48 758 m 1
 48 710 l 1
 48 662 l 1
 48 614 l 1
 48 566 l 1
 48 518 l 1
 96 518 l 1
 144 518 l 1
 192 518 l 1
 240 518 l 1
 288 518 l 1
 288 566 l 1
 288 614 l 1
 288 662 l 1
 288 710 l 1
 288 758 l 1
 240 758 l 1
 192 758 l 1
 144 758 l 1
 96 758 l 1
 48 758 l 1
720 758 m 1
 720 710 l 1
 720 662 l 1
 720 614 l 1
 720 566 l 1
 720 518 l 1
 768 518 l 1
 816 518 l 1
 864 518 l 1
 912 518 l 1
 960 518 l 1
 960 566 l 1
 960 614 l 1
 960 662 l 1
 960 710 l 1
 960 758 l 1
 912 758 l 1
 864 758 l 1
 816 758 l 1
 768 758 l 1
 720 758 l 1
96 710 m 1
 144 710 l 1
 192 710 l 1
 240 710 l 1
 240 662 l 1
 240 614 l 1
 240 566 l 1
 192 566 l 1
 144 566 l 1
 96 566 l 1
 96 614 l 1
 96 662 l 1
 96 710 l 1
768 710 m 1
 816 710 l 1
 864 710 l 1
 912 710 l 1
 912 662 l 1
 912 614 l 1
 912 566 l 1
 864 566 l 1
 816 566 l 1
 768 566 l 1
 768 614 l 1
 768 662 l 1
 768 710 l 1
528 518 m 1
 528 470 l 1
 576 470 l 1
 576 518 l 1
 528 518 l 1
912 422 m 1
 960 422 l 1
 1008 422 l 1
 1008 374 l 1
 960 374 l 1
 912 374 l 1
 912 422 l 1
960 326 m 1
 1008 326 l 1
 1008 278 l 1
 960 278 l 1
 960 326 l 1
0 134 m 1
 48 134 l 1
 96 134 l 1
 144 134 l 1
 192 134 l 1
 240 134 l 1
 288 134 l 1
 336 134 l 1
 336 86 l 1
 336 38 l 1
 336 -10 l 1
 336 -58 l 1
 336 -106 l 1
 336 -154 l 1
 336 -202 l 1
 288 -202 l 1
 240 -202 l 1
 192 -202 l 1
 144 -202 l 1
 96 -202 l 1
 48 -202 l 1
 0 -202 l 1
 0 -154 l 1
 0 -106 l 1
 0 -58 l 1
 0 -10 l 1
 0 38 l 1
 0 86 l 1
 0 134 l 1
48 86 m 1
 48 38 l 1
 48 -10 l 1
 48 -58 l 1
 48 -106 l 1
 48 -154 l 1
 96 -154 l 1
 144 -154 l 1
 192 -154 l 1
 240 -154 l 1
 288 -154 l 1
 288 -106 l 1
 288 -58 l 1
 288 -10 l 1
 288 38 l 1
 288 86 l 1
 240 86 l 1
 192 86 l 1
 144 86 l 1
 96 86 l 1
 48 86 l 1
96 38 m 1
 144 38 l 1
 192 38 l 1
 240 38 l 1
 240 -10 l 1
 240 -58 l 1
 240 -106 l 1
 192 -106 l 1
 144 -106 l 1
 96 -106 l 1
 96 -58 l 1
 96 -10 l 1
 96 38 l 1
864 -106 m 1
 912 -106 l 1
 912 -154 l 1
 864 -154 l 1
 864 -106 l 1
960 -106 m 1
 1008 -106 l 1
 1008 -154 l 1
 960 -154 l 1
 960 -106 l 1
EndSplineSet
EndChar

StartChar: z
Encoding: 122 122 25
Width: 1092
VWidth: 1056
Flags: HW
LayerCount: 2
Fore
SplineSet
0 806 m 1
 48 806 l 1
 96 806 l 1
 144 806 l 1
 192 806 l 1
 240 806 l 1
 288 806 l 1
 336 806 l 1
 336 758 l 1
 336 710 l 1
 336 662 l 1
 336 614 l 1
 336 566 l 1
 336 518 l 1
 336 470 l 1
 288 470 l 1
 240 470 l 1
 192 470 l 1
 144 470 l 1
 96 470 l 1
 48 470 l 1
 0 470 l 1
 0 518 l 1
 0 566 l 1
 0 614 l 1
 0 662 l 1
 0 710 l 1
 0 758 l 1
 0 806 l 1
384 806 m 1
 432 806 l 1
 480 806 l 1
 480 758 l 1
 432 758 l 1
 432 710 l 1
 384 710 l 1
 384 758 l 1
 384 806 l 1
480 758 m 1
 528 758 l 1
 528 806 l 1
 576 806 l 1
 624 806 l 1
 624 758 l 1
 576 758 l 1
 576 710 l 1
 576 662 l 1
 528 662 l 1
 528 710 l 1
 480 710 l 1
 480 758 l 1
528 662 m 1
 528 614 l 1
 480 614 l 1
 480 662 l 1
 528 662 l 1
528 614 m 1
 576 614 l 1
 576 566 l 1
 624 566 l 1
 624 518 l 1
 624 470 l 1
 624 422 l 1
 624 374 l 1
 672 374 l 1
 672 422 l 1
 720 422 l 1
 720 374 l 1
 720 326 l 1
 672 326 l 1
 624 326 l 1
 576 326 l 1
 576 278 l 1
 576 230 l 1
 528 230 l 1
 528 278 l 1
 528 326 l 1
 480 326 l 1
 480 374 l 1
 528 374 l 1
 528 422 l 1
 528 470 l 1
 576 470 l 1
 576 518 l 1
 528 518 l 1
 528 470 l 1
 480 470 l 1
 480 518 l 1
 480 566 l 1
 528 566 l 1
 528 614 l 1
576 230 m 1
 624 230 l 1
 624 182 l 1
 576 182 l 1
 576 230 l 1
576 182 m 1
 576 134 l 1
 624 134 l 1
 624 86 l 1
 576 86 l 1
 528 86 l 1
 528 38 l 1
 480 38 l 1
 480 86 l 1
 432 86 l 1
 432 38 l 1
 384 38 l 1
 384 86 l 1
 384 134 l 1
 384 182 l 1
 336 182 l 1
 288 182 l 1
 240 182 l 1
 192 182 l 1
 192 230 l 1
 240 230 l 1
 240 278 l 1
 288 278 l 1
 288 230 l 1
 336 230 l 1
 336 278 l 1
 288 278 l 1
 288 326 l 1
 336 326 l 1
 336 374 l 1
 288 374 l 1
 240 374 l 1
 240 422 l 1
 288 422 l 1
 336 422 l 1
 384 422 l 1
 384 374 l 1
 384 326 l 1
 432 326 l 1
 432 278 l 1
 432 230 l 1
 480 230 l 1
 480 182 l 1
 480 134 l 1
 528 134 l 1
 528 182 l 1
 576 182 l 1
192 230 m 1
 144 230 l 1
 144 182 l 1
 96 182 l 1
 48 182 l 1
 48 230 l 1
 96 230 l 1
 96 278 l 1
 144 278 l 1
 144 326 l 1
 192 326 l 1
 192 374 l 1
 240 374 l 1
 240 326 l 1
 240 278 l 1
 192 278 l 1
 192 230 l 1
192 374 m 1
 144 374 l 1
 96 374 l 1
 96 422 l 1
 144 422 l 1
 192 422 l 1
 192 374 l 1
96 374 m 1
 96 326 l 1
 48 326 l 1
 48 374 l 1
 96 374 l 1
48 374 m 1
 0 374 l 1
 0 422 l 1
 48 422 l 1
 48 374 l 1
384 422 m 1
 384 470 l 1
 384 518 l 1
 432 518 l 1
 432 470 l 1
 432 422 l 1
 384 422 l 1
432 422 m 1
 480 422 l 1
 480 374 l 1
 432 374 l 1
 432 422 l 1
672 806 m 1
 720 806 l 1
 768 806 l 1
 816 806 l 1
 864 806 l 1
 912 806 l 1
 960 806 l 1
 1008 806 l 1
 1008 758 l 1
 1008 710 l 1
 1008 662 l 1
 1008 614 l 1
 1008 566 l 1
 1008 518 l 1
 1008 470 l 1
 960 470 l 1
 912 470 l 1
 864 470 l 1
 816 470 l 1
 768 470 l 1
 720 470 l 1
 672 470 l 1
 672 518 l 1
 672 566 l 1
 672 614 l 1
 672 662 l 1
 672 710 l 1
 672 758 l 1
 672 806 l 1
48 758 m 1
 48 710 l 1
 48 662 l 1
 48 614 l 1
 48 566 l 1
 48 518 l 1
 96 518 l 1
 144 518 l 1
 192 518 l 1
 240 518 l 1
 288 518 l 1
 288 566 l 1
 288 614 l 1
 288 662 l 1
 288 710 l 1
 288 758 l 1
 240 758 l 1
 192 758 l 1
 144 758 l 1
 96 758 l 1
 48 758 l 1
720 758 m 1
 720 710 l 1
 720 662 l 1
 720 614 l 1
 720 566 l 1
 720 518 l 1
 768 518 l 1
 816 518 l 1
 864 518 l 1
 912 518 l 1
 960 518 l 1
 960 566 l 1
 960 614 l 1
 960 662 l 1
 960 710 l 1
 960 758 l 1
 912 758 l 1
 864 758 l 1
 816 758 l 1
 768 758 l 1
 720 758 l 1
96 710 m 1
 144 710 l 1
 192 710 l 1
 240 710 l 1
 240 662 l 1
 240 614 l 1
 240 566 l 1
 192 566 l 1
 144 566 l 1
 96 566 l 1
 96 614 l 1
 96 662 l 1
 96 710 l 1
768 710 m 1
 816 710 l 1
 864 710 l 1
 912 710 l 1
 912 662 l 1
 912 614 l 1
 912 566 l 1
 864 566 l 1
 816 566 l 1
 768 566 l 1
 768 614 l 1
 768 662 l 1
 768 710 l 1
384 662 m 1
 432 662 l 1
 432 614 l 1
 384 614 l 1
 384 662 l 1
816 422 m 1
 864 422 l 1
 864 374 l 1
 864 326 l 1
 912 326 l 1
 912 278 l 1
 960 278 l 1
 960 326 l 1
 1008 326 l 1
 1008 278 l 1
 1008 230 l 1
 1008 182 l 1
 960 182 l 1
 960 230 l 1
 912 230 l 1
 912 182 l 1
 864 182 l 1
 864 230 l 1
 816 230 l 1
 768 230 l 1
 768 182 l 1
 720 182 l 1
 720 230 l 1
 672 230 l 1
 672 278 l 1
 720 278 l 1
 768 278 l 1
 816 278 l 1
 816 326 l 1
 816 374 l 1
 816 422 l 1
960 182 m 1
 960 134 l 1
 912 134 l 1
 912 182 l 1
 960 182 l 1
864 182 m 1
 864 134 l 1
 864 86 l 1
 816 86 l 1
 816 134 l 1
 816 182 l 1
 864 182 l 1
864 86 m 1
 912 86 l 1
 960 86 l 1
 960 38 l 1
 912 38 l 1
 864 38 l 1
 864 86 l 1
960 38 m 1
 1008 38 l 1
 1008 -10 l 1
 960 -10 l 1
 960 38 l 1
960 -10 m 1
 960 -58 l 1
 912 -58 l 1
 864 -58 l 1
 816 -58 l 1
 768 -58 l 1
 768 -106 l 1
 768 -154 l 1
 720 -154 l 1
 720 -106 l 1
 672 -106 l 1
 672 -58 l 1
 672 -10 l 1
 624 -10 l 1
 576 -10 l 1
 576 38 l 1
 624 38 l 1
 672 38 l 1
 720 38 l 1
 720 86 l 1
 720 134 l 1
 768 134 l 1
 768 86 l 1
 816 86 l 1
 816 38 l 1
 816 -10 l 1
 864 -10 l 1
 912 -10 l 1
 960 -10 l 1
768 -154 m 1
 816 -154 l 1
 816 -202 l 1
 768 -202 l 1
 768 -154 l 1
672 -106 m 1
 672 -154 l 1
 672 -202 l 1
 624 -202 l 1
 624 -154 l 1
 624 -106 l 1
 672 -106 l 1
624 -106 m 1
 576 -106 l 1
 576 -58 l 1
 624 -58 l 1
 624 -106 l 1
576 -58 m 1
 528 -58 l 1
 528 -10 l 1
 576 -10 l 1
 576 -58 l 1
528 -58 m 1
 528 -106 l 1
 528 -154 l 1
 528 -202 l 1
 480 -202 l 1
 432 -202 l 1
 384 -202 l 1
 384 -154 l 1
 432 -154 l 1
 432 -106 l 1
 384 -106 l 1
 384 -58 l 1
 384 -10 l 1
 432 -10 l 1
 432 -58 l 1
 480 -58 l 1
 528 -58 l 1
720 134 m 1
 672 134 l 1
 672 182 l 1
 720 182 l 1
 720 134 l 1
912 422 m 1
 960 422 l 1
 1008 422 l 1
 1008 374 l 1
 960 374 l 1
 912 374 l 1
 912 422 l 1
0 134 m 1
 48 134 l 1
 96 134 l 1
 144 134 l 1
 192 134 l 1
 240 134 l 1
 288 134 l 1
 336 134 l 1
 336 86 l 1
 336 38 l 1
 336 -10 l 1
 336 -58 l 1
 336 -106 l 1
 336 -154 l 1
 336 -202 l 1
 288 -202 l 1
 240 -202 l 1
 192 -202 l 1
 144 -202 l 1
 96 -202 l 1
 48 -202 l 1
 0 -202 l 1
 0 -154 l 1
 0 -106 l 1
 0 -58 l 1
 0 -10 l 1
 0 38 l 1
 0 86 l 1
 0 134 l 1
48 86 m 1
 48 38 l 1
 48 -10 l 1
 48 -58 l 1
 48 -106 l 1
 48 -154 l 1
 96 -154 l 1
 144 -154 l 1
 192 -154 l 1
 240 -154 l 1
 288 -154 l 1
 288 -106 l 1
 288 -58 l 1
 288 -10 l 1
 288 38 l 1
 288 86 l 1
 240 86 l 1
 192 86 l 1
 144 86 l 1
 96 86 l 1
 48 86 l 1
96 38 m 1
 144 38 l 1
 192 38 l 1
 240 38 l 1
 240 -10 l 1
 240 -58 l 1
 240 -106 l 1
 192 -106 l 1
 144 -106 l 1
 96 -106 l 1
 96 -58 l 1
 96 -10 l 1
 96 38 l 1
864 -106 m 1
 912 -106 l 1
 912 -154 l 1
 864 -154 l 1
 864 -106 l 1
960 -106 m 1
 1008 -106 l 1
 1008 -154 l 1
 960 -154 l 1
 960 -106 l 1
EndSplineSet
EndChar

StartChar: A
Encoding: 65 65 26
Width: 1092
VWidth: 1056
Flags: HW
LayerCount: 2
Fore
SplineSet
-0 806 m 1
 48 806 l 1
 96 806 l 1
 144 806 l 1
 192 806 l 1
 240 806 l 1
 288 806 l 1
 336 806 l 1
 336 758 l 1
 336 710 l 1
 336 662 l 1
 336 614 l 1
 336 566 l 1
 336 518 l 1
 336 470 l 1
 288 470 l 1
 240 470 l 1
 192 470 l 1
 144 470 l 1
 96 470 l 1
 48 470 l 1
 -0 470 l 1
 -0 518 l 1
 -0 566 l 1
 -0 614 l 1
 -0 662 l 1
 -0 710 l 1
 -0 758 l 1
 -0 806 l 1
384 806 m 1
 432 806 l 1
 480 806 l 1
 480 758 l 1
 528 758 l 1
 528 710 l 1
 576 710 l 1
 624 710 l 1
 624 662 l 1
 576 662 l 1
 528 662 l 1
 528 614 l 1
 528 566 l 1
 576 566 l 1
 576 518 l 1
 528 518 l 1
 528 470 l 1
 576 470 l 1
 576 518 l 1
 624 518 l 1
 624 470 l 1
 624 422 l 1
 576 422 l 1
 576 374 l 1
 624 374 l 1
 624 326 l 1
 576 326 l 1
 576 278 l 1
 528 278 l 1
 480 278 l 1
 480 326 l 1
 528 326 l 1
 528 374 l 1
 528 422 l 1
 480 422 l 1
 480 470 l 1
 480 518 l 1
 432 518 l 1
 432 470 l 1
 432 422 l 1
 432 374 l 1
 432 326 l 1
 384 326 l 1
 384 374 l 1
 336 374 l 1
 288 374 l 1
 288 422 l 1
 336 422 l 1
 384 422 l 1
 384 470 l 1
 384 518 l 1
 384 566 l 1
 384 614 l 1
 384 662 l 1
 432 662 l 1
 432 710 l 1
 432 758 l 1
 384 758 l 1
 384 806 l 1
528 758 m 1
 528 806 l 1
 576 806 l 1
 576 758 l 1
 528 758 l 1
576 566 m 1
 576 614 l 1
 624 614 l 1
 624 566 l 1
 576 566 l 1
624 422 m 1
 672 422 l 1
 720 422 l 1
 768 422 l 1
 816 422 l 1
 864 422 l 1
 864 374 l 1
 864 326 l 1
 912 326 l 1
 912 278 l 1
 960 278 l 1
 960 230 l 1
 1008 230 l 1
 1008 182 l 1
 1008 134 l 1
 960 134 l 1
 960 86 l 1
 960 38 l 1
 1008 38 l 1
 1008 -10 l 1
 1008 -58 l 1
 960 -58 l 1
 912 -58 l 1
 912 -10 l 1
 864 -10 l 1
 864 -58 l 1
 912 -58 l 1
 912 -106 l 1
 912 -154 l 1
 912 -202 l 1
 864 -202 l 1
 864 -154 l 1
 864 -106 l 1
 816 -106 l 1
 816 -154 l 1
 768 -154 l 1
 768 -106 l 1
 720 -106 l 1
 720 -154 l 1
 720 -202 l 1
 672 -202 l 1
 624 -202 l 1
 576 -202 l 1
 576 -154 l 1
 624 -154 l 1
 624 -106 l 1
 672 -106 l 1
 672 -58 l 1
 720 -58 l 1
 720 -10 l 1
 672 -10 l 1
 672 38 l 1
 720 38 l 1
 720 86 l 1
 768 86 l 1
 768 38 l 1
 816 38 l 1
 816 86 l 1
 864 86 l 1
 864 38 l 1
 912 38 l 1
 912 86 l 1
 912 134 l 1
 864 134 l 1
 864 182 l 1
 864 230 l 1
 864 278 l 1
 816 278 l 1
 816 230 l 1
 768 230 l 1
 768 278 l 1
 720 278 l 1
 720 230 l 1
 720 182 l 1
 720 134 l 1
 672 134 l 1
 672 86 l 1
 624 86 l 1
 624 38 l 1
 576 38 l 1
 576 -10 l 1
 624 -10 l 1
 624 -58 l 1
 576 -58 l 1
 576 -106 l 1
 528 -106 l 1
 528 -58 l 1
 528 -10 l 1
 480 -10 l 1
 480 -58 l 1
 432 -58 l 1
 432 -10 l 1
 384 -10 l 1
 384 38 l 1
 432 38 l 1
 432 86 l 1
 384 86 l 1
 384 134 l 1
 384 182 l 1
 336 182 l 1
 288 182 l 1
 240 182 l 1
 192 182 l 1
 192 230 l 1
 240 230 l 1
 288 230 l 1
 336 230 l 1
 336 278 l 1
 384 278 l 1
 384 230 l 1
 432 230 l 1
 432 182 l 1
 432 134 l 1
 480 134 l 1
 480 86 l 1
 528 86 l 1
 576 86 l 1
 576 134 l 1
 576 182 l 1
 576 230 l 1
 624 230 l 1
 624 278 l 1
 672 278 l 1
 672 326 l 1
 720 326 l 1
 720 374 l 1
 672 374 l 1
 624 374 l 1
 624 422 l 1
912 326 m 1
 912 374 l 1
 960 374 l 1
 960 422 l 1
 1008 422 l 1
 1008 374 l 1
 1008 326 l 1
 960 326 l 1
 912 326 l 1
192 230 m 1
 144 230 l 1
 96 230 l 1
 48 230 l 1
 48 278 l 1
 96 278 l 1
 144 278 l 1
 192 278 l 1
 192 230 l 1
336 278 m 1
 288 278 l 1
 240 278 l 1
 240 326 l 1
 288 326 l 1
 336 326 l 1
 336 278 l 1
240 326 m 1
 192 326 l 1
 144 326 l 1
 96 326 l 1
 96 374 l 1
 144 374 l 1
 192 374 l 1
 192 422 l 1
 240 422 l 1
 240 374 l 1
 240 326 l 1
432 230 m 1
 432 278 l 1
 480 278 l 1
 480 230 l 1
 432 230 l 1
480 134 m 1
 480 182 l 1
 528 182 l 1
 528 134 l 1
 480 134 l 1
672 806 m 1
 720 806 l 1
 768 806 l 1
 816 806 l 1
 864 806 l 1
 912 806 l 1
 960 806 l 1
 1008 806 l 1
 1008 758 l 1
 1008 710 l 1
 1008 662 l 1
 1008 614 l 1
 1008 566 l 1
 1008 518 l 1
 1008 470 l 1
 960 470 l 1
 912 470 l 1
 864 470 l 1
 816 470 l 1
 768 470 l 1
 720 470 l 1
 672 470 l 1
 672 518 l 1
 672 566 l 1
 672 614 l 1
 672 662 l 1
 672 710 l 1
 672 758 l 1
 672 806 l 1
48 758 m 1
 48 710 l 1
 48 662 l 1
 48 614 l 1
 48 566 l 1
 48 518 l 1
 96 518 l 1
 144 518 l 1
 192 518 l 1
 240 518 l 1
 288 518 l 1
 288 566 l 1
 288 614 l 1
 288 662 l 1
 288 710 l 1
 288 758 l 1
 240 758 l 1
 192 758 l 1
 144 758 l 1
 96 758 l 1
 48 758 l 1
720 758 m 1
 720 710 l 1
 720 662 l 1
 720 614 l 1
 720 566 l 1
 720 518 l 1
 768 518 l 1
 816 518 l 1
 864 518 l 1
 912 518 l 1
 960 518 l 1
 960 566 l 1
 960 614 l 1
 960 662 l 1
 960 710 l 1
 960 758 l 1
 912 758 l 1
 864 758 l 1
 816 758 l 1
 768 758 l 1
 720 758 l 1
96 710 m 1
 144 710 l 1
 192 710 l 1
 240 710 l 1
 240 662 l 1
 240 614 l 1
 240 566 l 1
 192 566 l 1
 144 566 l 1
 96 566 l 1
 96 614 l 1
 96 662 l 1
 96 710 l 1
768 710 m 1
 816 710 l 1
 864 710 l 1
 912 710 l 1
 912 662 l 1
 912 614 l 1
 912 566 l 1
 864 566 l 1
 816 566 l 1
 768 566 l 1
 768 614 l 1
 768 662 l 1
 768 710 l 1
-0 422 m 1
 48 422 l 1
 48 374 l 1
 -0 374 l 1
 -0 422 l 1
768 374 m 1
 768 326 l 1
 816 326 l 1
 816 374 l 1
 768 374 l 1
-0 134 m 1
 48 134 l 1
 96 134 l 1
 144 134 l 1
 192 134 l 1
 240 134 l 1
 288 134 l 1
 336 134 l 1
 336 86 l 1
 336 38 l 1
 336 -10 l 1
 336 -58 l 1
 336 -106 l 1
 336 -154 l 1
 336 -202 l 1
 288 -202 l 1
 240 -202 l 1
 192 -202 l 1
 144 -202 l 1
 96 -202 l 1
 48 -202 l 1
 -0 -202 l 1
 -0 -154 l 1
 -0 -106 l 1
 -0 -58 l 1
 -0 -10 l 1
 -0 38 l 1
 -0 86 l 1
 -0 134 l 1
48 86 m 1
 48 38 l 1
 48 -10 l 1
 48 -58 l 1
 48 -106 l 1
 48 -154 l 1
 96 -154 l 1
 144 -154 l 1
 192 -154 l 1
 240 -154 l 1
 288 -154 l 1
 288 -106 l 1
 288 -58 l 1
 288 -10 l 1
 288 38 l 1
 288 86 l 1
 240 86 l 1
 192 86 l 1
 144 86 l 1
 96 86 l 1
 48 86 l 1
96 38 m 1
 144 38 l 1
 192 38 l 1
 240 38 l 1
 240 -10 l 1
 240 -58 l 1
 240 -106 l 1
 192 -106 l 1
 144 -106 l 1
 96 -106 l 1
 96 -58 l 1
 96 -10 l 1
 96 38 l 1
768 -10 m 1
 768 -58 l 1
 816 -58 l 1
 816 -10 l 1
 768 -10 l 1
432 -106 m 1
 480 -106 l 1
 480 -154 l 1
 432 -154 l 1
 432 -106 l 1
480 -154 m 1
 528 -154 l 1
 528 -202 l 1
 480 -202 l 1
 480 -154 l 1
432 -154 m 1
 432 -202 l 1
 384 -202 l 1
 384 -154 l 1
 432 -154 l 1
960 -154 m 1
 1008 -154 l 1
 1008 -202 l 1
 960 -202 l 1
 960 -154 l 1
EndSplineSet
EndChar

StartChar: B
Encoding: 66 66 27
Width: 1092
VWidth: 1056
Flags: HW
LayerCount: 2
Fore
SplineSet
0 806 m 1
 48 806 l 1
 96 806 l 1
 144 806 l 1
 192 806 l 1
 240 806 l 1
 288 806 l 1
 336 806 l 1
 336 758 l 1
 336 710 l 1
 336 662 l 1
 336 614 l 1
 336 566 l 1
 336 518 l 1
 336 470 l 1
 288 470 l 1
 240 470 l 1
 192 470 l 1
 144 470 l 1
 96 470 l 1
 48 470 l 1
 0 470 l 1
 0 518 l 1
 0 566 l 1
 0 614 l 1
 0 662 l 1
 0 710 l 1
 0 758 l 1
 0 806 l 1
528 806 m 1
 576 806 l 1
 624 806 l 1
 624 758 l 1
 624 710 l 1
 624 662 l 1
 624 614 l 1
 624 566 l 1
 576 566 l 1
 576 614 l 1
 576 662 l 1
 576 710 l 1
 528 710 l 1
 528 758 l 1
 528 806 l 1
576 566 m 1
 576 518 l 1
 528 518 l 1
 528 470 l 1
 528 422 l 1
 480 422 l 1
 480 470 l 1
 480 518 l 1
 480 566 l 1
 480 614 l 1
 480 662 l 1
 432 662 l 1
 432 614 l 1
 432 566 l 1
 432 518 l 1
 432 470 l 1
 432 422 l 1
 384 422 l 1
 384 470 l 1
 384 518 l 1
 384 566 l 1
 384 614 l 1
 384 662 l 1
 384 710 l 1
 432 710 l 1
 480 710 l 1
 528 710 l 1
 528 662 l 1
 528 614 l 1
 528 566 l 1
 576 566 l 1
576 518 m 1
 624 518 l 1
 624 470 l 1
 576 470 l 1
 576 518 l 1
528 422 m 1
 576 422 l 1
 576 374 l 1
 624 374 l 1
 672 374 l 1
 672 422 l 1
 720 422 l 1
 768 422 l 1
 816 422 l 1
 864 422 l 1
 912 422 l 1
 912 374 l 1
 864 374 l 1
 864 326 l 1
 816 326 l 1
 816 374 l 1
 768 374 l 1
 720 374 l 1
 720 326 l 1
 768 326 l 1
 768 278 l 1
 720 278 l 1
 720 230 l 1
 672 230 l 1
 624 230 l 1
 624 182 l 1
 624 134 l 1
 576 134 l 1
 576 182 l 1
 576 230 l 1
 528 230 l 1
 480 230 l 1
 480 182 l 1
 432 182 l 1
 432 134 l 1
 384 134 l 1
 384 182 l 1
 384 230 l 1
 432 230 l 1
 432 278 l 1
 432 326 l 1
 384 326 l 1
 384 374 l 1
 432 374 l 1
 432 422 l 1
 480 422 l 1
 480 374 l 1
 528 374 l 1
 528 422 l 1
720 230 m 1
 768 230 l 1
 768 182 l 1
 768 134 l 1
 720 134 l 1
 720 182 l 1
 720 230 l 1
768 134 m 1
 816 134 l 1
 864 134 l 1
 864 182 l 1
 864 230 l 1
 912 230 l 1
 912 182 l 1
 912 134 l 1
 960 134 l 1
 960 86 l 1
 960 38 l 1
 912 38 l 1
 912 -10 l 1
 864 -10 l 1
 864 -58 l 1
 816 -58 l 1
 816 -10 l 1
 768 -10 l 1
 768 38 l 1
 720 38 l 1
 720 86 l 1
 768 86 l 1
 768 134 l 1
864 230 m 1
 816 230 l 1
 816 278 l 1
 864 278 l 1
 864 230 l 1
624 134 m 1
 672 134 l 1
 672 86 l 1
 624 86 l 1
 624 134 l 1
576 134 m 1
 576 86 l 1
 528 86 l 1
 480 86 l 1
 480 134 l 1
 480 182 l 1
 528 182 l 1
 528 134 l 1
 576 134 l 1
384 230 m 1
 336 230 l 1
 336 278 l 1
 288 278 l 1
 288 230 l 1
 240 230 l 1
 192 230 l 1
 192 182 l 1
 144 182 l 1
 96 182 l 1
 96 230 l 1
 48 230 l 1
 48 278 l 1
 96 278 l 1
 96 326 l 1
 48 326 l 1
 48 374 l 1
 96 374 l 1
 96 422 l 1
 144 422 l 1
 192 422 l 1
 240 422 l 1
 288 422 l 1
 336 422 l 1
 336 374 l 1
 288 374 l 1
 240 374 l 1
 192 374 l 1
 144 374 l 1
 144 326 l 1
 144 278 l 1
 192 278 l 1
 192 326 l 1
 240 326 l 1
 288 326 l 1
 336 326 l 1
 384 326 l 1
 384 278 l 1
 384 230 l 1
336 230 m 1
 336 182 l 1
 288 182 l 1
 288 230 l 1
 336 230 l 1
48 374 m 1
 0 374 l 1
 0 422 l 1
 48 422 l 1
 48 374 l 1
672 806 m 1
 720 806 l 1
 768 806 l 1
 816 806 l 1
 864 806 l 1
 912 806 l 1
 960 806 l 1
 1008 806 l 1
 1008 758 l 1
 1008 710 l 1
 1008 662 l 1
 1008 614 l 1
 1008 566 l 1
 1008 518 l 1
 1008 470 l 1
 960 470 l 1
 912 470 l 1
 864 470 l 1
 816 470 l 1
 768 470 l 1
 720 470 l 1
 672 470 l 1
 672 518 l 1
 672 566 l 1
 672 614 l 1
 672 662 l 1
 672 710 l 1
 672 758 l 1
 672 806 l 1
48 758 m 1
 48 710 l 1
 48 662 l 1
 48 614 l 1
 48 566 l 1
 48 518 l 1
 96 518 l 1
 144 518 l 1
 192 518 l 1
 240 518 l 1
 288 518 l 1
 288 566 l 1
 288 614 l 1
 288 662 l 1
 288 710 l 1
 288 758 l 1
 240 758 l 1
 192 758 l 1
 144 758 l 1
 96 758 l 1
 48 758 l 1
720 758 m 1
 720 710 l 1
 720 662 l 1
 720 614 l 1
 720 566 l 1
 720 518 l 1
 768 518 l 1
 816 518 l 1
 864 518 l 1
 912 518 l 1
 960 518 l 1
 960 566 l 1
 960 614 l 1
 960 662 l 1
 960 710 l 1
 960 758 l 1
 912 758 l 1
 864 758 l 1
 816 758 l 1
 768 758 l 1
 720 758 l 1
96 710 m 1
 144 710 l 1
 192 710 l 1
 240 710 l 1
 240 662 l 1
 240 614 l 1
 240 566 l 1
 192 566 l 1
 144 566 l 1
 96 566 l 1
 96 614 l 1
 96 662 l 1
 96 710 l 1
768 710 m 1
 816 710 l 1
 864 710 l 1
 912 710 l 1
 912 662 l 1
 912 614 l 1
 912 566 l 1
 864 566 l 1
 816 566 l 1
 768 566 l 1
 768 614 l 1
 768 662 l 1
 768 710 l 1
480 326 m 1
 480 278 l 1
 528 278 l 1
 576 278 l 1
 576 326 l 1
 528 326 l 1
 480 326 l 1
624 326 m 1
 624 278 l 1
 672 278 l 1
 672 326 l 1
 624 326 l 1
960 278 m 1
 1008 278 l 1
 1008 230 l 1
 960 230 l 1
 960 278 l 1
0 134 m 1
 48 134 l 1
 96 134 l 1
 144 134 l 1
 192 134 l 1
 240 134 l 1
 288 134 l 1
 336 134 l 1
 336 86 l 1
 336 38 l 1
 336 -10 l 1
 336 -58 l 1
 336 -106 l 1
 336 -154 l 1
 336 -202 l 1
 288 -202 l 1
 240 -202 l 1
 192 -202 l 1
 144 -202 l 1
 96 -202 l 1
 48 -202 l 1
 0 -202 l 1
 0 -154 l 1
 0 -106 l 1
 0 -58 l 1
 0 -10 l 1
 0 38 l 1
 0 86 l 1
 0 134 l 1
48 86 m 1
 48 38 l 1
 48 -10 l 1
 48 -58 l 1
 48 -106 l 1
 48 -154 l 1
 96 -154 l 1
 144 -154 l 1
 192 -154 l 1
 240 -154 l 1
 288 -154 l 1
 288 -106 l 1
 288 -58 l 1
 288 -10 l 1
 288 38 l 1
 288 86 l 1
 240 86 l 1
 192 86 l 1
 144 86 l 1
 96 86 l 1
 48 86 l 1
384 86 m 1
 432 86 l 1
 432 38 l 1
 480 38 l 1
 528 38 l 1
 576 38 l 1
 576 -10 l 1
 624 -10 l 1
 624 38 l 1
 672 38 l 1
 672 -10 l 1
 720 -10 l 1
 720 -58 l 1
 768 -58 l 1
 768 -106 l 1
 720 -106 l 1
 720 -154 l 1
 672 -154 l 1
 624 -154 l 1
 624 -202 l 1
 576 -202 l 1
 576 -154 l 1
 528 -154 l 1
 480 -154 l 1
 480 -106 l 1
 480 -58 l 1
 528 -58 l 1
 528 -106 l 1
 576 -106 l 1
 576 -58 l 1
 528 -58 l 1
 528 -10 l 1
 480 -10 l 1
 480 -58 l 1
 432 -58 l 1
 432 -106 l 1
 384 -106 l 1
 384 -58 l 1
 384 -10 l 1
 384 38 l 1
 384 86 l 1
720 -154 m 1
 768 -154 l 1
 768 -202 l 1
 720 -202 l 1
 720 -154 l 1
480 -154 m 1
 480 -202 l 1
 432 -202 l 1
 384 -202 l 1
 384 -154 l 1
 432 -154 l 1
 480 -154 l 1
816 86 m 1
 816 38 l 1
 864 38 l 1
 864 86 l 1
 816 86 l 1
96 38 m 1
 144 38 l 1
 192 38 l 1
 240 38 l 1
 240 -10 l 1
 240 -58 l 1
 240 -106 l 1
 192 -106 l 1
 144 -106 l 1
 96 -106 l 1
 96 -58 l 1
 96 -10 l 1
 96 38 l 1
624 -58 m 1
 624 -106 l 1
 672 -106 l 1
 672 -58 l 1
 624 -58 l 1
816 -106 m 1
 864 -106 l 1
 864 -154 l 1
 816 -154 l 1
 816 -106 l 1
864 -154 m 1
 912 -154 l 1
 960 -154 l 1
 960 -202 l 1
 912 -202 l 1
 864 -202 l 1
 864 -154 l 1
EndSplineSet
EndChar

StartChar: C
Encoding: 67 67 28
Width: 1092
VWidth: 1056
Flags: HW
LayerCount: 2
Fore
SplineSet
0 806 m 1
 48 806 l 1
 96 806 l 1
 144 806 l 1
 192 806 l 1
 240 806 l 1
 288 806 l 1
 336 806 l 1
 336 758 l 1
 336 710 l 1
 336 662 l 1
 336 614 l 1
 336 566 l 1
 336 518 l 1
 336 470 l 1
 288 470 l 1
 240 470 l 1
 192 470 l 1
 144 470 l 1
 96 470 l 1
 48 470 l 1
 0 470 l 1
 0 518 l 1
 0 566 l 1
 0 614 l 1
 0 662 l 1
 0 710 l 1
 0 758 l 1
 0 806 l 1
432 806 m 1
 480 806 l 1
 528 806 l 1
 528 758 l 1
 528 710 l 1
 528 662 l 1
 528 614 l 1
 480 614 l 1
 432 614 l 1
 432 662 l 1
 480 662 l 1
 480 710 l 1
 432 710 l 1
 432 758 l 1
 432 806 l 1
576 806 m 1
 624 806 l 1
 624 758 l 1
 576 758 l 1
 576 806 l 1
672 806 m 1
 720 806 l 1
 768 806 l 1
 816 806 l 1
 864 806 l 1
 912 806 l 1
 960 806 l 1
 1008 806 l 1
 1008 758 l 1
 1008 710 l 1
 1008 662 l 1
 1008 614 l 1
 1008 566 l 1
 1008 518 l 1
 1008 470 l 1
 960 470 l 1
 912 470 l 1
 864 470 l 1
 816 470 l 1
 768 470 l 1
 720 470 l 1
 672 470 l 1
 672 518 l 1
 672 566 l 1
 672 614 l 1
 672 662 l 1
 672 710 l 1
 672 758 l 1
 672 806 l 1
48 758 m 1
 48 710 l 1
 48 662 l 1
 48 614 l 1
 48 566 l 1
 48 518 l 1
 96 518 l 1
 144 518 l 1
 192 518 l 1
 240 518 l 1
 288 518 l 1
 288 566 l 1
 288 614 l 1
 288 662 l 1
 288 710 l 1
 288 758 l 1
 240 758 l 1
 192 758 l 1
 144 758 l 1
 96 758 l 1
 48 758 l 1
720 758 m 1
 720 710 l 1
 720 662 l 1
 720 614 l 1
 720 566 l 1
 720 518 l 1
 768 518 l 1
 816 518 l 1
 864 518 l 1
 912 518 l 1
 960 518 l 1
 960 566 l 1
 960 614 l 1
 960 662 l 1
 960 710 l 1
 960 758 l 1
 912 758 l 1
 864 758 l 1
 816 758 l 1
 768 758 l 1
 720 758 l 1
96 710 m 1
 144 710 l 1
 192 710 l 1
 240 710 l 1
 240 662 l 1
 240 614 l 1
 240 566 l 1
 192 566 l 1
 144 566 l 1
 96 566 l 1
 96 614 l 1
 96 662 l 1
 96 710 l 1
576 710 m 1
 624 710 l 1
 624 662 l 1
 624 614 l 1
 624 566 l 1
 624 518 l 1
 624 470 l 1
 624 422 l 1
 576 422 l 1
 528 422 l 1
 528 470 l 1
 576 470 l 1
 576 518 l 1
 528 518 l 1
 528 566 l 1
 576 566 l 1
 576 614 l 1
 576 662 l 1
 576 710 l 1
624 422 m 1
 672 422 l 1
 672 374 l 1
 624 374 l 1
 624 422 l 1
672 374 m 1
 720 374 l 1
 720 326 l 1
 672 326 l 1
 672 374 l 1
720 374 m 1
 720 422 l 1
 768 422 l 1
 768 374 l 1
 720 374 l 1
672 326 m 1
 672 278 l 1
 624 278 l 1
 576 278 l 1
 576 326 l 1
 624 326 l 1
 672 326 l 1
576 278 m 1
 576 230 l 1
 528 230 l 1
 528 182 l 1
 480 182 l 1
 480 230 l 1
 432 230 l 1
 432 278 l 1
 432 326 l 1
 480 326 l 1
 480 374 l 1
 528 374 l 1
 528 326 l 1
 528 278 l 1
 576 278 l 1
576 230 m 1
 624 230 l 1
 624 182 l 1
 576 182 l 1
 576 230 l 1
576 182 m 1
 576 134 l 1
 528 134 l 1
 528 182 l 1
 576 182 l 1
528 134 m 1
 528 86 l 1
 480 86 l 1
 480 134 l 1
 528 134 l 1
528 86 m 1
 576 86 l 1
 624 86 l 1
 624 134 l 1
 672 134 l 1
 672 86 l 1
 672 38 l 1
 624 38 l 1
 576 38 l 1
 576 -10 l 1
 576 -58 l 1
 528 -58 l 1
 480 -58 l 1
 480 -10 l 1
 528 -10 l 1
 528 38 l 1
 528 86 l 1
672 38 m 1
 720 38 l 1
 720 86 l 1
 720 134 l 1
 720 182 l 1
 768 182 l 1
 768 230 l 1
 816 230 l 1
 816 182 l 1
 864 182 l 1
 864 134 l 1
 816 134 l 1
 768 134 l 1
 768 86 l 1
 816 86 l 1
 864 86 l 1
 864 38 l 1
 912 38 l 1
 960 38 l 1
 1008 38 l 1
 1008 -10 l 1
 1008 -58 l 1
 1008 -106 l 1
 960 -106 l 1
 960 -58 l 1
 912 -58 l 1
 864 -58 l 1
 816 -58 l 1
 816 -10 l 1
 768 -10 l 1
 720 -10 l 1
 672 -10 l 1
 672 38 l 1
720 182 m 1
 672 182 l 1
 672 230 l 1
 720 230 l 1
 720 182 l 1
816 230 m 1
 816 278 l 1
 864 278 l 1
 912 278 l 1
 912 230 l 1
 912 182 l 1
 864 182 l 1
 864 230 l 1
 816 230 l 1
912 278 m 1
 912 326 l 1
 864 326 l 1
 864 374 l 1
 912 374 l 1
 960 374 l 1
 960 326 l 1
 1008 326 l 1
 1008 278 l 1
 960 278 l 1
 912 278 l 1
864 134 m 1
 912 134 l 1
 960 134 l 1
 960 86 l 1
 912 86 l 1
 864 86 l 1
 864 134 l 1
816 -58 m 1
 816 -106 l 1
 816 -154 l 1
 864 -154 l 1
 864 -106 l 1
 912 -106 l 1
 912 -154 l 1
 960 -154 l 1
 960 -202 l 1
 912 -202 l 1
 864 -202 l 1
 816 -202 l 1
 768 -202 l 1
 768 -154 l 1
 768 -106 l 1
 768 -58 l 1
 816 -58 l 1
576 -58 m 1
 624 -58 l 1
 624 -106 l 1
 576 -106 l 1
 576 -58 l 1
624 -106 m 1
 672 -106 l 1
 720 -106 l 1
 720 -154 l 1
 672 -154 l 1
 624 -154 l 1
 624 -106 l 1
624 -154 m 1
 624 -202 l 1
 576 -202 l 1
 528 -202 l 1
 480 -202 l 1
 432 -202 l 1
 384 -202 l 1
 384 -154 l 1
 432 -154 l 1
 480 -154 l 1
 480 -106 l 1
 528 -106 l 1
 528 -154 l 1
 576 -154 l 1
 624 -154 l 1
480 -106 m 1
 432 -106 l 1
 432 -58 l 1
 480 -58 l 1
 480 -106 l 1
432 -58 m 1
 384 -58 l 1
 384 -10 l 1
 432 -10 l 1
 432 -58 l 1
432 -10 m 1
 432 38 l 1
 480 38 l 1
 480 -10 l 1
 432 -10 l 1
432 38 m 1
 384 38 l 1
 384 86 l 1
 432 86 l 1
 432 38 l 1
432 326 m 1
 384 326 l 1
 384 374 l 1
 384 422 l 1
 432 422 l 1
 480 422 l 1
 480 374 l 1
 432 374 l 1
 432 326 l 1
384 326 m 1
 384 278 l 1
 384 230 l 1
 384 182 l 1
 336 182 l 1
 288 182 l 1
 288 230 l 1
 336 230 l 1
 336 278 l 1
 288 278 l 1
 288 326 l 1
 336 326 l 1
 384 326 l 1
384 182 m 1
 432 182 l 1
 432 134 l 1
 384 134 l 1
 384 182 l 1
288 230 m 1
 240 230 l 1
 192 230 l 1
 144 230 l 1
 144 182 l 1
 96 182 l 1
 48 182 l 1
 48 230 l 1
 48 278 l 1
 48 326 l 1
 48 374 l 1
 96 374 l 1
 144 374 l 1
 144 326 l 1
 192 326 l 1
 240 326 l 1
 240 278 l 1
 288 278 l 1
 288 230 l 1
48 374 m 1
 0 374 l 1
 0 422 l 1
 48 422 l 1
 48 374 l 1
144 374 m 1
 144 422 l 1
 192 422 l 1
 192 374 l 1
 144 374 l 1
240 326 m 1
 240 374 l 1
 240 422 l 1
 288 422 l 1
 336 422 l 1
 336 374 l 1
 288 374 l 1
 288 326 l 1
 240 326 l 1
528 470 m 1
 480 470 l 1
 480 518 l 1
 528 518 l 1
 528 470 l 1
480 518 m 1
 432 518 l 1
 432 470 l 1
 384 470 l 1
 384 518 l 1
 384 566 l 1
 432 566 l 1
 480 566 l 1
 480 518 l 1
768 710 m 1
 816 710 l 1
 864 710 l 1
 912 710 l 1
 912 662 l 1
 912 614 l 1
 912 566 l 1
 864 566 l 1
 816 566 l 1
 768 566 l 1
 768 614 l 1
 768 662 l 1
 768 710 l 1
960 230 m 1
 1008 230 l 1
 1008 182 l 1
 960 182 l 1
 960 230 l 1
0 134 m 1
 48 134 l 1
 96 134 l 1
 144 134 l 1
 192 134 l 1
 240 134 l 1
 288 134 l 1
 336 134 l 1
 336 86 l 1
 336 38 l 1
 336 -10 l 1
 336 -58 l 1
 336 -106 l 1
 336 -154 l 1
 336 -202 l 1
 288 -202 l 1
 240 -202 l 1
 192 -202 l 1
 144 -202 l 1
 96 -202 l 1
 48 -202 l 1
 0 -202 l 1
 0 -154 l 1
 0 -106 l 1
 0 -58 l 1
 0 -10 l 1
 0 38 l 1
 0 86 l 1
 0 134 l 1
48 86 m 1
 48 38 l 1
 48 -10 l 1
 48 -58 l 1
 48 -106 l 1
 48 -154 l 1
 96 -154 l 1
 144 -154 l 1
 192 -154 l 1
 240 -154 l 1
 288 -154 l 1
 288 -106 l 1
 288 -58 l 1
 288 -10 l 1
 288 38 l 1
 288 86 l 1
 240 86 l 1
 192 86 l 1
 144 86 l 1
 96 86 l 1
 48 86 l 1
96 38 m 1
 144 38 l 1
 192 38 l 1
 240 38 l 1
 240 -10 l 1
 240 -58 l 1
 240 -106 l 1
 192 -106 l 1
 144 -106 l 1
 96 -106 l 1
 96 -58 l 1
 96 -10 l 1
 96 38 l 1
EndSplineSet
EndChar

StartChar: D
Encoding: 68 68 29
Width: 1092
VWidth: 1056
Flags: HW
LayerCount: 2
Fore
SplineSet
0 806 m 1
 48 806 l 1
 96 806 l 1
 144 806 l 1
 192 806 l 1
 240 806 l 1
 288 806 l 1
 336 806 l 1
 336 758 l 1
 336 710 l 1
 336 662 l 1
 336 614 l 1
 336 566 l 1
 336 518 l 1
 336 470 l 1
 288 470 l 1
 240 470 l 1
 192 470 l 1
 144 470 l 1
 96 470 l 1
 48 470 l 1
 0 470 l 1
 0 518 l 1
 0 566 l 1
 0 614 l 1
 0 662 l 1
 0 710 l 1
 0 758 l 1
 0 806 l 1
480 806 m 1
 528 806 l 1
 576 806 l 1
 624 806 l 1
 624 758 l 1
 624 710 l 1
 624 662 l 1
 624 614 l 1
 624 566 l 1
 624 518 l 1
 624 470 l 1
 624 422 l 1
 576 422 l 1
 576 374 l 1
 528 374 l 1
 528 326 l 1
 480 326 l 1
 480 278 l 1
 432 278 l 1
 384 278 l 1
 384 230 l 1
 336 230 l 1
 336 278 l 1
 288 278 l 1
 240 278 l 1
 240 326 l 1
 288 326 l 1
 336 326 l 1
 384 326 l 1
 432 326 l 1
 432 374 l 1
 480 374 l 1
 480 422 l 1
 480 470 l 1
 480 518 l 1
 432 518 l 1
 432 566 l 1
 384 566 l 1
 384 614 l 1
 432 614 l 1
 480 614 l 1
 480 566 l 1
 528 566 l 1
 528 518 l 1
 528 470 l 1
 576 470 l 1
 576 518 l 1
 576 566 l 1
 576 614 l 1
 576 662 l 1
 528 662 l 1
 528 710 l 1
 528 758 l 1
 480 758 l 1
 480 806 l 1
336 230 m 1
 336 182 l 1
 288 182 l 1
 240 182 l 1
 192 182 l 1
 192 230 l 1
 240 230 l 1
 288 230 l 1
 336 230 l 1
192 230 m 1
 144 230 l 1
 144 182 l 1
 96 182 l 1
 96 230 l 1
 96 278 l 1
 144 278 l 1
 144 326 l 1
 96 326 l 1
 48 326 l 1
 48 374 l 1
 96 374 l 1
 96 422 l 1
 144 422 l 1
 144 374 l 1
 192 374 l 1
 192 422 l 1
 240 422 l 1
 240 374 l 1
 240 326 l 1
 192 326 l 1
 192 278 l 1
 192 230 l 1
48 374 m 1
 0 374 l 1
 0 422 l 1
 48 422 l 1
 48 374 l 1
432 518 m 1
 432 470 l 1
 384 470 l 1
 384 518 l 1
 432 518 l 1
480 758 m 1
 480 710 l 1
 480 662 l 1
 432 662 l 1
 432 710 l 1
 384 710 l 1
 384 758 l 1
 432 758 l 1
 480 758 l 1
672 806 m 1
 720 806 l 1
 768 806 l 1
 816 806 l 1
 864 806 l 1
 912 806 l 1
 960 806 l 1
 1008 806 l 1
 1008 758 l 1
 1008 710 l 1
 1008 662 l 1
 1008 614 l 1
 1008 566 l 1
 1008 518 l 1
 1008 470 l 1
 960 470 l 1
 912 470 l 1
 864 470 l 1
 816 470 l 1
 768 470 l 1
 720 470 l 1
 672 470 l 1
 672 518 l 1
 672 566 l 1
 672 614 l 1
 672 662 l 1
 672 710 l 1
 672 758 l 1
 672 806 l 1
48 758 m 1
 48 710 l 1
 48 662 l 1
 48 614 l 1
 48 566 l 1
 48 518 l 1
 96 518 l 1
 144 518 l 1
 192 518 l 1
 240 518 l 1
 288 518 l 1
 288 566 l 1
 288 614 l 1
 288 662 l 1
 288 710 l 1
 288 758 l 1
 240 758 l 1
 192 758 l 1
 144 758 l 1
 96 758 l 1
 48 758 l 1
720 758 m 1
 720 710 l 1
 720 662 l 1
 720 614 l 1
 720 566 l 1
 720 518 l 1
 768 518 l 1
 816 518 l 1
 864 518 l 1
 912 518 l 1
 960 518 l 1
 960 566 l 1
 960 614 l 1
 960 662 l 1
 960 710 l 1
 960 758 l 1
 912 758 l 1
 864 758 l 1
 816 758 l 1
 768 758 l 1
 720 758 l 1
96 710 m 1
 144 710 l 1
 192 710 l 1
 240 710 l 1
 240 662 l 1
 240 614 l 1
 240 566 l 1
 192 566 l 1
 144 566 l 1
 96 566 l 1
 96 614 l 1
 96 662 l 1
 96 710 l 1
768 710 m 1
 816 710 l 1
 864 710 l 1
 912 710 l 1
 912 662 l 1
 912 614 l 1
 912 566 l 1
 864 566 l 1
 816 566 l 1
 768 566 l 1
 768 614 l 1
 768 662 l 1
 768 710 l 1
288 422 m 1
 336 422 l 1
 336 374 l 1
 288 374 l 1
 288 422 l 1
768 422 m 1
 816 422 l 1
 816 374 l 1
 768 374 l 1
 768 422 l 1
912 422 m 1
 960 422 l 1
 960 374 l 1
 960 326 l 1
 912 326 l 1
 864 326 l 1
 864 374 l 1
 912 374 l 1
 912 422 l 1
960 326 m 1
 1008 326 l 1
 1008 278 l 1
 960 278 l 1
 960 326 l 1
960 278 m 1
 960 230 l 1
 1008 230 l 1
 1008 182 l 1
 960 182 l 1
 960 134 l 1
 1008 134 l 1
 1008 86 l 1
 960 86 l 1
 912 86 l 1
 864 86 l 1
 864 38 l 1
 912 38 l 1
 912 -10 l 1
 960 -10 l 1
 960 -58 l 1
 912 -58 l 1
 864 -58 l 1
 864 -10 l 1
 816 -10 l 1
 816 38 l 1
 768 38 l 1
 768 -10 l 1
 720 -10 l 1
 720 -58 l 1
 672 -58 l 1
 672 -10 l 1
 624 -10 l 1
 624 38 l 1
 576 38 l 1
 576 -10 l 1
 528 -10 l 1
 528 -58 l 1
 480 -58 l 1
 480 -106 l 1
 480 -154 l 1
 432 -154 l 1
 432 -106 l 1
 384 -106 l 1
 384 -58 l 1
 432 -58 l 1
 432 -10 l 1
 480 -10 l 1
 480 38 l 1
 480 86 l 1
 432 86 l 1
 432 134 l 1
 480 134 l 1
 528 134 l 1
 528 182 l 1
 576 182 l 1
 576 134 l 1
 576 86 l 1
 624 86 l 1
 624 134 l 1
 624 182 l 1
 672 182 l 1
 672 134 l 1
 720 134 l 1
 720 182 l 1
 768 182 l 1
 768 134 l 1
 768 86 l 1
 816 86 l 1
 816 134 l 1
 816 182 l 1
 864 182 l 1
 864 134 l 1
 912 134 l 1
 912 182 l 1
 864 182 l 1
 864 230 l 1
 864 278 l 1
 912 278 l 1
 960 278 l 1
960 -10 m 1
 960 38 l 1
 1008 38 l 1
 1008 -10 l 1
 960 -10 l 1
960 -58 m 1
 1008 -58 l 1
 1008 -106 l 1
 960 -106 l 1
 960 -58 l 1
960 -106 m 1
 960 -154 l 1
 1008 -154 l 1
 1008 -202 l 1
 960 -202 l 1
 912 -202 l 1
 864 -202 l 1
 864 -154 l 1
 864 -106 l 1
 912 -106 l 1
 960 -106 l 1
480 -154 m 1
 528 -154 l 1
 528 -202 l 1
 480 -202 l 1
 480 -154 l 1
432 -154 m 1
 432 -202 l 1
 384 -202 l 1
 384 -154 l 1
 432 -154 l 1
432 -10 m 1
 384 -10 l 1
 384 38 l 1
 432 38 l 1
 432 -10 l 1
432 134 m 1
 384 134 l 1
 384 182 l 1
 432 182 l 1
 432 134 l 1
432 182 m 1
 432 230 l 1
 480 230 l 1
 528 230 l 1
 528 182 l 1
 480 182 l 1
 432 182 l 1
576 182 m 1
 576 230 l 1
 624 230 l 1
 624 182 l 1
 576 182 l 1
672 182 m 1
 672 230 l 1
 672 278 l 1
 720 278 l 1
 720 230 l 1
 720 182 l 1
 672 182 l 1
768 182 m 1
 768 230 l 1
 816 230 l 1
 816 182 l 1
 768 182 l 1
672 374 m 1
 720 374 l 1
 720 326 l 1
 672 326 l 1
 672 374 l 1
576 326 m 1
 624 326 l 1
 624 278 l 1
 576 278 l 1
 576 326 l 1
768 326 m 1
 816 326 l 1
 816 278 l 1
 768 278 l 1
 768 326 l 1
0 134 m 1
 48 134 l 1
 96 134 l 1
 144 134 l 1
 192 134 l 1
 240 134 l 1
 288 134 l 1
 336 134 l 1
 336 86 l 1
 336 38 l 1
 336 -10 l 1
 336 -58 l 1
 336 -106 l 1
 336 -154 l 1
 336 -202 l 1
 288 -202 l 1
 240 -202 l 1
 192 -202 l 1
 144 -202 l 1
 96 -202 l 1
 48 -202 l 1
 0 -202 l 1
 0 -154 l 1
 0 -106 l 1
 0 -58 l 1
 0 -10 l 1
 0 38 l 1
 0 86 l 1
 0 134 l 1
48 86 m 1
 48 38 l 1
 48 -10 l 1
 48 -58 l 1
 48 -106 l 1
 48 -154 l 1
 96 -154 l 1
 144 -154 l 1
 192 -154 l 1
 240 -154 l 1
 288 -154 l 1
 288 -106 l 1
 288 -58 l 1
 288 -10 l 1
 288 38 l 1
 288 86 l 1
 240 86 l 1
 192 86 l 1
 144 86 l 1
 96 86 l 1
 48 86 l 1
672 86 m 1
 672 38 l 1
 720 38 l 1
 720 86 l 1
 672 86 l 1
96 38 m 1
 144 38 l 1
 192 38 l 1
 240 38 l 1
 240 -10 l 1
 240 -58 l 1
 240 -106 l 1
 192 -106 l 1
 144 -106 l 1
 96 -106 l 1
 96 -58 l 1
 96 -10 l 1
 96 38 l 1
576 -58 m 1
 624 -58 l 1
 624 -106 l 1
 576 -106 l 1
 576 -58 l 1
768 -58 m 1
 816 -58 l 1
 816 -106 l 1
 768 -106 l 1
 768 -58 l 1
672 -106 m 1
 720 -106 l 1
 720 -154 l 1
 720 -202 l 1
 672 -202 l 1
 672 -154 l 1
 672 -106 l 1
576 -154 m 1
 624 -154 l 1
 624 -202 l 1
 576 -202 l 1
 576 -154 l 1
768 -154 m 1
 816 -154 l 1
 816 -202 l 1
 768 -202 l 1
 768 -154 l 1
EndSplineSet
EndChar

StartChar: E
Encoding: 69 69 30
Width: 1092
VWidth: 1056
Flags: HW
LayerCount: 2
Fore
SplineSet
0 806 m 1
 48 806 l 1
 96 806 l 1
 144 806 l 1
 192 806 l 1
 240 806 l 1
 288 806 l 1
 336 806 l 1
 336 758 l 1
 336 710 l 1
 336 662 l 1
 336 614 l 1
 336 566 l 1
 336 518 l 1
 336 470 l 1
 288 470 l 1
 240 470 l 1
 192 470 l 1
 144 470 l 1
 96 470 l 1
 48 470 l 1
 0 470 l 1
 0 518 l 1
 0 566 l 1
 0 614 l 1
 0 662 l 1
 0 710 l 1
 0 758 l 1
 0 806 l 1
384 806 m 1
 432 806 l 1
 480 806 l 1
 480 758 l 1
 480 710 l 1
 528 710 l 1
 528 662 l 1
 480 662 l 1
 480 614 l 1
 432 614 l 1
 384 614 l 1
 384 662 l 1
 432 662 l 1
 432 710 l 1
 384 710 l 1
 384 758 l 1
 384 806 l 1
528 710 m 1
 528 758 l 1
 576 758 l 1
 576 806 l 1
 624 806 l 1
 624 758 l 1
 624 710 l 1
 576 710 l 1
 528 710 l 1
672 806 m 1
 720 806 l 1
 768 806 l 1
 816 806 l 1
 864 806 l 1
 912 806 l 1
 960 806 l 1
 1008 806 l 1
 1008 758 l 1
 1008 710 l 1
 1008 662 l 1
 1008 614 l 1
 1008 566 l 1
 1008 518 l 1
 1008 470 l 1
 960 470 l 1
 912 470 l 1
 864 470 l 1
 816 470 l 1
 768 470 l 1
 720 470 l 1
 672 470 l 1
 672 518 l 1
 672 566 l 1
 672 614 l 1
 672 662 l 1
 672 710 l 1
 672 758 l 1
 672 806 l 1
48 758 m 1
 48 710 l 1
 48 662 l 1
 48 614 l 1
 48 566 l 1
 48 518 l 1
 96 518 l 1
 144 518 l 1
 192 518 l 1
 240 518 l 1
 288 518 l 1
 288 566 l 1
 288 614 l 1
 288 662 l 1
 288 710 l 1
 288 758 l 1
 240 758 l 1
 192 758 l 1
 144 758 l 1
 96 758 l 1
 48 758 l 1
720 758 m 1
 720 710 l 1
 720 662 l 1
 720 614 l 1
 720 566 l 1
 720 518 l 1
 768 518 l 1
 816 518 l 1
 864 518 l 1
 912 518 l 1
 960 518 l 1
 960 566 l 1
 960 614 l 1
 960 662 l 1
 960 710 l 1
 960 758 l 1
 912 758 l 1
 864 758 l 1
 816 758 l 1
 768 758 l 1
 720 758 l 1
96 710 m 1
 144 710 l 1
 192 710 l 1
 240 710 l 1
 240 662 l 1
 240 614 l 1
 240 566 l 1
 192 566 l 1
 144 566 l 1
 96 566 l 1
 96 614 l 1
 96 662 l 1
 96 710 l 1
768 710 m 1
 816 710 l 1
 864 710 l 1
 912 710 l 1
 912 662 l 1
 912 614 l 1
 912 566 l 1
 864 566 l 1
 816 566 l 1
 768 566 l 1
 768 614 l 1
 768 662 l 1
 768 710 l 1
576 662 m 1
 624 662 l 1
 624 614 l 1
 576 614 l 1
 576 662 l 1
576 614 m 1
 576 566 l 1
 624 566 l 1
 624 518 l 1
 624 470 l 1
 624 422 l 1
 624 374 l 1
 672 374 l 1
 672 422 l 1
 720 422 l 1
 720 374 l 1
 720 326 l 1
 672 326 l 1
 624 326 l 1
 576 326 l 1
 576 278 l 1
 576 230 l 1
 528 230 l 1
 480 230 l 1
 432 230 l 1
 432 182 l 1
 480 182 l 1
 480 134 l 1
 432 134 l 1
 432 86 l 1
 432 38 l 1
 384 38 l 1
 384 86 l 1
 384 134 l 1
 384 182 l 1
 336 182 l 1
 288 182 l 1
 240 182 l 1
 192 182 l 1
 144 182 l 1
 96 182 l 1
 48 182 l 1
 48 230 l 1
 48 278 l 1
 96 278 l 1
 96 230 l 1
 144 230 l 1
 192 230 l 1
 192 278 l 1
 144 278 l 1
 96 278 l 1
 96 326 l 1
 48 326 l 1
 48 374 l 1
 96 374 l 1
 96 422 l 1
 144 422 l 1
 192 422 l 1
 192 374 l 1
 240 374 l 1
 240 422 l 1
 288 422 l 1
 336 422 l 1
 384 422 l 1
 384 374 l 1
 336 374 l 1
 288 374 l 1
 288 326 l 1
 336 326 l 1
 336 278 l 1
 288 278 l 1
 288 230 l 1
 336 230 l 1
 384 230 l 1
 384 278 l 1
 432 278 l 1
 480 278 l 1
 528 278 l 1
 528 326 l 1
 480 326 l 1
 480 374 l 1
 528 374 l 1
 528 422 l 1
 480 422 l 1
 480 374 l 1
 432 374 l 1
 432 422 l 1
 384 422 l 1
 384 470 l 1
 384 518 l 1
 432 518 l 1
 432 470 l 1
 480 470 l 1
 480 518 l 1
 432 518 l 1
 432 566 l 1
 480 566 l 1
 528 566 l 1
 528 614 l 1
 576 614 l 1
576 230 m 1
 624 230 l 1
 624 182 l 1
 576 182 l 1
 576 230 l 1
576 182 m 1
 576 134 l 1
 624 134 l 1
 624 86 l 1
 576 86 l 1
 528 86 l 1
 528 134 l 1
 528 182 l 1
 576 182 l 1
528 86 m 1
 528 38 l 1
 528 -10 l 1
 576 -10 l 1
 576 -58 l 1
 528 -58 l 1
 528 -106 l 1
 528 -154 l 1
 528 -202 l 1
 480 -202 l 1
 432 -202 l 1
 384 -202 l 1
 384 -154 l 1
 432 -154 l 1
 480 -154 l 1
 480 -106 l 1
 480 -58 l 1
 432 -58 l 1
 432 -106 l 1
 384 -106 l 1
 384 -58 l 1
 384 -10 l 1
 432 -10 l 1
 432 38 l 1
 480 38 l 1
 480 86 l 1
 528 86 l 1
576 -10 m 1
 576 38 l 1
 624 38 l 1
 672 38 l 1
 720 38 l 1
 720 86 l 1
 720 134 l 1
 768 134 l 1
 768 86 l 1
 816 86 l 1
 816 38 l 1
 816 -10 l 1
 864 -10 l 1
 912 -10 l 1
 960 -10 l 1
 960 -58 l 1
 912 -58 l 1
 864 -58 l 1
 816 -58 l 1
 768 -58 l 1
 768 -106 l 1
 768 -154 l 1
 720 -154 l 1
 720 -106 l 1
 672 -106 l 1
 672 -58 l 1
 672 -10 l 1
 624 -10 l 1
 576 -10 l 1
720 134 m 1
 672 134 l 1
 672 182 l 1
 720 182 l 1
 720 134 l 1
720 182 m 1
 720 230 l 1
 672 230 l 1
 672 278 l 1
 720 278 l 1
 768 278 l 1
 816 278 l 1
 816 326 l 1
 816 374 l 1
 816 422 l 1
 864 422 l 1
 864 374 l 1
 864 326 l 1
 912 326 l 1
 912 278 l 1
 912 230 l 1
 960 230 l 1
 960 182 l 1
 912 182 l 1
 864 182 l 1
 864 230 l 1
 816 230 l 1
 768 230 l 1
 768 182 l 1
 720 182 l 1
960 182 m 1
 1008 182 l 1
 1008 134 l 1
 960 134 l 1
 960 182 l 1
864 182 m 1
 864 134 l 1
 864 86 l 1
 816 86 l 1
 816 134 l 1
 816 182 l 1
 864 182 l 1
864 86 m 1
 912 86 l 1
 960 86 l 1
 960 38 l 1
 912 38 l 1
 864 38 l 1
 864 86 l 1
960 38 m 1
 1008 38 l 1
 1008 -10 l 1
 960 -10 l 1
 960 38 l 1
768 -154 m 1
 816 -154 l 1
 816 -202 l 1
 768 -202 l 1
 768 -154 l 1
672 -106 m 1
 672 -154 l 1
 672 -202 l 1
 624 -202 l 1
 624 -154 l 1
 624 -106 l 1
 672 -106 l 1
624 -106 m 1
 576 -106 l 1
 576 -58 l 1
 624 -58 l 1
 624 -106 l 1
48 374 m 1
 0 374 l 1
 0 422 l 1
 48 422 l 1
 48 374 l 1
528 518 m 1
 528 470 l 1
 576 470 l 1
 576 518 l 1
 528 518 l 1
912 422 m 1
 960 422 l 1
 1008 422 l 1
 1008 374 l 1
 960 374 l 1
 912 374 l 1
 912 422 l 1
960 326 m 1
 1008 326 l 1
 1008 278 l 1
 960 278 l 1
 960 326 l 1
0 134 m 1
 48 134 l 1
 96 134 l 1
 144 134 l 1
 192 134 l 1
 240 134 l 1
 288 134 l 1
 336 134 l 1
 336 86 l 1
 336 38 l 1
 336 -10 l 1
 336 -58 l 1
 336 -106 l 1
 336 -154 l 1
 336 -202 l 1
 288 -202 l 1
 240 -202 l 1
 192 -202 l 1
 144 -202 l 1
 96 -202 l 1
 48 -202 l 1
 0 -202 l 1
 0 -154 l 1
 0 -106 l 1
 0 -58 l 1
 0 -10 l 1
 0 38 l 1
 0 86 l 1
 0 134 l 1
48 86 m 1
 48 38 l 1
 48 -10 l 1
 48 -58 l 1
 48 -106 l 1
 48 -154 l 1
 96 -154 l 1
 144 -154 l 1
 192 -154 l 1
 240 -154 l 1
 288 -154 l 1
 288 -106 l 1
 288 -58 l 1
 288 -10 l 1
 288 38 l 1
 288 86 l 1
 240 86 l 1
 192 86 l 1
 144 86 l 1
 96 86 l 1
 48 86 l 1
96 38 m 1
 144 38 l 1
 192 38 l 1
 240 38 l 1
 240 -10 l 1
 240 -58 l 1
 240 -106 l 1
 192 -106 l 1
 144 -106 l 1
 96 -106 l 1
 96 -58 l 1
 96 -10 l 1
 96 38 l 1
864 -106 m 1
 912 -106 l 1
 912 -154 l 1
 864 -154 l 1
 864 -106 l 1
960 -106 m 1
 1008 -106 l 1
 1008 -154 l 1
 960 -154 l 1
 960 -106 l 1
EndSplineSet
EndChar

